SplineFontDB: 3.0
FontName: Suruma
FullName: Suruma
FamilyName: Suruma
Weight: Medium
Copyright: Created by suresh p. <psuresh@gmx.com> with FontForge (http://fontforge.sf.net)\n\nThis is free software and is licenced under the terms of GNU General Public Licence (Ver.3) by Free Software Foundation,with font Exception\n\nFont Exception\n^^^^^^^^^^^^^^\nAs a special exception, if you create a document which uses this font, and embed this font or unaltered portions of this font into the document, this font does not by itself cause the resulting document to be covered by the GNU General Public License. This exception does not however invalidate any other reasons why the document might be covered by the GNU General Public License. If you modify this font, you may extend this exception to your version of the font, but you are not obligated to do so. If you do not wish to do so, delete this exception statement from your version.
FontLog: "3.2:+AAoA* Font name changed to Suruma(with capital 'S')+AAoA* Glyph outlines reworked and simplified.+AAoA* Reworked feature tables for improved uniscribe support.+AAoA* Added support for opentype version 1.6 which uses an new approach for indic text processing." 
Version: 3;Subversion:0.2
ItalicAngle: 0
UnderlinePosition: -100
UnderlineWidth: 50
Ascent: 667
Descent: 333
LayerCount: 2
Layer: 0 0 "Back"  1
Layer: 1 0 "Fore"  0
NeedsXUIDChange: 1
XUID: [1021 803 1118942674 10543045]
FSType: 8
OS2Version: 0
OS2_WeightWidthSlopeOnly: 0
OS2_UseTypoMetrics: 1
CreationTime: 1252992654
ModificationTime: 1253324615
PfmFamily: 17
TTFWeight: 500
TTFWidth: 5
LineGap: 90
VLineGap: 0
OS2TypoAscent: 0
OS2TypoAOffset: 1
OS2TypoDescent: 0
OS2TypoDOffset: 1
OS2TypoLinegap: 90
OS2WinAscent: 0
OS2WinAOffset: 1
OS2WinDescent: 0
OS2WinDOffset: 1
HheadAscent: 0
HheadAOffset: 1
HheadDescent: 0
HheadDOffset: 1
OS2Vendor: 'SRMA'

StartChar: exclam
Encoding: 33 33 0
Width: 187
Flags: HW
LayerCount: 2
Fore
SplineSet
40 48 m 132
 40 86 57 105 92 105 c 4
 129 105 148 86 148 48 c 132
 148 10 129 -10 94 -10 c 4
 57 -10 40 10 40 48 c 132
44 584 m 128
 44 627 46 650 50 655 c 0
 64 670 78 677 92 677 c 128
 106 677 120 670 134 655 c 0
 139 649 142 625 142 582 c 128
 142 539 139 478 134 399 c 9
 110 202 l 1
 74 202 l 1
 50 399 l 17
 46 480 44 541 44 584 c 128
EndSplineSet
Validated: 1
EndChar

StartChar: quotedbl
Encoding: 34 34 1
Width: 376
Flags: HW
LayerCount: 2
Fore
SplineSet
34 606 m 132
 34 627 36 640 40 644 c 4
 56 659 71 667 87 667 c 132
 103 667 118 659 133 644 c 4
 137 640 139 628 139 607 c 132
 139 586 137 557 133 520 c 13
 108 400 l 5
 68 400 l 5
 40 520 l 21
 36 557 34 585 34 606 c 132
236 605 m 132
 236 626 239 639 243 644 c 4
 257 661 272 670 288 670 c 132
 304 670 319 661 336 644 c 4
 340 640 342 628 342 607 c 132
 342 586 340 558 336 520 c 13
 311 400 l 5
 272 400 l 5
 243 520 l 21
 239 556 236 584 236 605 c 132
EndSplineSet
Validated: 1
EndChar

StartChar: numbersign
Encoding: 35 35 2
Width: 554
Flags: HW
LayerCount: 2
Fore
SplineSet
40 189 m 1
 40 250 l 1
 142 250 l 1
 170 407 l 1
 72 407 l 1
 72 468 l 1
 182 468 l 1
 214 644 l 5
 282 644 l 5
 250 468 l 1
 362 468 l 1
 394 644 l 5
 462 644 l 5
 430 468 l 1
 514 468 l 1
 514 407 l 1
 418 407 l 1
 392 250 l 1
 486 250 l 1
 486 189 l 1
 380 189 l 1
 346 0 l 1
 276 0 l 1
 312 189 l 1
 200 189 l 1
 164 0 l 1
 96 0 l 1
 130 189 l 1
 40 189 l 1
210 250 m 1
 322 250 l 1
 350 407 l 1
 240 407 l 1
 210 250 l 1
EndSplineSet
Validated: 1
EndChar

StartChar: dollar
Encoding: 36 36 3
Width: 474
Flags: HW
LayerCount: 2
Fore
SplineSet
40 168 m 0
 40 179 41 190 42 202 c 1
 82 203 l 1
 80 189 78 175 78 163 c 0
 78 86 121 48 206 47 c 1
 206 291 l 1
 103 329 52 387 52 464 c 0
 52 562 103 612 206 612 c 1
 206 667 l 1
 264 667 l 1
 264 613 l 1
 349 613 399 560 416 454 c 1
 382 453 l 1
 362 536 322 578 264 578 c 1
 264 347 l 1
 377 309 434 257 434 189 c 0
 434 51 352 16 264 16 c 1
 264 -53 l 1
 206 -53 l 1
 206 14 l 1
 119 14 40 45 40 168 c 0
118 468 m 0
 118 420 147 384 206 362 c 1
 206 577 l 1
 147 576 118 540 118 468 c 0
264 47 m 1
 333 48 368 92 368 182 c 0
 368 225 333 259 264 284 c 1
 264 47 l 1
EndSplineSet
Validated: 1
EndChar

StartChar: percent
Encoding: 37 37 4
Width: 760
Flags: HW
LayerCount: 2
Fore
SplineSet
40 486 m 0
 40 585 86 635 178 635 c 128
 270 635 314 586 314 489 c 0
 314 381 270 327 178 327 c 128
 86 327 40 380 40 486 c 0
96 489 m 128
 96 417 127 381 188 381 c 0
 247 381 276 417 276 489 c 128
 276 561 246 598 186 598 c 0
 125 598 96 561 96 489 c 128
184 0 m 5
 504 657 l 1
 566 657 l 1
 248 0 l 5
 184 0 l 5
444 195 m 0
 444 294 490 344 582 344 c 128
 674 344 720 295 720 198 c 0
 720 90 674 36 582 36 c 128
 490 36 444 89 444 195 c 0
500 198 m 0
 500 126 531 90 592 90 c 0
 651 90 680 126 680 198 c 0
 680 270 651 307 592 307 c 0
 531 307 500 270 500 198 c 0
EndSplineSet
Validated: 1
EndChar

StartChar: ampersand
Encoding: 38 38 5
Width: 603
Flags: HW
LayerCount: 2
Fore
SplineSet
40 136 m 0
 40 230 94 314 204 386 c 1
 153 437 128 488 128 540 c 0
 128 623 180 667 284 667 c 0
 374 667 420 625 420 555 c 0
 420 501 374 449 282 387 c 1
 434 168 l 1
 461 207 475 254 476 309 c 1
 514 309 l 1
 510 247 493 189 460 135 c 1
 564 0 l 1
 476 0 l 1
 420 79 l 1
 366 19 303 -10 230 -10 c 0
 103 -10 40 38 40 136 c 0
118 145 m 0
 118 73 157 30 236 30 c 0
 291 30 343 62 392 114 c 1
 224 353 l 1
 154 292 118 223 118 145 c 0
185 547 m 0
 185 492 220 459 254 424 c 1
 337 475 376 520 376 557 c 0
 376 605 346 627 282 627 c 4
 199 627 185 578 185 547 c 0
EndSplineSet
Validated: 1
EndChar

StartChar: quotesingle
Encoding: 39 39 6
Width: 183
Flags: HW
LayerCount: 2
Fore
SplineSet
34 611 m 132
 34 628 36 638 40 642 c 4
 57 659 75 667 92 667 c 132
 109 667 127 659 144 642 c 4
 148 638 150 629 150 612 c 132
 150 595 148 573 144 543 c 13
 110 403 l 5
 74 403 l 5
 40 543 l 21
 36 572 34 594 34 611 c 132
EndSplineSet
Validated: 1
EndChar

StartChar: parenleft
Encoding: 40 40 7
Width: 276
Flags: HW
LayerCount: 2
Fore
SplineSet
40 231 m 0
 40 406 122 559 206 653 c 5
 236 653 l 5
 154 521 113 382 113 238 c 0
 113 72 154 -72 236 -193 c 1
 202 -193 l 1
 88 -68 40 92 40 231 c 0
EndSplineSet
Validated: 1
EndChar

StartChar: parenright
Encoding: 41 41 8
Width: 276
Flags: HW
LayerCount: 2
Fore
SplineSet
40 -193 m 5
 122 -72 164 72 164 238 c 4
 164 382 122 521 40 653 c 5
 70 653 l 5
 154 559 236 406 236 231 c 0
 236 92 189 -68 75 -193 c 5
 40 -193 l 5
EndSplineSet
Validated: 1
EndChar

StartChar: asterisk
Encoding: 42 42 9
Width: 378
Flags: HW
LayerCount: 2
Fore
SplineSet
30 539 m 4
 30 554 39 565 56 571 c 13
 162 534 l 5
 156 644 l 5
 168 658 180 666 190 666 c 132
 200 666 209 658 218 644 c 13
 214 534 l 5
 318 571 l 5
 337 565 348 555 348 541 c 4
 348 533 345 524 338 513 c 13
 230 483 l 5
 300 395 l 5
 299 369 289 357 268 357 c 4
 263 357 255 357 248 359 c 13
 188 452 l 5
 126 359 l 5
 119 357 112 356 106 356 c 4
 86 356 76 369 76 395 c 13
 144 483 l 5
 38 513 l 5
 34 523 30 531 30 539 c 4
EndSplineSet
Validated: 1
EndChar

StartChar: plus
Encoding: 43 43 10
Width: 529
Flags: HW
LayerCount: 2
Fore
SplineSet
40 187 m 1
 40 264 l 1
 226 264 l 1
 226 450 l 1
 303 450 l 1
 303 264 l 1
 489 264 l 1
 489 187 l 1
 303 187 l 1
 303 0 l 1
 226 0 l 1
 226 187 l 1
 40 187 l 1
EndSplineSet
Validated: 1
EndChar

StartChar: comma
Encoding: 44 44 11
Width: 193
Flags: HW
LayerCount: 2
Fore
SplineSet
40 54 m 0
 40 85 57 100 94 100 c 0
 133 100 154 69 154 5 c 0
 154 -75 118 -116 46 -116 c 2
 44 -116 l 1
 44 -83 l 1
 82 -80 102 -60 102 -23 c 0
 102 -18 101 -12 100 -7 c 1
 97 -7 95 -8 92 -8 c 0
 57 -8 40 13 40 54 c 0
EndSplineSet
Validated: 1
EndChar

StartChar: hyphen
Encoding: 45 45 12
Width: 362
Flags: HW
LayerCount: 2
Fore
SplineSet
40 170 m 1
 40 249 l 1
 322 249 l 1
 322 170 l 1
 40 170 l 1
EndSplineSet
Validated: 1
EndChar

StartChar: period
Encoding: 46 46 13
Width: 187
Flags: HW
LayerCount: 2
Fore
SplineSet
40 46 m 0
 40 84 57 103 92 103 c 0
 129 103 148 84 148 46 c 0
 148 8 129 -10 94 -10 c 4
 57 -10 40 8 40 46 c 0
EndSplineSet
Validated: 1
EndChar

StartChar: slash
Encoding: 47 47 14
Width: 352
Flags: HW
LayerCount: 2
Fore
SplineSet
40 -14 m 1
 252 667 l 5
 312 667 l 5
 100 -14 l 1
 40 -14 l 1
EndSplineSet
Validated: 1
EndChar

StartChar: zero
Encoding: 48 48 15
Width: 497
Flags: HW
LayerCount: 2
Fore
SplineSet
40 334 m 0
 40 555 110 667 250 667 c 0
 388 667 457 554 457 327 c 0
 457 111 387 -10 247 -10 c 0
 109 -10 40 113 40 334 c 0
124 338 m 0
 124 132 166 30 249 30 c 4
 335 30 379 130 379 335 c 0
 379 523 337 627 252 627 c 256
 167 627 124 524 124 338 c 0
EndSplineSet
Validated: 1
EndChar

StartChar: one
Encoding: 49 49 16
Width: 299
Flags: HW
LayerCount: 2
Fore
SplineSet
40 454 m 1
 40 492 l 1
 180 496 191 531 191 605 c 0
 191 620 190 639 190 657 c 5
 260 657 l 5
 260 0 l 1
 180 0 l 1
 180 454 l 1
 40 454 l 1
EndSplineSet
Validated: 1
EndChar

StartChar: two
Encoding: 50 50 17
Width: 508
Flags: HW
LayerCount: 2
Fore
SplineSet
40 0 m 1
 40 1 40 2 40 3 c 0
 40 164 99 267 218 312 c 2
 308 347 l 2
 360 367 388 407 388 469 c 0
 388 572 345 630 260 630 c 0
 157 630 104 563 104 443 c 1
 54 443 l 1
 55 588 122 667 254 667 c 4
 389 667 468 604 468 490 c 0
 468 484 468 477 468 470 c 0
 468 385 424 325 334 289 c 2
 244 253 l 2
 163 221 124 152 124 45 c 1
 464 45 l 1
 464 0 l 1
 40 0 l 1
EndSplineSet
Validated: 1
EndChar

StartChar: three
Encoding: 51 51 18
Width: 505
Flags: HW
LayerCount: 2
Fore
SplineSet
40 194 m 1
 86 195 l 1
 99 90 152 30 248 30 c 0
 339 30 384 84 384 183 c 128
 384 281 342 330 258 330 c 2
 210 330 l 1
 210 377 l 1
 256 377 l 2
 330 377 368 422 368 511 c 0
 368 590 328 627 252 627 c 4
 153 626 103 570 100 460 c 1
 54 459 l 1
 55 596 120 667 252 667 c 0
 381 667 446 613 446 509 c 0
 446 433 416 382 354 358 c 1
 428 334 466 277 466 187 c 0
 466 55 394 -10 250 -10 c 0
 122 -10 52 57 40 194 c 1
EndSplineSet
Validated: 1
EndChar

StartChar: four
Encoding: 52 52 19
Width: 522
Flags: HW
LayerCount: 2
Fore
SplineSet
40 153 m 5
 40 224 l 1
 312 657 l 1
 388 657 l 1
 388 224 l 1
 482 224 l 1
 482 153 l 1
 388 153 l 1
 388 0 l 1
 310 0 l 1
 310 153 l 1
 40 153 l 5
92 224 m 1
 310 224 l 1
 310 556 l 1
 92 224 l 1
EndSplineSet
Validated: 1
EndChar

StartChar: five
Encoding: 53 53 20
Width: 509
Flags: HW
LayerCount: 2
Fore
SplineSet
40 160 m 1
 80 160 l 1
 102 45 171 30 244 30 c 0
 292 30 389 46 389 243 c 0
 389 353 365 437 268 437 c 0
 213 437 167 407 132 347 c 1
 60 347 l 1
 106 657 l 1
 436 657 l 1
 436 612 l 5
 170 612 l 5
 146 437 l 1
 183 463 223 477 264 477 c 0
 400 477 470 402 470 246 c 0
 470 71 395 -10 244 -10 c 0
 126 -10 58 42 40 160 c 1
EndSplineSet
Validated: 1
EndChar

StartChar: six
Encoding: 54 54 21
Width: 502
Flags: HW
LayerCount: 2
Fore
SplineSet
40 299 m 0
 40 543 111 667 253 667 c 0
 366 667 432 610 449 499 c 1
 410 499 l 1
 392 583 340 625 253 625 c 128
 166 625 123 531 122 342 c 1
 150 385 196 405 261 405 c 0
 395 405 462 338 462 204 c 0
 462 60 394 -10 258 -10 c 0
 112 -10 40 92 40 299 c 0
125 197 m 128
 125 81 168 30 255 30 c 0
 349 30 396 84 396 204 c 0
 395 316 351 365 266 365 c 0
 172 365 125 313 125 197 c 128
EndSplineSet
Validated: 1
EndChar

StartChar: seven
Encoding: 55 55 22
Width: 505
Flags: HW
LayerCount: 2
Fore
SplineSet
40 616 m 5
 40 657 l 5
 466 657 l 5
 466 590 l 5
 329 405 242 207 206 0 c 1
 122 0 l 1
 162 212 250 419 384 616 c 5
 40 616 l 5
EndSplineSet
Validated: 1
EndChar

StartChar: eight
Encoding: 56 56 23
Width: 507
Flags: HW
LayerCount: 2
Fore
SplineSet
40 189 m 0
 40 266 79 326 158 364 c 1
 94 400 62 444 62 497 c 0
 62 610 126 667 254 667 c 128
 443 667 444 543 444 496 c 0
 444 446 413 403 348 364 c 1
 428 329 468 270 468 192 c 0
 468 59 397 -10 254 -10 c 128
 111 -10 40 57 40 189 c 0
120 185 m 128
 120 82 164 30 250 30 c 0
 341 30 386 82 386 185 c 128
 386 288 343 340 254 340 c 128
 165 340 120 288 120 185 c 128
144 496 m 0
 144 422 180 385 254 385 c 128
 328 385 364 423 364 497 c 0
 364 586 326 627 252 627 c 0
 179 627 144 586 144 496 c 0
EndSplineSet
Validated: 1
EndChar

StartChar: nine
Encoding: 57 57 24
Width: 502
Flags: HW
LayerCount: 2
Fore
SplineSet
40 450 m 0
 40 594 108 667 244 667 c 0
 390 667 462 562 462 355 c 0
 462 111 391 -10 249 -10 c 0
 136 -10 70 44 53 155 c 1
 92 155 l 1
 110 71 162 30 249 30 c 128
 336 30 379 123 380 312 c 1
 352 269 306 249 241 249 c 0
 107 249 40 316 40 450 c 0
106 451 m 0
 107 339 151 283 236 283 c 0
 330 283 377 341 377 457 c 128
 377 554 351 627 247 627 c 0
 153 627 106 571 106 451 c 0
EndSplineSet
Validated: 1
EndChar

StartChar: colon
Encoding: 58 58 25
Width: 187
Flags: HW
LayerCount: 2
Fore
SplineSet
40 48 m 0
 40 86 57 105 92 105 c 0
 129 105 148 86 148 48 c 0
 148 10 129 -10 94 -10 c 0
 57 -10 40 10 40 48 c 0
40 443 m 4
 40 481 57 500 92 500 c 4
 129 500 148 481 148 443 c 4
 148 405 129 386 94 386 c 4
 57 386 40 405 40 443 c 4
EndSplineSet
Validated: 1
EndChar

StartChar: semicolon
Encoding: 59 59 26
Width: 193
Flags: HW
LayerCount: 2
Fore
SplineSet
40 54 m 0
 40 85 57 100 94 100 c 0
 133 100 154 69 154 5 c 0
 154 -75 118 -116 46 -116 c 2
 44 -116 l 1
 44 -83 l 1
 82 -80 102 -60 102 -23 c 0
 102 -18 101 -12 100 -7 c 1
 97 -7 95 -8 92 -8 c 0
 57 -8 40 13 40 54 c 0
44 443 m 128
 44 481 61 500 96 500 c 0
 133 500 150 481 150 443 c 128
 150 405 133 386 98 386 c 0
 61 386 44 405 44 443 c 128
EndSplineSet
Validated: 1
EndChar

StartChar: less
Encoding: 60 60 27
Width: 519
Flags: HW
LayerCount: 2
Fore
SplineSet
40 186 m 1
 40 248 l 1
 480 434 l 5
 480 363 l 1
 126 218 l 1
 480 71 l 1
 480 0 l 1
 40 186 l 1
EndSplineSet
Validated: 1
EndChar

StartChar: equal
Encoding: 61 61 28
Width: 573
Flags: HW
LayerCount: 2
Fore
SplineSet
40 88 m 1
 40 151 l 1
 533 151 l 1
 533 88 l 1
 40 88 l 1
40 272 m 1
 40 335 l 1
 533 335 l 1
 533 272 l 1
 40 272 l 1
EndSplineSet
Validated: 1
EndChar

StartChar: greater
Encoding: 62 62 29
Width: 519
Flags: HW
LayerCount: 2
Fore
SplineSet
40 0 m 5
 40 81 l 1
 384 216 l 1
 40 353 l 1
 40 434 l 1
 480 248 l 1
 480 186 l 1
 40 0 l 5
EndSplineSet
Validated: 1
EndChar

StartChar: question
Encoding: 63 63 30
Width: 367
VWidth: 500
Flags: HW
LayerCount: 2
Fore
SplineSet
40 483 m 1
 40 484 40 486 40 487 c 0
 40 595 83 650 167 650 c 0
 274 650 327 598 327 494 c 0
 327 447 306 396 263 341 c 128
 220 286 195 224 187 155 c 1
 159 155 l 1
 160 209 171 254 190 291 c 0
 227 363 245 429 245 492 c 0
 245 575 215 617 155 617 c 0
 102 617 72 573 66 484 c 1
 40 483 l 1
119 46 m 128
 119 84 137 103 172 103 c 0
 209 103 227 84 227 46 c 128
 227 8 209 -10 174 -10 c 4
 137 -10 119 8 119 46 c 128
EndSplineSet
Validated: 1
EndChar

StartChar: at
Encoding: 64 64 31
Width: 690
VWidth: 750
Flags: HW
LayerCount: 2
Fore
SplineSet
40 329 m 0
 40 556 146 667 358 667 c 0
 553 667 650 571 650 376 c 0
 650 229 605 156 514 156 c 0
 452 156 418 179 412 227 c 1
 360 203 320 191 288 191 c 0
 238 191 212 221 212 282 c 0
 212 379 252 493 396 505 c 1
 415 505 436 499 460 485 c 1
 468 507 l 1
 532 508 l 1
 476 251 l 2
 474 240 472 232 472 224 c 0
 472 201 482 189 502 189 c 0
 577 191 616 252 616 373 c 0
 616 513 563 631 360 631 c 0
 199 631 114 534 114 334 c 0
 114 62 295 27 380 27 c 4
 413 27 468 41 544 73 c 1
 556 43 l 1
 475 7 414 -10 374 -10 c 4
 151 -10 40 102 40 329 c 0
282 290 m 0
 282 255 295 238 320 238 c 0
 392 238 440 324 440 418 c 0
 440 455 427 474 402 474 c 0
 307 474 282 333 282 290 c 0
EndSplineSet
Validated: 1
EndChar

StartChar: A
Encoding: 65 65 32
Width: 651
Flags: HW
LayerCount: 2
Fore
SplineSet
40 0 m 1
 273 657 l 5
 381 657 l 1
 611 0 l 1
 518 0 l 1
 451 205 l 1
 164 205 l 1
 91 0 l 1
 40 0 l 1
177 250 m 1
 438 250 l 1
 307 612 l 1
 177 250 l 1
EndSplineSet
Validated: 1
EndChar

StartChar: B
Encoding: 66 66 33
Width: 568
Flags: HW
LayerCount: 2
Fore
SplineSet
40 0 m 1
 40 657 l 1
 306 657 l 2
 433 657 500 610 500 492 c 0
 500 423 470 373 409 345 c 5
 488 314 528 262 528 187 c 0
 528 62 464 0 335 0 c 2
 40 0 l 1
124 45 m 1
 327 45 l 2
 405 45 445 89 445 186 c 0
 445 273 398 315 304 315 c 2
 124 315 l 1
 124 45 l 1
124 360 m 1
 298 360 l 2
 376 360 416 406 416 494 c 0
 415 577 372 612 285 612 c 2
 124 612 l 1
 124 360 l 1
EndSplineSet
Validated: 1
EndChar

StartChar: C
Encoding: 67 67 34
Width: 645
Flags: HW
LayerCount: 2
Fore
SplineSet
40 327 m 128
 40 553 139 667 339 667 c 4
 482 667 566 595 592 452 c 1
 547 452 l 1
 522 571 450 627 329 627 c 0
 192 627 124 529 124 327 c 128
 124 125 195 30 336 30 c 0
 466 30 543 97 566 244 c 1
 605 244 l 1
 586 74 497 -10 336 -10 c 0
 139 -10 40 101 40 327 c 128
EndSplineSet
Validated: 1
EndChar

StartChar: D
Encoding: 68 68 35
Width: 599
Flags: HW
LayerCount: 2
Fore
SplineSet
40 0 m 1
 40 657 l 1
 292 657 l 2
 470 657 560 545 560 327 c 128
 560 109 470 0 292 0 c 2
 40 0 l 1
124 45 m 1
 278 45 l 2
 398 45 476 106 476 326 c 0
 476 520 410 612 278 612 c 2
 124 612 l 1
 124 45 l 1
EndSplineSet
Validated: 1
EndChar

StartChar: E
Encoding: 69 69 36
Width: 549
Flags: HW
LayerCount: 2
Fore
SplineSet
40 0 m 1
 40 657 l 1
 494 657 l 1
 494 612 l 1
 124 612 l 1
 124 360 l 1
 480 360 l 1
 480 312 l 1
 124 312 l 1
 124 45 l 5
 510 45 l 5
 510 0 l 1
 40 0 l 1
EndSplineSet
Validated: 1
EndChar

StartChar: F
Encoding: 70 70 37
Width: 519
Flags: HW
LayerCount: 2
Fore
SplineSet
40 0 m 1
 40 657 l 1
 480 657 l 1
 480 612 l 5
 124 612 l 5
 124 361 l 1
 436 361 l 1
 436 313 l 1
 124 313 l 1
 124 0 l 1
 40 0 l 1
EndSplineSet
Validated: 1
EndChar

StartChar: G
Encoding: 71 71 38
Width: 677
Flags: HW
LayerCount: 2
Fore
SplineSet
40 327 m 128
 40 553 144 667 352 667 c 0
 511 667 603 596 628 456 c 1
 578 456 l 1
 544 572 470 627 354 627 c 0
 200 627 124 529 124 328 c 0
 124 127 192 30 328 30 c 0
 485 30 564 107 564 274 c 2
 564 292 l 1
 364 292 l 1
 364 342 l 5
 638 342 l 5
 638 6 l 1
 584 6 l 1
 564 93 l 1
 502 24 425 -10 332 -10 c 0
 138 -10 40 101 40 327 c 128
EndSplineSet
Validated: 1
EndChar

StartChar: H
Encoding: 72 72 39
Width: 584
Flags: HW
LayerCount: 2
Fore
SplineSet
40 0 m 1
 40 657 l 1
 124 657 l 1
 124 360 l 1
 460 360 l 1
 460 657 l 1
 544 657 l 1
 544 0 l 1
 460 0 l 1
 460 315 l 5
 124 315 l 5
 124 0 l 1
 40 0 l 1
EndSplineSet
Validated: 1
EndChar

StartChar: I
Encoding: 73 73 40
Width: 164
Flags: HW
LayerCount: 2
Fore
SplineSet
40 0 m 1
 40 657 l 5
 124 657 l 5
 124 0 l 1
 40 0 l 1
EndSplineSet
Validated: 1
EndChar

StartChar: J
Encoding: 74 74 41
Width: 447
Flags: HW
LayerCount: 2
Fore
SplineSet
40 162 m 2
 40 219 l 1
 84 219 l 1
 84 177 l 2
 84 78 125 30 208 30 c 4
 285 30 324 87 324 203 c 2
 324 657 l 1
 408 657 l 1
 408 188 l 2
 408 55 341 -10 208 -10 c 0
 96 -10 40 47 40 162 c 2
EndSplineSet
Validated: 1
EndChar

StartChar: K
Encoding: 75 75 42
Width: 600
Flags: HW
LayerCount: 2
Fore
SplineSet
44 0 m 1
 44 657 l 1
 128 657 l 5
 128 323 l 1
 457 656 l 1
 521 656 l 1
 276 408 l 1
 556 0 l 1
 465 0 l 1
 225 355 l 1
 128 259 l 1
 128 0 l 1
 44 0 l 1
EndSplineSet
Validated: 1
EndChar

StartChar: L
Encoding: 76 76 43
Width: 487
Flags: HW
LayerCount: 2
Fore
SplineSet
40 0 m 1
 40 657 l 1
 124 657 l 1
 124 45 l 5
 447 45 l 1
 447 0 l 1
 40 0 l 1
EndSplineSet
Validated: 1
EndChar

StartChar: M
Encoding: 77 77 44
Width: 696
Flags: HW
LayerCount: 2
Fore
SplineSet
40 0 m 1
 40 657 l 1
 156 657 l 1
 355 84 l 1
 541 657 l 5
 656 657 l 1
 656 0 l 1
 577 0 l 1
 577 604 l 1
 376 0 l 1
 299 0 l 1
 90 603 l 1
 90 0 l 1
 40 0 l 1
EndSplineSet
Validated: 1
EndChar

StartChar: N
Encoding: 78 78 45
Width: 591
Flags: HW
LayerCount: 2
Fore
SplineSet
40 0 m 1
 40 657 l 5
 144 657 l 5
 504 97 l 1
 504 657 l 5
 552 657 l 5
 552 0 l 1
 458 0 l 1
 84 578 l 1
 84 5 l 1
 40 0 l 1
EndSplineSet
Validated: 1
EndChar

StartChar: O
Encoding: 79 79 46
Width: 712
Flags: HW
LayerCount: 2
Fore
SplineSet
40 327 m 128
 40 553 145 666 356 666 c 128
 567 666 672 550 672 317 c 0
 672 98 565 -10 350 -10 c 4
 143 -10 40 101 40 327 c 128
124 318 m 0
 124 125 198 31 348 31 c 4
 508 31 588 125 588 317 c 0
 588 523 511 627 356 627 c 128
 201 627 124 524 124 318 c 0
EndSplineSet
Validated: 1
EndChar

StartChar: P
Encoding: 80 80 47
Width: 552
Flags: HW
LayerCount: 2
Fore
SplineSet
40 0 m 1
 40 657 l 1
 310 657 l 1
 445 657 512 596 512 478 c 0
 512 353 452 289 332 289 c 0
 331 289 331 289 330 289 c 2
 124 289 l 1
 124 0 l 1
 40 0 l 1
124 336 m 1
 298 336 l 2
 383 336 424 382 424 473 c 0
 424 564 383 612 298 612 c 6
 124 612 l 5
 124 336 l 1
EndSplineSet
Validated: 1
EndChar

StartChar: Q
Encoding: 81 81 48
Width: 714
Flags: HW
LayerCount: 2
Fore
SplineSet
40 321 m 0
 40 552 145 667 356 667 c 128
 567 667 674 554 674 330 c 0
 674 229 644 146 582 78 c 1
 666 8 l 1
 624 -43 l 1
 530 35 l 1
 479 4 420 -11 356 -11 c 0
 145 -11 40 100 40 321 c 0
126 326 m 0
 126 128 203 30 356 30 c 0
 419 30 462 43 490 70 c 1
 398 143 l 1
 440 193 l 1
 534 118 l 1
 572 172 590 240 590 323 c 0
 590 522 512 623 356 623 c 0
 202 623 126 524 126 326 c 0
EndSplineSet
Validated: 1
EndChar

StartChar: R
Encoding: 82 82 49
Width: 583
Flags: HW
LayerCount: 2
Fore
SplineSet
40 0 m 1
 40 657 l 1
 327 657 l 2
 453 657 517 597 517 481 c 0
 517 405 479 350 404 315 c 1
 487 289 533 184 543 0 c 1
 457 0 l 1
 448 196 404 294 325 294 c 2
 124 294 l 1
 124 0 l 1
 40 0 l 1
124 337 m 1
 311 337 l 2
 390 337 429 384 429 476 c 128
 429 568 390 612 311 612 c 6
 124 612 l 1
 124 337 l 1
EndSplineSet
Validated: 1
EndChar

StartChar: S
Encoding: 83 83 50
Width: 594
Flags: HW
LayerCount: 2
Fore
SplineSet
40 218 m 1
 86 218 l 1
 87 92 154 30 290 30 c 0
 410 30 470 78 470 176 c 0
 470 229 430 266 350 287 c 2
 188 330 l 2
 102 353 60 406 60 490 c 0
 60 607 138 667 296 667 c 128
 454 667 532 597 532 462 c 1
 484 462 l 1
 483 573 418 627 288 627 c 4
 191 627 142 584 142 493 c 0
 142 449 178 416 250 397 c 2
 416 354 l 2
 509 329 554 272 554 183 c 0
 554 52 442 -10 294 -10 c 0
 125 -10 40 65 40 218 c 1
EndSplineSet
Validated: 1
EndChar

StartChar: T
Encoding: 84 84 51
Width: 593
Flags: HW
LayerCount: 2
Fore
SplineSet
40 612 m 5
 40 657 l 1
 554 657 l 1
 554 612 l 5
 338 612 l 5
 338 0 l 1
 254 0 l 1
 254 612 l 5
 40 612 l 5
EndSplineSet
Validated: 1
EndChar

StartChar: U
Encoding: 85 85 52
Width: 583
Flags: HW
LayerCount: 2
Fore
SplineSet
40 204 m 2
 40 657 l 1
 84 657 l 1
 84 204 l 2
 84 94 154 30 293 30 c 4
 404 30 459 94 459 204 c 2
 459 657 l 1
 543 657 l 1
 543 204 l 2
 543 61 460 -10 292 -10 c 128
 124 -10 40 61 40 204 c 2
EndSplineSet
Validated: 1
EndChar

StartChar: V
Encoding: 86 86 53
Width: 632
Flags: HW
LayerCount: 2
Fore
SplineSet
40 657 m 5
 128 657 l 5
 330 65 l 1
 542 657 l 5
 592 657 l 5
 356 0 l 1
 268 0 l 1
 40 657 l 5
EndSplineSet
Validated: 1
EndChar

StartChar: W
Encoding: 87 87 54
Width: 894
Flags: HW
LayerCount: 2
Fore
SplineSet
40 657 m 5
 132 657 l 5
 280 99 l 1
 432 657 l 5
 504 657 l 5
 666 103 l 1
 804 657 l 5
 854 657 l 5
 688 0 l 1
 596 0 l 1
 446 538 l 1
 298 0 l 1
 208 0 l 1
 40 657 l 5
EndSplineSet
Validated: 1
EndChar

StartChar: X
Encoding: 88 88 55
Width: 594
Flags: HW
LayerCount: 2
Fore
SplineSet
40 0 m 5
 260 322 l 1
 45 657 l 1
 147 657 l 1
 313 396 l 1
 493 657 l 1
 540 657 l 1
 338 360 l 1
 554 0 l 1
 453 0 l 1
 283 292 l 1
 88 0 l 1
 40 0 l 5
EndSplineSet
Validated: 1
EndChar

StartChar: Y
Encoding: 89 89 56
Width: 662
Flags: HW
LayerCount: 2
Fore
SplineSet
40 657 m 5
 143 657 l 5
 362 312 l 1
 581 657 l 5
 622 657 l 5
 376 257 l 1
 376 0 l 1
 293 0 l 1
 293 257 l 1
 40 657 l 5
EndSplineSet
Validated: 1
EndChar

StartChar: Z
Encoding: 90 90 57
Width: 579
Flags: HW
LayerCount: 2
Fore
SplineSet
40 0 m 1
 40 74 l 1
 434 610 l 1
 65 610 l 1
 65 657 l 1
 537 657 l 1
 537 582 l 1
 146 45 l 5
 539 45 l 5
 539 0 l 1
 40 0 l 1
EndSplineSet
Validated: 1
EndChar

StartChar: bracketleft
Encoding: 91 91 58
Width: 247
Flags: HW
LayerCount: 2
Fore
SplineSet
40 -178 m 1
 40 667 l 1
 207 667 l 1
 207 625 l 1
 115 625 l 1
 115 -133 l 1
 207 -133 l 1
 207 -178 l 1
 40 -178 l 1
EndSplineSet
Validated: 1
EndChar

StartChar: backslash
Encoding: 92 92 59
Width: 350
Flags: HW
LayerCount: 2
Fore
SplineSet
40 667 m 5
 98 667 l 5
 310 -19 l 1
 253 -19 l 1
 40 667 l 5
EndSplineSet
Validated: 1
EndChar

StartChar: bracketright
Encoding: 93 93 60
Width: 247
Flags: HW
LayerCount: 2
Fore
SplineSet
40 -132 m 1
 132 -132 l 1
 132 626 l 1
 40 626 l 1
 40 667 l 1
 207 667 l 1
 207 -177 l 1
 40 -177 l 1
 40 -132 l 1
EndSplineSet
Validated: 1
EndChar

StartChar: asciicircum
Encoding: 94 94 61
Width: 422
Flags: HW
LayerCount: 2
Fore
SplineSet
40 316 m 1
 178 657 l 5
 242 657 l 5
 382 316 l 1
 306 316 l 1
 200 601 l 1
 92 316 l 1
 40 316 l 1
EndSplineSet
Validated: 1
EndChar

StartChar: underscore
Encoding: 95 95 62
Width: 619
Flags: HW
LayerCount: 2
Fore
SplineSet
40 -37 m 5
 579 -37 l 5
 579 -92 l 5
 40 -92 l 5
 40 -37 l 5
EndSplineSet
Validated: 1
EndChar

StartChar: grave
Encoding: 96 96 63
Width: 287
Flags: HW
LayerCount: 2
Fore
SplineSet
40 652 m 17
 60 662 80 667 100 667 c 128
 120 667 141 661 161 651 c 9
 247 519 l 1
 179 519 l 1
 40 652 l 17
EndSplineSet
Validated: 1
EndChar

StartChar: a
Encoding: 97 97 64
Width: 523
Flags: HW
LayerCount: 2
Fore
SplineSet
40 128 m 0
 40 194 99 243 216 273 c 0
 307 296 352 318 352 340 c 2
 352 358 l 2
 352 444 298 460 237 460 c 0
 146 460 101 426 101 345 c 1
 63 345 l 1
 63 346 63 347 63 348 c 0
 63 448 120 500 233 500 c 0
 362 500 427 455 427 369 c 2
 427 88 l 2
 427 47 439 30 464 30 c 0
 470 30 476 33 483 35 c 1
 483 -3 l 1
 482 -3 461 -10 435 -10 c 0
 403 -10 364 1 355 58 c 1
 316 12 267 -10 209 -10 c 0
 96 -10 40 35 40 128 c 0
115 112 m 128
 115 54 143 30 198 30 c 0
 241 30 352 40 352 158 c 2
 352 276 l 1
 343 276 304 261 215 231 c 0
 148 209 115 170 115 112 c 128
EndSplineSet
Validated: 1
EndChar

StartChar: b
Encoding: 98 98 65
Width: 501
Flags: HW
LayerCount: 2
Fore
SplineSet
40 0 m 1
 40 656 l 1
 115 656 l 1
 115 427 l 5
 153 474 202 500 260 500 c 4
 394 500 461 411 461 242 c 128
 461 73 394 -10 259 -10 c 0
 195 -10 144 17 109 73 c 1
 109 0 l 1
 40 0 l 1
115 241 m 128
 115 93 164 30 260 30 c 0
 342 30 383 94 383 241 c 128
 383 388 340 460 254 460 c 4
 171 460 115 403 115 241 c 128
EndSplineSet
Validated: 1
EndChar

StartChar: c
Encoding: 99 99 66
Width: 480
Flags: HW
LayerCount: 2
Fore
SplineSet
40 246 m 132
 40 415 111 500 252 500 c 4
 375 500 434 442 434 328 c 5
 398 328 l 5
 395 421 347 460 256 460 c 4
 160 460 114 395 114 248 c 132
 114 101 156 30 244 30 c 0
 350 30 404 74 404 170 c 1
 440 170 l 1
 440 51 371 -10 234 -10 c 0
 104 -10 40 77 40 246 c 132
EndSplineSet
Validated: 1
EndChar

StartChar: d
Encoding: 100 100 67
Width: 501
Flags: HW
LayerCount: 2
Fore
SplineSet
40 245 m 128
 40 413 107 500 241 500 c 0
 299 500 348 476 386 429 c 1
 386 659 l 1
 461 659 l 1
 461 0 l 1
 392 0 l 1
 392 77 l 1
 357 21 306 -10 242 -10 c 0
 107 -10 40 77 40 245 c 128
118 245 m 128
 118 99 159 30 241 30 c 0
 337 30 386 99 386 245 c 128
 386 391 340 460 247 460 c 4
 161 460 118 391 118 245 c 128
EndSplineSet
Validated: 1
EndChar

StartChar: e
Encoding: 101 101 68
Width: 504
Flags: HW
LayerCount: 2
Fore
SplineSet
40 250 m 0
 40 415 112 500 256 500 c 4
 395 500 464 408 464 238 c 0
 464 236 464 232 464 230 c 1
 118 230 l 1
 120 91 166 30 258 30 c 0
 328 30 382 69 416 154 c 1
 454 154 l 1
 428 45 363 -10 256 -10 c 0
 112 -10 40 77 40 250 c 0
120 275 m 1
 384 275 l 1
 384 278 384 283 384 286 c 0
 384 406 337 460 252 460 c 4
 166 460 123 402 120 275 c 1
EndSplineSet
Validated: 1
EndChar

StartChar: f
Encoding: 102 102 69
Width: 313
Flags: HW
LayerCount: 2
Fore
SplineSet
40 429 m 1
 40 465 l 1
 103 465 l 1
 103 555 l 2
 103 625 139 660 212 660 c 0
 236 660 255 659 273 655 c 1
 273 614 l 1
 265 615 257 616 250 616 c 0
 202 616 178 597 178 559 c 2
 178 465 l 1
 256 465 l 1
 256 429 l 1
 178 429 l 1
 178 0 l 1
 103 0 l 1
 103 429 l 1
 40 429 l 1
EndSplineSet
Validated: 1
EndChar

StartChar: g
Encoding: 103 103 70
Width: 493
Flags: HW
LayerCount: 2
Fore
SplineSet
40 242 m 128
 40 426 121 500 243 500 c 0
 300 500 347 474 384 423 c 1
 384 490 l 1
 453 490 l 1
 453 89 l 2
 453 -115 362 -190 225 -190 c 4
 129 -190 73 -140 55 -43 c 1
 100 -43 l 1
 125 -114 169 -151 234 -151 c 4
 328 -151 376 -82 376 51 c 0
 376 54 376 58 376 61 c 1
 344 14 295 -10 229 -10 c 0
 103 -10 40 74 40 242 c 128
118 245 m 128
 118 100 158 30 238 30 c 0
 331 30 377 101 377 245 c 128
 377 389 332 460 241 460 c 0
 159 460 118 390 118 245 c 128
EndSplineSet
Validated: 1
EndChar

StartChar: h
Encoding: 104 104 71
Width: 454
Flags: HW
LayerCount: 2
Fore
SplineSet
40 0 m 1
 40 661 l 5
 115 661 l 5
 115 421 l 1
 145 473 189 500 248 500 c 0
 358 500 414 457 414 371 c 2
 414 0 l 1
 339 0 l 1
 339 341 l 2
 339 420 310 461 250 461 c 0
 160 461 115 399 115 275 c 2
 115 0 l 1
 40 0 l 1
EndSplineSet
Validated: 1
EndChar

StartChar: i
Encoding: 105 105 72
Width: 155
Flags: HW
LayerCount: 2
Fore
SplineSet
40 561 m 1
 40 660 l 1
 115 660 l 1
 115 561 l 1
 40 561 l 1
41 0 m 5
 41 471 l 1
 115 471 l 1
 115 0 l 1
 41 0 l 5
EndSplineSet
Validated: 1
EndChar

StartChar: j
Encoding: 106 106 73
Width: 245
Flags: HW
LayerCount: 2
Fore
SplineSet
40 -150 m 5
 45 -150 50 -151 54 -151 c 4
 105 -151 131 -125 131 -73 c 6
 131 470 l 1
 205 470 l 1
 205 -104 l 6
 205 -161 150 -190 40 -190 c 5
 40 -150 l 5
131 561 m 1
 131 660 l 1
 205 660 l 1
 205 561 l 1
 131 561 l 1
EndSplineSet
Validated: 1
EndChar

StartChar: k
Encoding: 107 107 74
Width: 478
Flags: HW
LayerCount: 2
Fore
SplineSet
40 0 m 1
 40 660 l 5
 114 660 l 5
 114 271 l 1
 314 470 l 1
 358 470 l 1
 234 343 l 1
 438 0 l 1
 346 0 l 1
 184 290 l 1
 114 219 l 1
 114 0 l 1
 40 0 l 1
EndSplineSet
Validated: 1
EndChar

StartChar: l
Encoding: 108 108 75
Width: 155
Flags: HW
LayerCount: 2
Fore
SplineSet
40 0 m 1
 40 660 l 5
 115 660 l 5
 115 0 l 1
 40 0 l 1
EndSplineSet
Validated: 1
EndChar

StartChar: m
Encoding: 109 109 76
Width: 702
Flags: HW
LayerCount: 2
Fore
SplineSet
40 0 m 1
 40 490 l 1
 114 490 l 1
 114 439 l 1
 133 480 176 500 241 500 c 128
 306 500 353 480 381 439 c 1
 404 480 448 500 514 500 c 0
 613 500 662 446 662 338 c 2
 662 0 l 1
 586 0 l 1
 586 330 l 2
 586 421 557 460 499 460 c 0
 455 460 389 449 389 328 c 2
 389 0 l 1
 313 0 l 1
 313 330 l 2
 313 421 283 460 222 460 c 4
 151 460 116 418 116 323 c 2
 116 0 l 1
 40 0 l 1
EndSplineSet
Validated: 1
EndChar

StartChar: n
Encoding: 110 110 77
Width: 428
Flags: HW
LayerCount: 2
Fore
SplineSet
40 0 m 1
 40 490 l 1
 114 490 l 5
 114 439 l 1
 135 480 180 500 250 500 c 0
 343 500 388 443 388 328 c 2
 388 0 l 1
 312 0 l 1
 312 330 l 2
 312 421 282 460 220 460 c 0
 150 460 116 418 116 323 c 2
 116 0 l 1
 40 0 l 1
EndSplineSet
Validated: 1
EndChar

StartChar: o
Encoding: 111 111 78
Width: 505
Flags: HW
LayerCount: 2
Fore
SplineSet
40 246 m 128
 40 415 110 500 252 500 c 128
 394 500 466 417 466 254 c 0
 466 80 395 -10 252 -10 c 0
 111 -10 40 77 40 246 c 128
118 251 m 128
 118 105 162 30 252 30 c 132
 342 30 388 105 388 251 c 128
 388 397 343 460 254 460 c 0
 163 460 118 397 118 251 c 128
EndSplineSet
Validated: 1
EndChar

StartChar: p
Encoding: 112 112 79
Width: 501
Flags: HW
LayerCount: 2
Fore
SplineSet
40 -180 m 5
 40 490 l 1
 109 490 l 1
 109 415 l 1
 144 471 195 500 259 500 c 0
 394 500 461 415 461 246 c 128
 461 77 394 -10 260 -10 c 0
 202 -10 153 16 115 63 c 1
 115 -180 l 5
 40 -180 l 5
115 247 m 128
 115 101 161 30 254 30 c 0
 340 30 383 101 383 247 c 128
 383 393 342 460 260 460 c 0
 164 460 115 393 115 247 c 128
EndSplineSet
Validated: 1
EndChar

StartChar: q
Encoding: 113 113 80
Width: 501
Flags: HW
LayerCount: 2
Fore
SplineSet
40 246 m 128
 40 415 107 500 242 500 c 0
 306 500 357 471 392 415 c 1
 392 490 l 1
 461 490 l 5
 461 -180 l 1
 386 -180 l 1
 386 63 l 1
 348 16 299 -10 241 -10 c 0
 107 -10 40 77 40 246 c 128
118 247 m 128
 118 100 161 30 247 30 c 0
 340 30 386 100 386 247 c 128
 386 394 337 460 241 460 c 0
 159 460 118 394 118 247 c 128
EndSplineSet
Validated: 1
EndChar

StartChar: r
Encoding: 114 114 81
Width: 319
Flags: HW
LayerCount: 2
Fore
SplineSet
40 0 m 1
 40 490 l 1
 109 490 l 1
 109 394 l 1
 136 452 182 489 279 489 c 1
 279 442 l 1
 215 442 116 441 116 244 c 2
 116 0 l 1
 40 0 l 1
EndSplineSet
Validated: 1
EndChar

StartChar: s
Encoding: 115 115 82
Width: 461
Flags: HW
LayerCount: 2
Fore
SplineSet
40 153 m 1
 80 153 l 1
 92 69 143 30 234 30 c 4
 307 30 344 60 344 123 c 0
 344 165 326 190 294 198 c 2
 176 229 l 2
 93 251 52 299 52 374 c 0
 52 475 138 500 232 500 c 0
 338 499 394 452 402 357 c 1
 362 358 l 1
 354 428 309 460 230 460 c 0
 162 460 130 435 130 378 c 0
 130 337 150 311 192 301 c 2
 298 274 l 2
 380 253 422 205 422 129 c 0
 422 39 357 -10 226 -10 c 0
 112 -10 50 46 40 153 c 1
EndSplineSet
Validated: 1
EndChar

StartChar: t
Encoding: 116 116 83
Width: 303
Flags: HW
LayerCount: 2
Fore
SplineSet
40 443 m 1
 40 482 l 1
 104 482 l 1
 104 607 l 1
 178 607 l 1
 178 482 l 1
 256 482 l 5
 256 443 l 1
 178 443 l 1
 178 94 l 2
 178 53 200 31 244 31 c 0
 250 31 257 31 264 32 c 1
 264 -2 l 1
 241 -7 218 -10 200 -10 c 0
 135 -10 104 25 104 90 c 2
 104 443 l 1
 40 443 l 1
EndSplineSet
Validated: 1
EndChar

StartChar: u
Encoding: 117 117 84
Width: 428
Flags: HW
LayerCount: 2
Fore
SplineSet
40 163 m 2
 40 490 l 1
 114 490 l 1
 114 161 l 2
 114 71 146 30 208 30 c 0
 278 30 312 72 312 167 c 2
 312 490 l 5
 388 490 l 1
 388 2 l 1
 314 2 l 1
 314 50 l 1
 295 11 249 -10 178 -10 c 0
 85 -10 40 48 40 163 c 2
EndSplineSet
Validated: 1
EndChar

StartChar: v
Encoding: 118 118 85
Width: 507
Flags: HW
LayerCount: 2
Fore
SplineSet
40 490 m 1
 124 490 l 5
 268 63 l 1
 426 490 l 1
 468 490 l 1
 286 0 l 1
 206 0 l 1
 40 490 l 1
EndSplineSet
Validated: 1
EndChar

StartChar: w
Encoding: 119 119 86
Width: 710
Flags: HW
LayerCount: 2
Fore
SplineSet
40 490 m 1
 122 490 l 1
 238 60 l 1
 338 490 l 1
 424 490 l 1
 514 67 l 1
 630 490 l 1
 670 490 l 1
 532 0 l 5
 446 0 l 5
 360 420 l 1
 260 0 l 5
 176 0 l 5
 40 490 l 1
EndSplineSet
Validated: 1
EndChar

StartChar: x
Encoding: 120 120 87
Width: 481
Flags: HW
LayerCount: 2
Fore
SplineSet
40 490 m 1
 124 490 l 1
 248 294 l 1
 389 490 l 1
 432 490 l 1
 269 267 l 1
 441 0 l 5
 354 0 l 5
 225 209 l 1
 87 0 l 5
 45 0 l 5
 204 241 l 1
 40 490 l 1
EndSplineSet
Validated: 1
EndChar

StartChar: y
Encoding: 121 121 88
Width: 491
Flags: HW
LayerCount: 2
Fore
SplineSet
40 490 m 1
 120 490 l 1
 272 107 l 1
 411 490 l 5
 451 490 l 5
 242 -86 l 2
 217 -155 186 -190 150 -190 c 0
 126 -190 99 -175 70 -144 c 1
 70 -82 l 1
 97 -126 123 -148 145 -148 c 128
 167 -148 187 -125 204 -79 c 2
 233 6 l 1
 40 490 l 1
EndSplineSet
Validated: 1
EndChar

StartChar: z
Encoding: 122 122 89
Width: 462
Flags: HW
LayerCount: 2
Fore
SplineSet
40 0 m 5
 40 69 l 1
 320 454 l 1
 58 454 l 1
 58 490 l 1
 410 490 l 1
 410 424 l 1
 130 38 l 1
 422 38 l 1
 422 0 l 5
 40 0 l 5
EndSplineSet
Validated: 1
EndChar

StartChar: braceleft
Encoding: 123 123 90
Width: 298
Flags: HW
LayerCount: 2
Fore
SplineSet
38 194 m 5
 38 256 l 5
 91 265 118 306 118 380 c 6
 118 537 l 6
 118 615 151 654 216 654 c 6
 258 654 l 5
 258 617 l 5
 244 617 l 6
 206 617 188 590 188 536 c 6
 188 374 l 6
 188 295 163 245 114 226 c 5
 163 203 188 155 188 83 c 6
 188 -85 l 6
 188 -138 204 -165 238 -165 c 6
 258 -165 l 5
 258 -204 l 5
 216 -204 l 6
 151 -204 118 -164 118 -86 c 6
 118 77 l 6
 118 149 91 188 38 194 c 5
EndSplineSet
Validated: 1
EndChar

StartChar: bar
Encoding: 124 124 91
Width: 143
Flags: HW
LayerCount: 2
Fore
SplineSet
38 -195 m 5
 38 654 l 1
 102 654 l 1
 102 -195 l 5
 38 -195 l 5
EndSplineSet
Validated: 1
EndChar

StartChar: braceright
Encoding: 125 125 92
Width: 298
Flags: HW
LayerCount: 2
Fore
SplineSet
38 -165 m 5
 58 -165 l 6
 92 -165 108 -138 108 -85 c 6
 108 83 l 6
 108 155 133 203 182 226 c 5
 133 245 108 295 108 374 c 6
 108 536 l 6
 108 590 90 617 52 617 c 6
 38 617 l 5
 38 654 l 5
 80 654 l 6
 145 654 178 615 178 537 c 6
 178 380 l 6
 178 306 205 265 258 256 c 5
 258 194 l 5
 205 188 178 149 178 77 c 6
 178 -86 l 6
 178 -164 145 -204 80 -204 c 6
 38 -204 l 5
 38 -165 l 5
EndSplineSet
Validated: 1
EndChar

StartChar: asciitilde
Encoding: 126 126 93
Width: 508
Flags: HW
LayerCount: 2
Fore
SplineSet
40 355 m 1
 42 450 76 500 142 500 c 0
 160 500 184 486 215 464 c 2
 316 390 l 2
 336 376 352 369 364 369 c 0
 407 369 428 403 428 472 c 1
 468 472 l 1
 466 377 430 329 358 329 c 0
 340 329 318 338 293 356 c 2
 193 427 l 2
 169 444 153 452 144 452 c 0
 103 452 82 420 81 355 c 1
 40 355 l 1
EndSplineSet
Validated: 1
EndChar

StartChar: m_m
Encoding: 3330 3330 94
Width: 388
VWidth: 830
Flags: HW
LayerCount: 2
Fore
SplineSet
38 155 m 0
 38 251 119 311 180 311 c 0
 293 311 348 228 348 147 c 0
 348 68 295 -10 192 -10 c 0
 100 -10 38 58 38 155 c 0
74 153 m 0
 74 88 123 26 180 26 c 0
 238 26 278 91 278 148 c 0
 278 230 227 270 176 270 c 0
 125 270 74 230 74 153 c 0
EndSplineSet
Validated: 1
EndChar

StartChar: m_ah
Encoding: 3331 3331 95
Width: 305
VWidth: 830
Flags: HW
LayerCount: 2
Fore
SplineSet
38 99 m 0
 38 181 99 220 144 220 c 0
 201 219 264 176 264 111 c 0
 264 33 204 -10 148 -10 c 0
 92 -10 38 37 38 99 c 0
38 379 m 0
 38 461 99 500 144 500 c 0
 201 499 264 456 264 391 c 0
 264 313 204 270 148 270 c 0
 92 270 38 317 38 379 c 0
74 107 m 0
 74 57 113 28 138 28 c 0
 172 28 194 67 194 100 c 4
 193 144 168 180 140 180 c 0
 104 180 74 149 74 107 c 0
74 387 m 0
 74 337 113 308 138 308 c 0
 172 308 194 347 194 380 c 0
 193 424 168 460 140 460 c 0
 104 460 74 429 74 387 c 0
EndSplineSet
Validated: 1
EndChar

StartChar: b_a
Encoding: 3333 3333 96
Width: 1187
VWidth: 830
Flags: HW
LayerCount: 2
Fore
SplineSet
40 244 m 0
 40 404 175 500 301 500 c 0
 343 500 393 484 405 479 c 1
 438 490 458 500 511 500 c 0
 652 500 705 395 717 380 c 1
 737 411 792 500 917 500 c 0
 1007 500 1147 450 1147 232 c 0
 1147 53 1088 -10 1000 -10 c 0
 948 -10 871 16 871 148 c 0
 871 251 930 353 1023 398 c 1
 1001 441 954 464 908 464 c 0
 761 464 744 279 744 199 c 6
 744 199 744 190 744 15 c 0
 744 0 725 -6 705 -6 c 0
 686 -6 667 -1 667 15 c 0
 667 51 667 194 667 194 c 2
 667 280 650 460 488 460 c 0
 476 460 461 459 452 454 c 1
 495 425 530 369 530 315 c 0
 530 263 505 245 468 226 c 1
 516 208 553 153 553 101 c 0
 553 35 495 -10 422 -10 c 0
 285 -10 250 138 250 217 c 0
 250 306 290 393 359 449 c 1
 336 457 312 460 287 460 c 0
 174 460 80 353 80 240 c 0
 80 117 171 25 171 7 c 0
 171 -9 163 -10 151 -10 c 0
 120 -10 40 127 40 244 c 0
295 227 m 0
 295 79 361 30 405 30 c 0
 441 30 474 57 474 102 c 0
 474 181 401 199 357 199 c 0
 353 199 334 203 334 219 c 0
 334 228 342 237 355 237 c 0
 380 237 449 253 449 324 c 0
 449 370 421 408 395 425 c 1
 331 379 295 305 295 227 c 0
912 152 m 0
 912 48 961 28 986 28 c 0
 1020 28 1070 62 1070 227 c 0
 1070 300 1053 334 1043 364 c 1
 929 303 912 207 912 152 c 0
EndSplineSet
Validated: 1
EndChar

StartChar: b_aa
Encoding: 3334 3334 97
Width: 1338
VWidth: 830
Flags: HW
LayerCount: 2
Fore
SplineSet
40 244 m 0
 40 404 175 500 301 500 c 0
 343 500 393 484 405 479 c 1
 438 490 458 500 511 500 c 0
 652 500 705 395 717 380 c 1
 737 411 792 500 917 500 c 0
 971 500 1043 474 1092 413 c 1
 1248 393 1298 261 1298 129 c 0
 1298 -100 1151 -154 1059 -154 c 0
 964 -154 901 -101 901 -87 c 0
 901 -78 913 -72 925 -72 c 0
 952 -72 975 -117 1052 -117 c 0
 1152 -117 1219 -11 1219 133 c 0
 1219 176 1214 320 1121 364 c 1
 1135 329 1147 285 1147 232 c 0
 1147 53 1088 -10 1000 -10 c 0
 948 -10 871 16 871 148 c 0
 871 251 924 359 1023 399 c 1
 1001 442 954 464 908 464 c 0
 761 464 744 278 744 198 c 2
 744 198 744 190 744 15 c 0
 744 0 725 -6 705 -6 c 0
 686 -6 667 -1 667 15 c 0
 667 51 667 194 667 194 c 2
 667 276 650 460 488 460 c 0
 476 460 461 459 452 454 c 1
 495 425 530 369 530 315 c 0
 530 263 505 245 468 226 c 1
 516 208 553 153 553 101 c 0
 553 35 495 -10 422 -10 c 0
 285 -10 250 138 250 217 c 0
 250 306 290 393 359 449 c 1
 336 457 312 460 287 460 c 0
 174 460 80 353 80 240 c 0
 80 117 171 25 171 7 c 0
 171 -9 163 -10 151 -10 c 0
 120 -10 40 127 40 244 c 0
295 227 m 0
 295 79 361 30 405 30 c 0
 441 30 474 57 474 102 c 0
 474 181 401 199 357 199 c 0
 353 199 334 203 334 219 c 0
 334 230 347 239 359 239 c 0
 394 239 449 255 449 324 c 0
 449 370 421 408 395 425 c 1
 331 379 295 305 295 227 c 0
912 152 m 0
 912 48 961 28 986 28 c 0
 1020 28 1070 62 1070 227 c 0
 1070 300 1056 334 1043 363 c 1
 937 325 912 207 912 152 c 0
EndSplineSet
Validated: 1
EndChar

StartChar: b_i
Encoding: 3335 3335 98
Width: 816
VWidth: 830
Flags: HW
LayerCount: 2
Fore
SplineSet
40 -74 m 0
 40 34 125 48 206 48 c 2
 480 48 l 2
 575 48 702 60 702 260 c 0
 702 371 632 460 576 460 c 0
 527 460 452 434 452 278 c 2
 452 278 452 188 452 123 c 0
 452 104 435 102 418 102 c 0
 400 102 382 108 382 124 c 0
 382 170 382 271 382 271 c 2
 382 354 372 460 250 460 c 0
 172 460 78 387 78 287 c 9
 78 286 l 17
 81 286 105 332 170 332 c 0
 251 332 304 275 304 204 c 0
 304 130 248 82 178 82 c 0
 68 82 40 204 40 279 c 0
 40 442 174 500 256 500 c 0
 388 500 432 408 432 408 c 1
 432 409 472 500 576 500 c 0
 676 500 776 397 776 254 c 0
 776 26 590 12 516 12 c 2
 260 12 l 2
 162 12 76 7 76 -63 c 0
 76 -101 117 -127 194 -127 c 0
 302 -127 633 -127 744 -127 c 0
 764 -127 774 -145 774 -163 c 0
 774 -180 764 -197 744 -197 c 0
 437 -197 275 -198 224 -198 c 0
 121 -198 40 -194 40 -74 c 0
94 213 m 0
 94 158 133 119 164 119 c 0
 208 119 234 163 234 204 c 0
 234 244 209 293 168 293 c 0
 133 293 94 263 94 213 c 0
EndSplineSet
Validated: 1
EndChar

StartChar: b_ii
Encoding: 3336 3336 99
Width: 1380
VWidth: 830
Flags: HW
LayerCount: 2
Fore
SplineSet
40 -74 m 0
 40 34 125 48 206 48 c 2
 480 48 l 2
 575 48 702 60 702 260 c 0
 702 371 632 460 576 460 c 0
 527 460 452 434 452 278 c 2
 452 278 452 188 452 123 c 0
 452 104 435 102 418 102 c 0
 400 102 382 108 382 124 c 0
 382 170 382 271 382 271 c 2
 382 354 372 460 250 460 c 0
 172 460 78 387 78 287 c 9
 78 286 l 17
 81 286 105 332 170 332 c 0
 251 332 304 275 304 204 c 0
 304 130 248 82 178 82 c 0
 68 82 40 204 40 279 c 0
 40 442 174 500 256 500 c 0
 388 500 432 408 432 408 c 1
 432 409 472 500 576 500 c 0
 676 500 776 397 776 254 c 0
 776 26 590 12 516 12 c 2
 260 12 l 2
 162 12 76 7 76 -63 c 0
 76 -101 117 -127 194 -127 c 0
 302 -127 633 -127 744 -127 c 0
 764 -127 774 -145 774 -163 c 0
 774 -180 764 -197 744 -197 c 0
 437 -197 275 -198 224 -198 c 0
 121 -198 40 -194 40 -74 c 0
94 213 m 0
 94 158 133 119 164 119 c 0
 208 119 234 163 234 204 c 0
 234 244 209 293 168 293 c 0
 133 293 94 263 94 213 c 0
856 329 m 0
 856 395 891 500 982 500 c 0
 1024 500 1076 477 1096 433 c 1
 1118 468 1145 500 1196 500 c 0
 1282 500 1340 437 1340 274 c 0
 1340 57 1182 -10 1096 -10 c 0
 1074 -10 1056 -5 1056 11 c 0
 1056 20 1062 25 1074 25 c 0
 1249 25 1270 212 1270 276 c 0
 1270 332 1257 460 1190 460 c 0
 1170 460 1126 442 1126 354 c 0
 1126 312 1126 224 1126 203 c 0
 1126 187 1109 182 1092 182 c 0
 1074 182 1054 186 1054 205 c 0
 1054 333 1054 460 978 460 c 0
 944 460 894 412 894 337 c 0
 894 262 936 211 936 191 c 0
 936 182 927 177 918 177 c 0
 880 177 856 306 856 329 c 0
EndSplineSet
Validated: 1
EndChar

StartChar: b_u
Encoding: 3337 3337 100
Width: 560
VWidth: 830
Flags: HW
LayerCount: 2
Fore
SplineSet
40 -73 m 0
 40 36 133 44 259 44 c 0
 411 44 449 153 449 242 c 0
 449 345 382 460 265 460 c 0
 220 460 81 433 81 284 c 1
 81 284 120 333 177 333 c 0
 232 333 307 284 307 210 c 0
 307 155 268 84 180 84 c 0
 70 84 43 197 43 277 c 0
 43 454 192 500 271 500 c 0
 409 500 520 392 520 242 c 0
 520 10 337 7 264 7 c 0
 194 7 78 5 78 -63 c 0
 78 -116 148 -128 227 -128 c 2
 489 -128 l 0
 508 -128 519 -146 519 -164 c 0
 519 -181 513 -200 491 -200 c 0
 436 -200 204 -200 204 -200 c 2
 122 -200 40 -183 40 -73 c 0
95 212 m 0
 95 154 139 120 160 120 c 0
 205 120 235 162 235 208 c 0
 235 256 210 293 172 293 c 0
 138 293 95 268 95 212 c 0
EndSplineSet
Validated: 1
EndChar

StartChar: b_uu
Encoding: 3338 3338 101
Width: 1123
VWidth: 830
Flags: HW
LayerCount: 2
Fore
SplineSet
40 -73 m 0
 40 36 133 44 259 44 c 0
 411 44 449 153 449 242 c 0
 449 345 382 460 265 460 c 0
 220 460 81 433 81 284 c 1
 81 284 120 333 177 333 c 0
 232 333 307 284 307 210 c 0
 307 155 268 84 180 84 c 0
 70 84 43 197 43 277 c 0
 43 454 192 500 271 500 c 0
 409 500 520 392 520 242 c 0
 520 10 337 7 264 7 c 0
 194 7 78 5 78 -63 c 0
 78 -116 148 -128 227 -128 c 2
 489 -128 l 0
 512 -128 519 -146 519 -164 c 0
 519 -181 513 -200 491 -200 c 0
 436 -200 204 -200 204 -200 c 2
 122 -200 40 -183 40 -73 c 0
95 212 m 0
 95 154 139 120 160 120 c 0
 205 120 235 162 235 208 c 0
 235 256 210 293 172 293 c 0
 138 293 95 268 95 212 c 0
600 329 m 0
 600 395 634 500 725 500 c 0
 767 500 820 477 840 433 c 1
 862 468 889 500 940 500 c 0
 1026 500 1083 437 1083 274 c 0
 1083 57 926 -10 840 -10 c 0
 818 -10 799 -5 799 11 c 0
 799 20 806 25 818 25 c 0
 993 25 1013 212 1013 276 c 0
 1013 332 1000 460 933 460 c 0
 913 460 869 442 869 354 c 0
 869 312 869 224 869 203 c 0
 869 187 852 182 835 182 c 0
 817 182 798 186 798 205 c 0
 798 333 798 460 722 460 c 0
 688 460 638 412 638 337 c 0
 638 262 680 211 680 191 c 0
 680 182 671 177 662 177 c 0
 624 177 600 306 600 329 c 0
EndSplineSet
Validated: 1
EndChar

StartChar: b_r
Encoding: 3339 3339 102
Width: 722
VWidth: 830
Flags: HW
LayerCount: 2
Fore
SplineSet
40 45 m 0
 40 139 190 175 190 176 c 0
 190 180 56 216 56 336 c 0
 56 389 80 500 198 500 c 0
 269 500 334 462 334 394 c 0
 334 305 242 283 194 283 c 0
 153 283 116 312 96 331 c 1
 98 319 81 189 356 189 c 0
 606 189 628 310 628 334 c 1
 608 302 578 284 516 284 c 0
 447 284 386 330 386 389 c 0
 386 433 421 500 522 500 c 0
 636 500 664 406 664 338 c 0
 664 287 648 222 534 178 c 1
 548 172 682 135 682 44 c 0
 682 -66 565 -93 354 -93 c 0
 95 -93 40 -9 40 45 c 0
110 54 m 0
 110 11 144 -54 350 -54 c 0
 484 -54 614 -48 614 46 c 0
 614 124 481 147 356 147 c 0
 195 147 110 118 110 54 c 0
112 395 m 0
 112 360 149 321 196 321 c 0
 233 321 264 356 264 392 c 0
 264 419 241 460 190 460 c 0
 158 460 112 440 112 395 c 0
456 390 m 0
 456 345 499 321 522 321 c 0
 544 321 610 331 610 386 c 0
 610 428 554 460 524 460 c 0
 498 460 456 434 456 390 c 0
EndSplineSet
Validated: 1
EndChar

StartChar: b_n
Encoding: 3340 3340 103
Width: 842
VWidth: 830
Flags: HW
LayerCount: 2
Fore
SplineSet
40 233 m 0
 40 436 165 500 248 500 c 0
 364 500 407 412 424 382 c 1
 449 453 522 500 598 500 c 0
 687 500 802 441 802 240 c 0
 802 109 776 -10 670 -10 c 0
 579 -10 562 97 562 175 c 0
 562 318 698 402 698 402 c 0
 682 420 655 460 592 460 c 0
 521 460 446 390 446 278 c 0
 446 277 446 17 446 17 c 0
 446 0 431 -4 414 -4 c 0
 397 -4 378 -2 378 15 c 0
 378 57 378 214 378 277 c 0
 378 296 365 460 240 460 c 0
 134 460 75 341 74 234 c 1
 94 269 118 312 184 312 c 4
 253 312 324 254 324 151 c 0
 324 74 279 -10 186 -10 c 0
 76 -10 40 108 40 233 c 0
94 153 m 0
 94 84 134 30 178 30 c 0
 223 30 254 96 254 150 c 0
 254 195 231 275 182 275 c 0
 140 275 94 224 94 153 c 0
598 164 m 0
 598 85 624 30 662 30 c 0
 721 30 736 156 736 217 c 0
 736 299 720 344 714 367 c 1
 687 348 598 294 598 164 c 0
EndSplineSet
Validated: 1
EndChar

StartChar: b_e
Encoding: 3342 3342 104
Width: 1030
VWidth: 830
Flags: HW
LayerCount: 2
Fore
SplineSet
40 169 m 0
 40 265 102 357 212 357 c 0
 327 357 394 257 394 166 c 0
 394 105 363 65 350 37 c 1
 490 37 l 1
 491 152 485 500 746 500 c 0
 843 500 990 438 990 135 c 0
 990 -51 952 -201 800 -201 c 0
 785 -201 770 -192 770 -181 c 0
 770 -170 785 -159 804 -159 c 0
 891 -159 916 -13 916 90 c 0
 916 221 899 460 738 460 c 0
 568 460 530 237 526 37 c 1
 684 37 l 1
 684 250 684 213 684 388 c 0
 684 410 703 411 722 411 c 0
 740 411 758 404 758 387 c 0
 758 51 758 84 758 9 c 0
 758 -132 747 -200 642 -200 c 0
 481 -200 491 -6 490 0 c 1
 423 -1 377 0 346 -2 c 0
 273 -6 280 -13 264 -13 c 0
 249 -13 242 -4 242 6 c 0
 242 33 322 60 322 175 c 0
 322 257 266 319 200 319 c 0
 140 319 78 249 78 169 c 0
 78 68 162 32 162 9 c 0
 162 0 155 -8 146 -8 c 0
 108 -8 40 71 40 169 c 0
524 0 m 1
 526 -97 576 -162 628 -162 c 0
 678 -162 684 -93 684 -45 c 0
 684 -20 684 -1 684 0 c 1
 524 0 l 1
EndSplineSet
Validated: 1
EndChar

StartChar: b_ee
Encoding: 3343 3343 105
Width: 1032
VWidth: 830
Flags: HW
LayerCount: 2
Fore
SplineSet
40 169 m 0
 40 265 104 358 214 358 c 0
 329 358 394 257 394 166 c 0
 394 105 364 65 351 37 c 1
 492 37 l 1
 492 42 492 48 492 54 c 0
 492 185 497 500 748 500 c 0
 866 500 992 424 992 230 c 0
 992 66 903 30 898 26 c 1
 902 23 991 13 991 -83 c 0
 991 -182 878 -201 821 -201 c 0
 785 -201 776 -197 776 -183 c 0
 776 -173 778 -163 794 -163 c 0
 899 -163 922 -109 922 -78 c 0
 922 -18 877 -3 818 -3 c 0
 806 -3 795 -2 795 18 c 0
 795 37 804 39 817 39 c 0
 871 39 922 135 922 237 c 0
 922 375 835 460 740 460 c 0
 584 460 527 278 527 37 c 1
 686 37 l 1
 686 247 686 212 686 387 c 0
 686 410 705 412 724 412 c 0
 742 412 759 404 759 387 c 0
 759 51 759 84 759 9 c 0
 759 -132 749 -203 644 -203 c 0
 483 -203 494 -9 492 0 c 1
 425 -1 379 0 348 -2 c 0
 275 -6 281 -13 265 -13 c 0
 250 -13 244 -4 244 6 c 0
 244 33 322 60 322 175 c 0
 322 257 267 320 201 320 c 0
 141 320 77 249 77 169 c 0
 77 68 163 32 163 9 c 0
 163 0 157 -8 148 -8 c 0
 110 -8 40 71 40 169 c 0
527 0 m 1
 529 -97 577 -165 629 -165 c 0
 679 -165 686 -93 686 -45 c 0
 686 -20 686 -1 686 0 c 1
 527 0 l 1
EndSplineSet
Validated: 1
EndChar

StartChar: b_ai
Encoding: 3344 3344 106
Width: 1592
VWidth: 830
Flags: HW
LayerCount: 2
Fore
SplineSet
40 239 m 0
 40 400 147 500 280 500 c 0
 392 500 522 412 522 242 c 0
 522 117 446 -10 404 -10 c 0
 389 -10 366 -1 366 12 c 0
 366 30 452 100 452 240 c 0
 452 363 365 460 268 460 c 0
 82 460 76 232 76 232 c 1
 88 270 125 312 188 312 c 0
 280 312 330 234 330 148 c 0
 330 57 274 -10 190 -10 c 0
 130 -10 40 26 40 239 c 0
96 163 m 0
 96 61 147 30 182 30 c 0
 219 30 256 76 256 146 c 0
 256 187 241 274 178 274 c 0
 147 274 96 223 96 163 c 0
602 169 m 0
 602 265 664 357 774 357 c 0
 889 357 956 257 956 166 c 0
 956 105 925 65 912 37 c 1
 1052 37 l 1
 1053 152 1047 500 1308 500 c 0
 1405 500 1552 438 1552 135 c 0
 1552 -51 1514 -201 1362 -201 c 0
 1347 -201 1332 -192 1332 -181 c 0
 1332 -170 1347 -159 1366 -159 c 0
 1453 -159 1478 -13 1478 90 c 0
 1478 221 1461 460 1300 460 c 0
 1130 460 1092 237 1088 37 c 1
 1246 37 l 1
 1246 250 1246 213 1246 388 c 0
 1246 410 1265 411 1284 411 c 0
 1302 411 1320 404 1320 387 c 0
 1320 51 1320 84 1320 9 c 0
 1320 -132 1309 -200 1204 -200 c 0
 1043 -200 1053 -6 1052 0 c 1
 985 -1 939 0 908 -2 c 0
 835 -6 842 -13 826 -13 c 0
 811 -13 804 -4 804 6 c 0
 804 33 884 60 884 175 c 0
 884 257 828 319 762 319 c 0
 702 319 640 249 640 169 c 0
 640 68 724 32 724 9 c 0
 724 0 717 -8 708 -8 c 0
 670 -8 602 71 602 169 c 0
1086 0 m 1
 1088 -97 1138 -162 1190 -162 c 0
 1240 -162 1246 -93 1246 -45 c 0
 1246 -20 1246 -1 1246 0 c 1
 1086 0 l 1
EndSplineSet
Validated: 1
EndChar

StartChar: b_o
Encoding: 3346 3346 107
Width: 607
VWidth: 830
Flags: HW
LayerCount: 2
Fore
SplineSet
40 236 m 0
 40 408 180 500 295 500 c 0
 418 500 502 420 502 338 c 0
 502 308 491 278 466 251 c 1
 481 239 567 207 567 126 c 0
 567 39 486 -10 408 -10 c 0
 352 -10 340 15 340 25 c 0
 340 35 350 42 360 42 c 0
 369 42 388 30 409 30 c 0
 461 30 494 85 494 123 c 0
 494 149 476 219 365 219 c 0
 354 219 348 232 348 240 c 0
 348 248 353 260 368 260 c 0
 403 260 429 296 429 336 c 0
 429 396 377 460 291 460 c 0
 193 460 78 374 78 230 c 1
 88 254 123 310 191 310 c 4
 236 310 330 283 330 137 c 0
 330 48 275 -10 192 -10 c 0
 55 -10 40 174 40 236 c 0
98 159 m 0
 98 58 151 30 185 30 c 0
 215 30 261 68 261 144 c 0
 261 190 237 272 186 272 c 0
 144 272 98 223 98 159 c 0
EndSplineSet
Validated: 1
EndChar

StartChar: b_oo
Encoding: 3347 3347 108
Width: 1040
VWidth: 830
Flags: HW
LayerCount: 2
Fore
SplineSet
40 236 m 0
 40 408 180 500 295 500 c 0
 418 500 502 420 502 338 c 0
 502 308 491 278 466 251 c 1
 481 239 567 207 567 126 c 0
 567 39 486 -10 408 -10 c 0
 352 -10 340 15 340 25 c 0
 340 35 350 42 360 42 c 0
 369 42 388 30 409 30 c 0
 461 30 494 85 494 123 c 0
 494 149 476 219 365 219 c 0
 354 219 348 232 348 240 c 0
 348 248 353 260 368 260 c 0
 403 260 429 296 429 336 c 0
 429 396 377 460 291 460 c 0
 193 460 78 374 78 230 c 1
 88 254 123 310 191 310 c 0
 236 310 330 283 330 137 c 0
 330 48 275 -10 192 -10 c 0
 55 -10 40 174 40 236 c 0
98 159 m 0
 98 58 151 30 185 30 c 0
 215 30 261 68 261 144 c 0
 261 190 237 272 186 272 c 0
 144 272 98 223 98 159 c 0
647 127 m 0
 647 139 657 146 667 146 c 0
 676 146 684 140 684 128 c 0
 684 78 743 30 806 30 c 0
 888 30 931 140 931 235 c 0
 931 347 887 460 807 460 c 0
 756 460 685 406 685 363 c 0
 685 347 670 345 666 345 c 0
 657 345 648 352 648 365 c 0
 648 389 695 500 821 500 c 0
 892 500 1000 453 1000 241 c 0
 1000 58 909 -10 821 -10 c 0
 711 -10 647 78 647 127 c 0
EndSplineSet
Validated: 1
EndChar

StartChar: b_ou
Encoding: 3348 3348 109
Width: 1170
VWidth: 830
Flags: HW
LayerCount: 2
Fore
SplineSet
40 236 m 0
 40 408 179 500 294 500 c 0
 417 500 502 420 502 338 c 0
 502 308 491 278 466 251 c 1
 481 239 566 207 566 126 c 0
 566 39 486 -10 408 -10 c 0
 352 -10 340 15 340 25 c 0
 340 35 350 42 360 42 c 0
 369 42 387 30 408 30 c 0
 460 30 494 85 494 123 c 0
 494 149 475 219 364 219 c 0
 353 219 348 232 348 240 c 0
 348 248 349 260 368 260 c 0
 403 260 428 296 428 336 c 0
 428 396 376 460 290 460 c 0
 192 460 78 374 78 230 c 1
 88 254 122 310 190 310 c 0
 235 310 330 283 330 137 c 0
 330 48 275 -10 192 -10 c 0
 55 -10 40 174 40 236 c 0
98 159 m 0
 98 58 150 30 184 30 c 0
 214 30 260 68 260 144 c 0
 260 190 237 272 186 272 c 0
 144 272 98 223 98 159 c 0
646 329 m 0
 646 395 681 500 772 500 c 0
 814 500 866 477 886 433 c 1
 908 468 935 500 986 500 c 0
 1072 500 1130 437 1130 274 c 0
 1130 57 972 -10 886 -10 c 0
 864 -10 846 -5 846 11 c 0
 846 20 852 25 864 25 c 0
 1039 25 1060 212 1060 276 c 0
 1060 332 1047 460 980 460 c 0
 960 460 916 442 916 354 c 0
 916 312 916 224 916 203 c 0
 916 187 899 182 882 182 c 0
 864 182 844 186 844 205 c 0
 844 333 844 460 768 460 c 0
 734 460 684 412 684 337 c 0
 684 262 726 211 726 191 c 0
 726 182 717 177 708 177 c 0
 670 177 646 306 646 329 c 0
EndSplineSet
Validated: 1
EndChar

StartChar: b_ka
Encoding: 3349 3349 110
Width: 838
VWidth: 830
Flags: HW
LayerCount: 2
Fore
SplineSet
40 137 m 0
 40 197 67 286 224 286 c 2
 270 286 l 1
 275 455 361 500 422 500 c 0
 474 500 579 470 580 286 c 1
 592 286 632 286 632 286 c 2
 703 286 798 256 798 133 c 0
 798 45 727 -9 662 -9 c 0
 603 -9 596 26 596 34 c 0
 596 41 599 47 610 47 c 0
 632 47 636 30 652 30 c 0
 681 30 724 69 724 135 c 0
 724 234 654 250 620 250 c 2
 620 250 610 250 580 250 c 1
 579 168 572 -10 430 -10 c 0
 340 -10 319 48 316 51 c 1
 309 43 269 -10 186 -10 c 0
 105 -10 40 48 40 137 c 0
114 139 m 0
 114 100 126 30 196 30 c 0
 251 30 292 69 292 96 c 0
 292 118 274 138 270 250 c 1
 229 250 224 250 224 250 c 2
 135 250 114 189 114 139 c 0
310 250 m 1
 312 176 323 30 416 30 c 0
 454 30 507 67 510 250 c 1
 310 250 l 1
310 286 m 1
 510 286 l 1
 507 337 493 460 414 460 c 0
 335 460 311 340 310 286 c 1
EndSplineSet
Validated: 1
EndChar

StartChar: b_kha
Encoding: 3350 3350 111
Width: 862
VWidth: 830
Flags: HW
LayerCount: 2
Fore
SplineSet
40 228 m 4
 40 399 146 500 272 500 c 4
 423 500 524 382 524 242 c 4
 524 145 479 67 464 36 c 5
 752 36 l 5
 752 179 752 317 752 469 c 4
 752 490 769 495 786 495 c 4
 803 495 820 487 820 470 c 4
 820 446 822 240 822 26 c 4
 822 2 807 0 790 0 c 4
 535 0 504 0 472 0 c 4
 449 0 421 -10 398 -10 c 4
 381 -10 366 -5 366 8 c 4
 366 37 448 80 448 246 c 4
 448 381 357 460 268 460 c 4
 195 460 76 402 76 231 c 5
 109 297 156 312 190 312 c 4
 231 312 330 281 330 151 c 4
 330 59 275 -10 190 -10 c 4
 130 -10 40 30 40 228 c 4
96 158 m 4
 96 76 143 30 180 30 c 4
 230 30 258 93 258 147 c 4
 258 195 237 274 186 274 c 4
 142 274 96 224 96 158 c 4
EndSplineSet
Validated: 1
EndChar

StartChar: b_ga
Encoding: 3351 3351 112
Width: 802
VWidth: 830
Flags: HW
LayerCount: 2
Fore
SplineSet
40 243 m 0
 40 453 227 500 232 500 c 0
 241 500 250 490 250 480 c 0
 250 455 76 434 76 237 c 0
 76 116 151 30 222 30 c 0
 280 30 363 72 368 269 c 0
 372 395 448 500 570 500 c 0
 697 500 762 366 762 246 c 0
 762 77 611 -10 576 -10 c 0
 565 -10 554 -1 554 9 c 0
 554 31 724 70 724 241 c 0
 724 353 664 460 576 460 c 0
 492 460 439 361 438 241 c 0
 436 102 367 -10 226 -10 c 0
 107 -10 40 117 40 243 c 0
EndSplineSet
Validated: 1
EndChar

StartChar: b_gha
Encoding: 3352 3352 113
Width: 1222
VWidth: 830
Flags: HW
LayerCount: 2
Fore
SplineSet
40 337 m 0
 40 445 118 500 190 500 c 0
 272 500 350 428 350 340 c 0
 350 323 345 277 318 226 c 1
 428 226 l 1
 428 390 519 500 658 500 c 0
 818 500 866 309 866 228 c 0
 866 190 851 190 838 190 c 2
 838 190 798 190 500 190 c 1
 500 35 l 1
 1112 35 l 1
 1112 475 l 2
 1112 492 1131 495 1148 495 c 0
 1165 495 1182 488 1182 475 c 2
 1182 34 l 2
 1182 23 1178 0 1146 0 c 2
 456 0 l 2
 438 0 428 18 428 35 c 2
 428 190 l 1
 419 190 358 190 358 190 c 2
 278 190 255 176 244 176 c 0
 230 176 222 185 222 196 c 0
 222 227 280 237 280 328 c 0
 280 392 242 460 178 460 c 0
 121 460 78 399 78 334 c 0
 78 240 142 225 142 198 c 0
 142 189 139 179 128 179 c 0
 93 179 40 248 40 337 c 0
500 225 m 1
 830 225 l 1
 830 225 825 460 658 460 c 0
 544 460 500 311 500 225 c 1
EndSplineSet
Validated: 1
EndChar

StartChar: b_nga
Encoding: 3353 3353 114
Width: 860
VWidth: 830
Flags: HW
LayerCount: 2
Fore
SplineSet
40 236 m 4
 40 401 146 500 252 500 c 4
 344 500 406 437 432 372 c 5
 445 412 505 500 616 500 c 4
 692 500 802 452 802 363 c 4
 802 319 780 275 744 250 c 5
 762 241 820 200 820 124 c 4
 820 31 740 -10 660 -10 c 4
 613 -10 552 13 552 33 c 4
 552 42 562 51 574 51 c 4
 574 51 614 30 656 30 c 4
 702 30 750 50 750 131 c 4
 750 217 678 225 580 225 c 4
 567 225 558 229 558 245 c 4
 558 251 560 263 580 263 c 4
 644 263 728 263 728 351 c 4
 728 418 676 460 616 460 c 4
 577 460 456 407 456 294 c 4
 456 17 l 4
 456 0 440 -5 422 -5 c 4
 404 -5 384 2 384 17 c 4
 384 45 384 65 384 290 c 4
 384 343 320 460 250 460 c 4
 219 460 82 441 76 231 c 5
 96 275 141 312 192 312 c 4
 247 312 332 264 332 150 c 4
 332 62 277 -10 190 -10 c 4
 99 -10 40 71 40 236 c 4
96 154 m 4
 96 79 141 30 182 30 c 4
 218 30 256 73 256 146 c 4
 256 196 233 274 184 274 c 4
 143 274 96 226 96 154 c 4
EndSplineSet
Validated: 1
EndChar

StartChar: b_ca
Encoding: 3354 3354 115
Width: 904
VWidth: 830
Flags: HW
LayerCount: 2
Fore
SplineSet
40 16 m 0
 40 26 45 35 60 35 c 0
 81 35 172 35 278 35 c 0
 346 35 410 104 410 175 c 0
 410 242 361 321 288 321 c 0
 203 321 166 247 166 163 c 0
 166 140 152 135 148 135 c 0
 127 135 126 156 126 174 c 0
 126 320 235 357 294 357 c 0
 380 357 478 295 478 180 c 0
 478 82 414 48 400 35 c 1
 531 35 661 35 792 35 c 1
 792 111 792 178 792 253 c 2
 792 348 792 449 792 473 c 0
 792 490 811 495 828 495 c 0
 846 495 864 488 864 472 c 0
 864 443 862 432 862 260 c 2
 862 191 864 180 864 32 c 0
 864 2 847 0 826 0 c 0
 519 0 213 0 60 0 c 0
 47 0 40 7 40 16 c 0
EndSplineSet
Validated: 1
EndChar

StartChar: b_cha
Encoding: 3355 3355 116
Width: 1114
VWidth: 830
Flags: HW
LayerCount: 2
Fore
SplineSet
40 16 m 0
 40 29 41 35 64 35 c 0
 173 35 202 35 282 35 c 0
 345 35 404 100 404 166 c 0
 404 239 358 319 286 319 c 0
 261 319 158 298 158 146 c 0
 158 135 150 130 142 130 c 0
 133 130 124 136 124 148 c 0
 124 320 230 357 296 357 c 0
 387 357 476 278 476 181 c 0
 476 122 445 62 392 36 c 1
 443 36 601 36 650 36 c 1
 632 62 590 150 590 243 c 0
 590 379 689 500 820 500 c 0
 1002 500 1074 357 1074 209 c 0
 1074 81 1021 -10 940 -10 c 0
 849 -10 830 94 830 166 c 0
 830 300 912 361 958 389 c 1
 924 429 876 460 822 460 c 0
 748 460 632 401 632 243 c 4
 632 103 716 22 716 10 c 0
 716 -6 705 -10 692 -10 c 0
 662 -10 660 0 642 0 c 0
 589 0 541 0 64 0 c 0
 52 0 40 2 40 16 c 0
868 167 m 0
 868 99 881 30 932 30 c 0
 992 30 1004 149 1004 217 c 0
 1004 319 977 351 976 356 c 1
 973 354 868 308 868 167 c 0
EndSplineSet
Validated: 1
EndChar

StartChar: b_ja
Encoding: 3356 3356 117
Width: 726
VWidth: 830
Flags: HW
LayerCount: 2
Fore
SplineSet
40 96 m 0
 40 184 114 215 194 215 c 2
 449 215 l 2
 596 216 609 324 609 358 c 0
 609 412 578 460 531 460 c 0
 437 460 421 372 421 279 c 0
 421 256 403 251 385 251 c 0
 366 251 347 257 347 279 c 0
 347 285 347 460 209 460 c 0
 162 460 121 431 99 391 c 1
 116 400 138 406 159 406 c 0
 232 406 267 363 267 318 c 0
 267 272 230 230 162 230 c 0
 94 230 50 272 50 341 c 0
 50 419 109 500 216 500 c 0
 328 500 374 416 389 395 c 1
 412 446 447 500 534 500 c 0
 666 500 686 399 686 358 c 0
 686 284 628 184 473 183 c 2
 237 183 l 2
 156 183 111 171 111 93 c 0
 111 63 129 30 192 30 c 0
 325 30 415 167 565 167 c 0
 652 167 685 118 685 80 c 0
 685 23 617 -10 565 -10 c 0
 528 -10 452 -7 452 90 c 1
 373 46 306 -10 182 -10 c 0
 100 -10 40 19 40 96 c 0
97 318 m 0
 97 290 123 266 150 266 c 0
 176 266 194 289 194 318 c 0
 194 338 184 368 149 368 c 0
 127 368 97 354 97 318 c 0
491 80 m 0
 491 46 524 30 556 30 c 0
 588 30 610 45 610 80 c 0
 610 110 592 128 556 128 c 0
 522 128 491 115 491 80 c 0
EndSplineSet
Validated: 1
EndChar

StartChar: b_jha
Encoding: 3357 3357 118
Width: 1360
VWidth: 830
Flags: HW
LayerCount: 2
Fore
SplineSet
40 240 m 0
 40 397 153 500 272 500 c 0
 337 500 365 482 386 473 c 1
 418 493 449 500 482 500 c 0
 804 500 603 30 810 30 c 0
 883 30 922 80 922 125 c 0
 922 402 920 402 920 471 c 0
 920 485 938 494 956 494 c 0
 974 494 994 485 994 471 c 0
 994 235 1002 181 1014 139 c 0
 1042 40 1107 30 1134 30 c 0
 1211 30 1282 121 1282 237 c 0
 1282 381 1194 461 1194 484 c 0
 1194 494 1202 500 1210 500 c 0
 1251 500 1320 345 1320 241 c 0
 1320 124 1259 -10 1116 -10 c 0
 1034 -10 991 53 968 77 c 1
 937 23 880 -10 818 -10 c 0
 506 -9 716 460 474 460 c 0
 448 460 428 452 422 447 c 1
 524 334 524 229 524 197 c 0
 524 19 436 -10 380 -10 c 0
 276 -10 254 115 254 190 c 0
 254 340 322 417 344 441 c 1
 316 453 296 460 270 460 c 0
 164 460 76 368 76 252 c 0
 76 98 160 26 160 11 c 0
 160 -3 148 -10 142 -10 c 0
 109 -8 40 113 40 240 c 0
292 205 m 0
 292 161 295 30 368 30 c 0
 436 30 452 119 452 193 c 0
 452 274 428 357 372 416 c 1
 315 361 292 283 292 205 c 0
EndSplineSet
Validated: 1
EndChar

StartChar: b_nja
Encoding: 3358 3358 119
Width: 1118
VWidth: 830
Flags: HW
LayerCount: 2
Fore
SplineSet
40 233 m 0
 40 411 144 500 252 500 c 0
 300 500 382 481 432 381 c 1
 476 451 529 500 616 500 c 0
 659 500 694 487 724 473 c 1
 758 491 796 500 834 500 c 0
 956 500 1078 402 1078 244 c 0
 1078 102 999 -10 958 -10 c 0
 943 -10 920 -2 920 11 c 0
 920 27 1008 89 1008 247 c 0
 1008 362 921 460 832 460 c 0
 808 460 784 457 762 449 c 1
 787 427 864 350 864 200 c 0
 864 17 780 -10 724 -10 c 0
 620 -10 594 110 594 191 c 0
 594 277 617 373 686 441 c 1
 660 453 631 460 602 460 c 0
 468 460 454 294 454 236 c 0
 454 211 456 86 456 14 c 0
 456 0 438 -5 420 -5 c 0
 403 -5 386 0 386 14 c 0
 386 44 388 201 388 240 c 0
 388 392 302 460 246 460 c 0
 158 460 76 369 76 230 c 1
 95 276 139 310 190 310 c 0
 262 310 332 248 332 151 c 0
 332 70 284 -10 190 -10 c 0
 76 -10 40 116 40 233 c 0
96 151 m 0
 96 99 124 30 182 30 c 0
 228 30 258 84 258 147 c 0
 258 212 225 273 184 273 c 0
 144 273 96 230 96 151 c 0
632 205 m 0
 632 160 641 30 714 30 c 0
 778 30 794 155 794 200 c 0
 794 279 766 357 712 416 c 1
 655 361 632 282 632 205 c 0
EndSplineSet
Validated: 1
EndChar

StartChar: b_Ta
Encoding: 3359 3359 120
Width: 504
VWidth: 830
Flags: HW
LayerCount: 2
Fore
SplineSet
40 79 m 0
 40 90 47 98 56 98 c 0
 87 98 129 30 256 30 c 0
 311 30 426 48 426 130 c 0
 426 279 40 113 40 367 c 0
 40 434 120 500 246 500 c 0
 391 500 462 425 462 411 c 0
 462 397 454 392 444 392 c 0
 425 392 380 460 248 460 c 0
 189 460 78 443 78 366 c 0
 78 210 464 369 464 127 c 0
 464 22 328 -10 252 -10 c 0
 142 -10 40 51 40 79 c 0
EndSplineSet
Validated: 1
EndChar

StartChar: b_Tha
Encoding: 3360 3360 121
Width: 564
VWidth: 830
Flags: HW
LayerCount: 2
Fore
SplineSet
40 259 m 0
 40 374 135 500 272 500 c 0
 423 500 524 378 524 240 c 0
 524 90 395 -10 274 -10 c 0
 180 -10 40 59 40 259 c 0
76 254 m 0
 76 104 185 30 274 30 c 0
 378 30 450 134 450 239 c 0
 450 396 346 460 272 460 c 0
 167 460 76 372 76 254 c 0
EndSplineSet
Validated: 1
EndChar

StartChar: b_Da
Encoding: 3361 3361 122
Width: 1060
VWidth: 830
Flags: HW
LayerCount: 2
Fore
SplineSet
40 251 m 0
 40 336 74 500 214 500 c 0
 287 500 383 461 396 255 c 0
 400 195 412 30 514 30 c 0
 614 30 623 143 623 218 c 0
 623 269 622 393 622 475 c 0
 622 492 643 495 660 495 c 0
 678 495 694 489 694 475 c 0
 694 424 696 388 696 216 c 0
 696 116 766 30 834 30 c 0
 924 30 984 133 984 244 c 0
 984 400 900 458 900 483 c 0
 900 495 907 500 918 500 c 0
 939 500 1020 397 1020 243 c 0
 1020 50 905 -10 828 -10 c 0
 782 -10 699 8 654 104 c 1
 636 39 573 -10 506 -10 c 0
 434 -10 334 35 324 251 c 0
 316 423 251 460 202 460 c 0
 104 460 78 302 78 246 c 0
 78 100 164 35 164 7 c 0
 164 -4 157 -10 148 -10 c 0
 123 -10 40 109 40 251 c 0
EndSplineSet
Validated: 1
EndChar

StartChar: b_Dha
Encoding: 3362 3362 123
Width: 1064
VWidth: 830
Flags: HW
LayerCount: 2
Fore
SplineSet
40 245 m 0
 40 439 145 500 214 500 c 0
 356 500 382 351 392 247 c 0
 401 149 423 30 510 30 c 0
 619 30 620 141 620 273 c 0
 620 433 620 332 620 473 c 0
 620 487 639 495 658 495 c 0
 676 495 692 488 692 474 c 0
 692 426 692 326 692 284 c 0
 692 142 734 30 834 30 c 0
 888 30 931 79 946 106 c 1
 819 116 792 253 792 353 c 0
 792 458 831 500 892 500 c 0
 944 500 1024 467 1024 271 c 0
 1024 129 956 -10 834 -10 c 0
 724 -10 668 70 652 99 c 1
 623 33 591 -10 500 -10 c 0
 343 -10 334 134 324 250 c 0
 310 419 253 460 206 460 c 0
 130 460 76 364 76 252 c 0
 76 92 158 38 158 6 c 0
 158 -5 148 -10 142 -10 c 0
 115 -10 40 106 40 245 c 0
864 362 m 0
 864 245 896 145 962 145 c 1
 976 189 980 234 980 280 c 0
 980 377 953 460 904 460 c 0
 869 460 864 390 864 362 c 0
EndSplineSet
Validated: 1
EndChar

StartChar: b_nha
Encoding: 3363 3363 124
Width: 1183
VWidth: 830
Flags: HW
LayerCount: 2
Fore
SplineSet
40 226 m 0
 40 434 169 500 253 500 c 0
 329 500 404 451 431 379 c 1
 458 438 506 500 592 500 c 0
 668 500 747 453 771 379 c 1
 800 452 849 500 935 500 c 0
 1060 500 1143 386 1143 246 c 0
 1143 131 1071 -10 1024 -10 c 0
 995 -10 986 3 986 12 c 0
 986 28 1072 102 1072 256 c 0
 1072 359 1008 460 928 460 c 0
 853 460 801 375 801 287 c 0
 801 260 801 68 801 15 c 0
 801 -1 785 -6 767 -6 c 0
 748 -6 728 -1 728 15 c 0
 728 28 728 208 728 273 c 0
 728 322 702 460 591 460 c 0
 463 460 459 302 459 224 c 0
 459 162 459 119 459 15 c 0
 459 1 440 -5 422 -5 c 0
 404 -5 387 1 387 15 c 0
 387 86 387 165 387 217 c 0
 387 445 268 460 246 460 c 0
 145 460 83 355 77 229 c 1
 92 271 135 309 193 309 c 0
 250 309 331 263 331 152 c 0
 331 57 276 -10 195 -10 c 0
 71 -10 40 130 40 226 c 0
98 154 m 0
 98 100 125 30 188 30 c 0
 241 30 261 104 261 146 c 0
 261 198 233 271 182 271 c 0
 149 271 98 229 98 154 c 0
EndSplineSet
Validated: 1
EndChar

StartChar: b_ta
Encoding: 3364 3364 125
Width: 778
VWidth: 830
Flags: HW
LayerCount: 2
Fore
SplineSet
40 238 m 0
 40 405 158 500 276 500 c 0
 319 500 354 487 384 473 c 1
 418 491 456 500 494 500 c 0
 616 500 738 402 738 244 c 0
 738 102 657 -10 616 -10 c 0
 601 -10 578 -2 578 11 c 0
 578 27 666 89 666 247 c 0
 666 362 579 460 490 460 c 0
 466 460 442 457 420 449 c 1
 445 427 524 350 524 200 c 0
 524 17 438 -10 382 -10 c 0
 278 -10 252 110 252 191 c 0
 252 277 275 373 344 441 c 1
 318 453 291 460 262 460 c 0
 172 460 76 361 76 238 c 0
 76 103 162 16 162 6 c 0
 162 -6 156 -10 146 -10 c 0
 107 -10 40 117 40 238 c 0
290 205 m 0
 290 160 299 30 372 30 c 0
 436 30 452 155 452 200 c 0
 452 279 426 357 372 416 c 1
 315 361 290 282 290 205 c 0
EndSplineSet
Validated: 1
EndChar

StartChar: b_tha
Encoding: 3365 3365 126
Width: 820
VWidth: 830
Flags: HW
LayerCount: 2
Fore
SplineSet
40 27 m 0
 40 473 l 0
 40 490 60 495 77 495 c 0
 94 495 114 487 114 473 c 0
 114 35 l 1
 386 35 l 1
 386 135 386 226 386 226 c 2
 386 346 428 500 587 500 c 0
 664 500 780 458 780 219 c 0
 780 216 l 2
 780 216 779 40 779 29 c 0
 779 4 757 0 749 0 c 0
 467 0 142 0 74 0 c 0
 46 0 41 10 40 27 c 0
457 35 m 1
 740 35 l 1
 740 151 740 194 740 211 c 0
 740 335 707 460 593 460 c 0
 471 460 457 297 457 214 c 0
 457 165 457 72 457 35 c 1
EndSplineSet
Validated: 1
EndChar

StartChar: b_da
Encoding: 3366 3366 127
Width: 522
VWidth: 830
Flags: HW
LayerCount: 2
Fore
SplineSet
40 249 m 0
 40 377 122 500 262 500 c 0
 324 500 458 469 458 359 c 0
 458 295 399 267 368 246 c 1
 415 237 482 200 482 127 c 0
 482 72 433 -10 306 -10 c 0
 288 -10 152 3 152 34 c 0
 152 45 172 51 190 51 c 0
 219 51 245 30 298 30 c 0
 391 30 408 96 408 126 c 0
 408 206 326 225 224 225 c 0
 207 225 192 227 192 243 c 0
 192 259 200 263 222 263 c 0
 263 263 386 266 386 359 c 0
 386 400 352 460 254 460 c 0
 167 460 76 385 76 234 c 0
 76 110 122 18 122 7 c 0
 122 -1 114 -10 104 -10 c 0
 66 -10 40 181 40 249 c 0
EndSplineSet
Validated: 1
EndChar

StartChar: b_dha
Encoding: 3367 3367 128
Width: 822
VWidth: 830
Flags: HW
LayerCount: 2
Fore
SplineSet
40 244 m 0
 40 359 111 500 158 500 c 0
 187 500 196 487 196 478 c 0
 196 462 110 388 110 234 c 0
 110 131 174 30 254 30 c 0
 370 30 384 159 384 316 c 2
 384 316 384 426 384 475 c 0
 384 489 400 495 418 495 c 0
 436 495 454 488 454 474 c 0
 454 384 454 313 454 313 c 2
 454 67 538 30 592 30 c 0
 713 30 744 183 744 256 c 0
 744 385 658 454 658 485 c 0
 658 494 666 500 674 500 c 0
 700 500 782 390 782 247 c 0
 782 98 703 -10 586 -10 c 0
 524 -10 446 22 412 105 c 1
 408 99 362 -10 248 -10 c 0
 123 -10 40 104 40 244 c 0
EndSplineSet
Validated: 1
EndChar

StartChar: b_na
Encoding: 3368 3368 129
Width: 822
VWidth: 830
Flags: HW
LayerCount: 2
Fore
SplineSet
40 243 m 0
 40 392 117 500 234 500 c 4
 296 500 374 468 408 385 c 1
 412 391 460 500 574 500 c 0
 699 500 782 386 782 246 c 0
 782 131 709 -10 662 -10 c 0
 633 -10 624 3 624 12 c 0
 624 28 710 102 710 256 c 0
 710 359 646 460 566 460 c 0
 450 460 438 331 438 174 c 2
 438 174 438 64 438 15 c 0
 438 1 420 -5 402 -5 c 0
 384 -5 366 2 366 16 c 0
 366 106 366 177 366 177 c 2
 366 423 284 460 230 460 c 0
 109 460 76 307 76 234 c 0
 76 105 164 36 164 5 c 0
 164 -4 156 -10 148 -10 c 0
 122 -10 40 100 40 243 c 0
EndSplineSet
Validated: 1
EndChar

StartChar: b_pa
Encoding: 3370 3370 130
Width: 904
VWidth: 830
Flags: HW
LayerCount: 2
Fore
SplineSet
40 169 m 0
 40 253 99 358 206 358 c 0
 317 358 394 278 394 176 c 0
 394 134 383 76 348 35 c 1
 794 35 l 1
 794 44 794 229 794 237 c 2
 794 280 794 170 794 474 c 0
 794 488 811 495 828 495 c 0
 846 495 864 488 864 474 c 0
 864 413 864 270 864 241 c 2
 864 197 864 32 864 24 c 0
 864 0 851 0 836 0 c 0
 445 0 381 0 332 0 c 0
 305 0 292 -10 270 -10 c 0
 249 -10 240 -1 240 7 c 0
 240 33 324 62 324 171 c 0
 324 253 262 321 206 321 c 0
 155 321 80 274 80 172 c 0
 80 54 160 33 160 5 c 0
 160 -3 154 -9 146 -9 c 0
 109 -9 40 73 40 169 c 0
EndSplineSet
Validated: 1
EndChar

StartChar: b_pha
Encoding: 3371 3371 131
Width: 972
VWidth: 830
Flags: HW
LayerCount: 2
Fore
SplineSet
40 169 m 0
 40 253 99 358 206 358 c 0
 317 358 394 278 394 176 c 0
 394 134 381 76 346 35 c 1
 534 35 l 1
 534 205 l 2
 534 324 560 500 742 500 c 0
 894 500 932 348 932 220 c 2
 932 220 932 219 932 21 c 0
 932 8 928 0 906 0 c 0
 495 0 385 0 334 0 c 0
 306 0 292 -10 270 -10 c 0
 249 -10 240 -1 240 7 c 0
 240 33 324 62 324 171 c 0
 324 253 262 321 206 321 c 0
 155 321 80 274 80 172 c 0
 80 54 160 33 160 5 c 0
 160 -3 154 -9 146 -9 c 0
 109 -9 40 73 40 169 c 0
610 36 m 1
 894 36 l 1
 894 193 894 215 894 215 c 2
 894 312 862 460 744 460 c 0
 690 460 610 422 610 207 c 2
 610 207 610 207 610 36 c 1
EndSplineSet
Validated: 1
EndChar

StartChar: b_ba
Encoding: 3372 3372 132
Width: 1116
VWidth: 830
Flags: HW
LayerCount: 2
Fore
SplineSet
40 230 m 0
 40 436 166 500 250 500 c 0
 359 500 411 414 428 394 c 1
 444 425 480 500 572 500 c 0
 651 500 778 442 778 248 c 0
 778 174 759 97 718 35 c 1
 1008 35 l 1
 1008 180 1008 332 1008 474 c 0
 1008 487 1025 495 1042 495 c 0
 1059 495 1076 487 1076 474 c 0
 1076 428 1076 200 1076 15 c 0
 1076 2 1054 0 1044 0 c 0
 728 0 l 0
 710 0 674 -10 648 -10 c 0
 633 -10 620 -4 620 5 c 0
 620 17 708 121 708 246 c 0
 708 355 641 460 574 460 c 0
 540 460 456 443 456 292 c 0
 456 181 458 42 458 14 c 0
 458 -2 439 -5 422 -5 c 0
 404 -5 386 0 386 15 c 0
 386 46 387 249 387 281 c 0
 387 432 293 460 244 460 c 0
 177 460 76 392 76 234 c 0
 76 233 76 233 76 232 c 1
 87 254 121 312 190 312 c 0
 258 312 328 255 328 150 c 0
 328 67 279 -10 190 -10 c 0
 70 -10 40 129 40 230 c 0
96 154 m 0
 96 105 124 30 180 30 c 0
 238 30 258 107 258 151 c 0
 258 212 224 275 184 275 c 0
 145 275 96 231 96 154 c 0
EndSplineSet
Validated: 1
EndChar

StartChar: b_bha
Encoding: 3373 3373 133
Width: 566
VWidth: 830
Flags: HW
LayerCount: 2
Fore
SplineSet
40 237 m 0
 40 401 161 500 298 500 c 0
 361 500 502 480 502 390 c 0
 502 325 429 282 336 282 c 0
 297 282 282 289 266 289 c 0
 239 289 234 261 234 239 c 0
 234 220 240 195 262 195 c 0
 272 195 304 207 336 207 c 0
 387 207 526 191 526 98 c 0
 526 54 481 -10 340 -10 c 0
 286 -10 231 0 180 14 c 0
 172 16 168 23 168 30 c 0
 168 40 175 50 186 50 c 0
 214 50 242 30 338 30 c 0
 434 30 452 71 452 100 c 0
 452 142 410 170 350 170 c 0
 303 170 282 156 248 156 c 0
 200 156 162 198 162 241 c 0
 162 284 197 332 252 332 c 0
 283 332 313 320 344 320 c 0
 380 320 430 342 430 388 c 0
 430 418 406 460 308 460 c 0
 173 460 78 372 78 222 c 0
 78 124 120 19 120 5 c 0
 120 -4 110 -10 102 -10 c 0
 65 -10 40 165 40 237 c 0
EndSplineSet
Validated: 1
EndChar

StartChar: b_ma
Encoding: 3374 3374 134
Width: 546
VWidth: 830
Flags: HW
LayerCount: 2
Fore
SplineSet
40 41 m 0
 40 62 40 62 40 255 c 0
 40 373 127 500 270 500 c 4
 386 500 506 408 506 235 c 0
 506 212 506 32 506 32 c 0
 506 18 498 0 480 0 c 0
 438 0 479 0 62 0 c 0
 42 0 40 22 40 41 c 0
74 35 m 1
 207 80 278 227 278 329 c 0
 278 396 246 440 198 440 c 0
 161 440 74 377 74 211 c 0
 74 173 74 85 74 35 c 1
180 35 m 0
 466 35 l 1
 466 80 466 147 466 192 c 0
 466 291 464 448 270 460 c 1
 297 447 348 427 348 326 c 0
 348 147 203 53 180 35 c 0
EndSplineSet
Validated: 1
EndChar

StartChar: b_ya
Encoding: 3375 3375 135
Width: 904
VWidth: 830
Flags: HW
LayerCount: 2
Fore
SplineSet
40 296 m 0
 40 414 106 500 206 500 c 0
 288 500 328 453 342 436 c 1
 393 481 435 500 502 500 c 0
 605 500 686 419 686 292 c 0
 686 171 605 71 540 41 c 1
 561 33 583 30 606 30 c 0
 722 30 822 143 822 255 c 0
 822 375 722 465 722 481 c 0
 722 495 732 500 742 500 c 0
 772 500 864 365 864 261 c 0
 864 134 769 -10 592 -10 c 0
 540 -10 514 1 482 11 c 1
 444 -3 405 -10 364 -10 c 0
 178 -10 40 127 40 296 c 0
80 293 m 0
 80 136 214 30 348 30 c 0
 376 30 403 34 430 41 c 1
 299 145 310 285 282 382 c 0
 265 440 233 460 200 460 c 0
 146 460 80 403 80 293 c 0
370 367 m 0
 370 367 386 153 484 71 c 1
 526 91 606 162 606 293 c 0
 606 384 559 460 488 460 c 0
 445 460 370 432 370 367 c 0
EndSplineSet
Validated: 1
EndChar

StartChar: b_ra
Encoding: 3376 3376 136
Width: 562
VWidth: 830
Flags: HW
LayerCount: 2
Fore
SplineSet
40 240 m 0
 40 393 143 500 279 500 c 0
 382 500 522 435 522 220 c 0
 522 53 468 -10 386 -10 c 0
 283 -10 274 100 274 185 c 0
 274 270 329 349 402 390 c 1
 374 430 320 460 264 460 c 0
 162 460 77 369 77 238 c 0
 77 91 158 36 158 9 c 0
 158 0 151 -7 144 -7 c 0
 111 -7 40 103 40 240 c 0
312 174 m 0
 312 130 317 30 378 30 c 0
 436 30 451 149 451 225 c 0
 451 282 433 342 423 355 c 1
 353 322 312 250 312 174 c 0
EndSplineSet
Validated: 1
EndChar

StartChar: b_rha
Encoding: 3377 3377 137
Width: 564
VWidth: 830
Flags: HW
LayerCount: 2
Fore
SplineSet
40 244 m 4
 40 372 128 500 274 500 c 0
 421 500 524 377 524 242 c 0
 524 153 468 -10 398 -10 c 0
 390 -10 368 -7 368 8 c 0
 368 29 450 98 450 239 c 0
 450 366 368 460 266 460 c 0
 178 460 78 381 78 235 c 4
 78 102 162 26 162 7 c 0
 162 -2 155 -10 144 -10 c 0
 116 -10 40 97 40 244 c 4
EndSplineSet
Validated: 1
EndChar

StartChar: b_la
Encoding: 3378 3378 138
Width: 834
VWidth: 830
Flags: HW
LayerCount: 2
Fore
SplineSet
40 35 m 0
 40 233 l 2
 40 351 105 500 272 500 c 0
 432 500 478 309 478 228 c 0
 478 190 463 190 450 190 c 0
 450 190 410 190 112 190 c 1
 112 35 l 1
 724 35 l 1
 724 475 l 0
 724 492 743 495 760 495 c 0
 777 495 794 488 794 475 c 0
 794 34 l 0
 794 23 790 0 758 0 c 0
 68 0 l 0
 50 0 40 18 40 35 c 0
112 225 m 1
 442 225 l 17
 442 225 437 460 270 460 c 0
 156 460 112 311 112 225 c 1
EndSplineSet
Validated: 1
EndChar

StartChar: b_lha
Encoding: 3379 3379 139
Width: 612
VWidth: 830
Flags: HW
LayerCount: 2
Fore
SplineSet
40 191 m 0
 40 308 118 500 306 500 c 0
 402 500 548 460 548 335 c 0
 548 248 477 202 472 198 c 1
 541 158 564 130 564 81 c 0
 564 -29 457 -35 340 -35 c 0
 298 -35 255 -35 200 -35 c 0
 155 -35 86 -37 86 -81 c 0
 86 -107 113 -124 162 -124 c 0
 427 -124 508 -124 546 -124 c 0
 569 -124 572 -143 572 -161 c 0
 572 -179 571 -196 548 -196 c 0
 203 -195 233 -195 158 -195 c 0
 100 -195 44 -159 44 -88 c 0
 44 -3 131 0 184 0 c 0
 215 0 275 0 296 0 c 0
 438 0 493 10 494 87 c 0
 494 145 418 176 380 178 c 0
 364 179 360 187 360 195 c 0
 360 206 367 210 380 213 c 0
 380 213 478 227 478 336 c 0
 478 412 407 460 304 460 c 0
 183 460 93 339 80 226 c 1
 96 266 136 311 196 311 c 0
 266 311 334 250 334 166 c 0
 334 86 272 15 188 15 c 0
 99 15 40 100 40 191 c 0
102 158 m 0
 102 104 117 51 178 51 c 0
 244 51 262 117 262 158 c 0
 262 213 229 274 188 274 c 0
 146 274 102 227 102 158 c 0
EndSplineSet
Validated: 1
EndChar

StartChar: b_zha
Encoding: 3380 3380 140
Width: 604
VWidth: 830
Flags: HW
LayerCount: 2
Fore
SplineSet
40 359 m 0
 40 451 123 500 164 500 c 0
 178 500 198 493 198 483 c 0
 198 460 114 459 114 364 c 0
 114 314 144 216 304 216 c 0
 313 216 321 216 330 216 c 1
 312 259 296 307 296 354 c 0
 296 453 372 500 438 500 c 0
 501 500 564 450 564 367 c 0
 564 259 480 208 410 193 c 1
 413 179 414 165 414 151 c 0
 414 51 329 -10 254 -10 c 0
 186 -10 124 36 124 55 c 0
 124 65 132 74 142 74 c 0
 158 74 182 30 244 30 c 0
 303 30 342 83 342 150 c 0
 342 157 341 165 340 177 c 1
 335 177 330 177 324 177 c 0
 71 177 40 310 40 359 c 0
370 358 m 0
 370 315 384 271 396 230 c 1
 515 261 528 330 528 364 c 0
 528 422 482 460 444 460 c 0
 400 460 370 418 370 358 c 0
EndSplineSet
Validated: 1
EndChar

StartChar: b_va
Encoding: 3381 3381 141
Width: 862
VWidth: 830
Flags: HW
LayerCount: 2
Fore
SplineSet
40 244 m 0
 40 408 157 500 272 500 c 0
 383 500 522 417 522 242 c 0
 522 145 491 91 462 35 c 1
 750 35 l 5
 750 177 750 332 750 474 c 0
 750 488 768 495 786 495 c 0
 804 495 822 487 822 474 c 0
 822 433 820 371 820 48 c 0
 820 2 795 0 790 0 c 0
 736 0 543 0 458 0 c 0
 410 0 422 -9 394 -9 c 0
 378 -9 366 -3 366 10 c 0
 366 31 448 90 448 235 c 0
 448 382 355 460 268 460 c 0
 175 460 74 375 74 248 c 0
 74 100 162 26 162 7 c 0
 162 -1 154 -10 146 -10 c 0
 110 -10 40 120 40 244 c 0
EndSplineSet
Validated: 1
EndChar

StartChar: b_sha
Encoding: 3382 3382 142
Width: 818
VWidth: 830
Flags: HW
LayerCount: 2
Fore
SplineSet
40 249 m 0
 40 409 196 496 226 496 c 0
 239 496 242 484 242 475 c 0
 242 452 76 410 76 252 c 0
 76 106 153 30 222 30 c 0
 315 30 358 138 362 226 c 0
 371 450 488 500 572 500 c 0
 654 500 778 443 778 229 c 0
 778 44 723 -10 640 -10 c 0
 552 -10 532 75 532 175 c 0
 532 341 670 391 670 397 c 1
 667 400 631 460 570 460 c 0
 469 460 445 324 434 227 c 0
 417 79 359 -10 238 -10 c 0
 79 -10 40 153 40 249 c 0
570 166 m 0
 570 54 609 30 634 30 c 0
 693 30 706 152 706 234 c 0
 706 274 703 320 686 357 c 1
 611 326 570 245 570 166 c 0
EndSplineSet
Validated: 1
EndChar

StartChar: b_Sha
Encoding: 3383 3383 143
Width: 990
VWidth: 830
Flags: HW
LayerCount: 2
Fore
SplineSet
40 169 m 0
 40 253 99 358 206 358 c 0
 317 358 394 278 394 176 c 0
 394 134 383 76 348 35 c 1
 622 35 l 5
 622 233 l 1
 600 230 571 228 550 228 c 0
 459 228 422 305 422 366 c 0
 422 448 490 500 560 500 c 0
 638 500 694 438 694 371 c 0
 694 356 694 330 694 291 c 1
 701 295 876 391 876 462 c 0
 876 488 899 495 916 495 c 0
 930 495 950 493 950 460 c 0
 950 419 950 460 950 48 c 0
 950 13 935 0 908 0 c 0
 489 0 368 0 334 0 c 0
 306 0 292 -10 270 -10 c 0
 249 -10 240 -1 240 7 c 0
 240 33 324 62 324 171 c 0
 324 253 262 321 206 321 c 0
 155 321 80 274 80 172 c 0
 80 54 160 33 160 5 c 0
 160 -3 154 -9 146 -9 c 0
 109 -9 40 73 40 169 c 0
460 363 m 0
 460 322 486 265 560 265 c 0
 583 265 595 265 622 270 c 1
 622 310 622 354 622 390 c 0
 622 424 580 460 544 460 c 0
 498 460 460 413 460 363 c 0
694 247 m 1
 694 132 694 123 694 35 c 1
 878 35 l 1
 878 157 878 260 878 380 c 1
 823 312 768 282 694 247 c 1
EndSplineSet
Validated: 1
EndChar

StartChar: b_sa
Encoding: 3384 3384 144
Width: 1060
VWidth: 830
Flags: HW
LayerCount: 2
Fore
SplineSet
40 247 m 0
 40 440 155 500 232 500 c 0
 278 500 361 482 406 386 c 1
 424 451 487 500 554 500 c 0
 626 500 726 455 736 239 c 0
 744 67 809 30 858 30 c 0
 956 30 982 188 982 244 c 0
 982 390 896 455 896 483 c 0
 896 494 903 500 912 500 c 0
 937 500 1020 381 1020 239 c 0
 1020 154 986 -10 846 -10 c 0
 773 -10 677 29 664 235 c 0
 660 295 648 460 546 460 c 0
 448 460 436 336 436 270 c 0
 436 213 438 80 438 15 c 0
 438 0 417 -5 400 -5 c 0
 382 -5 366 1 366 15 c 0
 366 66 364 102 364 274 c 0
 364 374 294 460 226 460 c 0
 136 460 76 357 76 246 c 0
 76 90 160 32 160 7 c 0
 160 -5 153 -10 142 -10 c 0
 121 -10 40 93 40 247 c 0
EndSplineSet
Validated: 1
EndChar

StartChar: b_ha
Encoding: 3385 3385 145
Width: 1034
VWidth: 830
Flags: HW
LayerCount: 2
Fore
SplineSet
40 169 m 0
 40 253 100 358 207 358 c 0
 318 358 394 278 394 176 c 0
 394 134 382 76 347 35 c 1
 572 35 l 1
 532 80 509 177 509 237 c 0
 509 384 605 500 749 500 c 0
 895 500 994 375 994 247 c 0
 994 138 931 -10 870 -10 c 0
 859 -10 837 -6 837 12 c 0
 837 21 921 103 921 229 c 0
 921 364 838 460 740 460 c 0
 652 460 551 385 551 240 c 0
 551 107 633 23 633 6 c 0
 633 -5 620 -10 603 -10 c 0
 601 -10 573 0 560 0 c 0
 522 0 373 0 336 0 c 0
 309 0 293 -10 271 -10 c 0
 250 -10 240 -1 240 7 c 0
 240 33 324 62 324 171 c 0
 324 253 263 321 207 321 c 0
 156 321 80 274 80 172 c 0
 80 54 161 33 161 5 c 0
 161 -3 154 -9 146 -9 c 0
 109 -9 40 73 40 169 c 0
EndSplineSet
Validated: 1
EndChar

StartChar: m_aa
Encoding: 3390 3390 146
Width: 434
VWidth: 830
Flags: HW
LayerCount: 2
Fore
SplineSet
40 127 m 4
 40 139 51 146 61 146 c 4
 70 146 78 140 78 128 c 4
 78 78 137 30 200 30 c 4
 282 30 324 140 324 235 c 4
 324 347 280 460 200 460 c 4
 149 460 78 406 78 363 c 4
 78 347 64 345 60 345 c 4
 51 345 42 352 42 365 c 4
 42 389 88 500 214 500 c 4
 285 500 394 453 394 241 c 4
 394 58 302 -10 214 -10 c 4
 104 -10 40 78 40 127 c 4
EndSplineSet
Validated: 1
EndChar

StartChar: m_i
Encoding: 3391 3391 147
Width: 230
VWidth: 830
Flags: HW
LayerCount: 2
Fore
SplineSet
-153 553 m 0
 -153 622 -57 667 18 667 c 0
 162 667 190 526 190 382 c 0
 190 382 189 97 189 12 c 0
 189 0 171 -10 152 -10 c 0
 133 -10 115 -1 115 11 c 0
 115 85 114 169 114 391 c 0
 114 559 98 627 15 627 c 0
 -42 627 -114 592 -114 550 c 0
 -114 539 -121 531 -132 531 c 0
 -142 531 -153 538 -153 553 c 0
EndSplineSet
Validated: 1
EndChar

StartChar: m_ii
Encoding: 3392 3392 148
Width: 218
VWidth: 830
Flags: HW
LayerCount: 2
Fore
SplineSet
-154 583 m 0
 -154 648 -90 667 1 667 c 0
 107 667 178 603 178 401 c 0
 178 401 178 35 178 13 c 0
 178 -5 160 -10 142 -10 c 0
 123 -10 104 -4 104 13 c 0
 104 121 103 303 103 384 c 0
 103 556 83 627 29 627 c 1
 35 624 53 610 53 579 c 0
 53 523 -6 501 -52 501 c 0
 -123 501 -154 539 -154 583 c 0
-114 582 m 0
 -114 557 -78 540 -54 540 c 0
 -28 540 4 555 4 581 c 0
 4 608 -17 625 -55 625 c 0
 -83 625 -114 609 -114 582 c 0
EndSplineSet
Validated: 1
EndChar

StartChar: m_u
Encoding: 3393 3393 149
Width: 295
VWidth: 830
Flags: HW
LayerCount: 2
Fore
SplineSet
-3 -168 m 0
 -3 -34 115 -5 118 0 c 1
 126 57 145 147 145 234 c 0
 145 449 34 449 34 482 c 0
 34 492 50 500 62 500 c 0
 98 500 221 448 221 217 c 0
 221 156 212 88 191 0 c 1
 226 -17 297 -54 297 -164 c 0
 297 -284 195 -315 138 -315 c 0
 76 -315 -3 -271 -3 -168 c 0
48 -169 m 0
 48 -215 86 -269 141 -269 c 0
 192 -269 229 -225 229 -166 c 0
 229 -129 204 -65 140 -65 c 4
 62 -65 48 -148 48 -169 c 0
EndSplineSet
Validated: 1
EndChar

StartChar: m_uu
Encoding: 3394 3394 150
Width: 303
VWidth: 830
Flags: HW
LayerCount: 2
Fore
SplineSet
-2 -200 m 0
 -2 -184 11 -173 24 -173 c 0
 54 -173 45 -260 129 -260 c 0
 196 -260 228 -232 232 -162 c 1
 207 -184 188 -190 151 -190 c 0
 54 -190 33 -128 33 -93 c 0
 33 -45 71 -16 118 0 c 5
 142 125 148 182 148 226 c 0
 148 466 35 440 35 484 c 0
 35 496 53 500 62 500 c 0
 67 500 218 474 218 258 c 0
 218 204 216 106 198 0 c 1
 253 -5 305 -77 305 -158 c 0
 305 -293 202 -315 140 -315 c 0
 38 -315 -2 -233 -2 -200 c 0
87 -95 m 0
 87 -120 112 -142 145 -142 c 0
 184 -142 214 -131 214 -94 c 0
 214 -69 198 -48 154 -48 c 0
 116 -48 87 -70 87 -95 c 0
EndSplineSet
Validated: 1
EndChar

StartChar: m_r
Encoding: 3395 3395 151
Width: 294
VWidth: 830
Flags: HW
LayerCount: 2
Fore
SplineSet
-66 -147 m 0
 -66 -79 -24 -15 46 -15 c 0
 86 -15 147 -48 147 -167 c 0
 147 -194 144 -209 141 -225 c 1
 167 -204 181 -152 181 -116 c 0
 181 -20 71 149 71 342 c 0
 71 378 71 451 103 490 c 0
 108 497 124 500 136 500 c 0
 153 500 165 493 165 477 c 0
 165 455 137 412 137 332 c 0
 137 155 254 6 254 -125 c 0
 254 -239 168 -297 99 -297 c 0
 -17 -295 -66 -219 -66 -147 c 0
-24 -137 m 0
 -24 -222 75 -231 101 -231 c 1
 106 -202 109 -190 109 -164 c 0
 109 -117 96 -55 46 -55 c 0
 5 -55 -24 -97 -24 -137 c 0
EndSplineSet
Validated: 1
EndChar

StartChar: m_e
Encoding: 3398 3398 152
Width: 562
VWidth: 830
Flags: HW
LayerCount: 2
Fore
SplineSet
40 239 m 0
 40 400 147 500 280 500 c 0
 392 500 522 412 522 242 c 0
 522 117 446 -10 404 -10 c 0
 389 -10 366 -1 366 12 c 0
 366 30 452 100 452 240 c 0
 452 363 365 460 268 460 c 0
 82 460 76 232 76 232 c 1
 88 270 125 312 188 312 c 0
 280 312 330 234 330 148 c 0
 330 57 274 -10 190 -10 c 0
 130 -10 40 26 40 239 c 0
96 163 m 0
 96 61 147 30 182 30 c 0
 219 30 256 76 256 146 c 0
 256 187 241 274 178 274 c 0
 147 274 96 223 96 163 c 0
EndSplineSet
Validated: 1
EndChar

StartChar: m_ee
Encoding: 3399 3399 153
Width: 482
VWidth: 830
Flags: HW
LayerCount: 2
Fore
SplineSet
40 248 m 4
 40 368 111 500 274 500 c 4
 408 500 440 421 440 369 c 4
 440 313 402 259 340 259 c 4
 296 259 232 282 232 372 c 4
 232 430 271 449 286 461 c 5
 139 453 112 310 112 247 c 4
 112 45 276 30 276 30 c 5
 259 47 232 63 232 120 c 4
 232 166 253 229 344 229 c 4
 397 229 442 188 442 124 c 4
 442 85 425 -10 288 -10 c 4
 88 -10 40 147 40 248 c 4
282 374 m 4
 282 320 324 307 344 307 c 4
 382 307 398 349 398 379 c 4
 398 409 377 443 340 443 c 4
 316 443 282 426 282 374 c 4
282 118 m 4
 282 84 291 49 342 49 c 4
 385 49 402 90 402 124 c 4
 402 157 377 185 348 185 c 4
 314 185 282 153 282 118 c 4
EndSplineSet
Validated: 1
EndChar

StartChar: m_ai
Encoding: 3400 3400 154
Width: 1124
VWidth: 830
Flags: HW
LayerCount: 2
Fore
SplineSet
40 239 m 0
 40 400 147 500 280 500 c 0
 392 500 522 412 522 242 c 0
 522 117 446 -10 404 -10 c 0
 389 -10 366 -1 366 12 c 0
 366 30 452 100 452 240 c 0
 452 363 365 460 268 460 c 0
 82 460 76 232 76 232 c 1
 88 270 125 312 188 312 c 0
 280 312 330 234 330 148 c 0
 330 57 274 -10 190 -10 c 0
 130 -10 40 26 40 239 c 0
96 163 m 0
 96 61 147 30 182 30 c 0
 219 30 256 76 256 146 c 0
 256 187 241 274 178 274 c 0
 147 274 96 223 96 163 c 0
602 239 m 0
 602 400 709 500 842 500 c 0
 954 500 1084 412 1084 242 c 0
 1084 117 1008 -10 966 -10 c 0
 951 -10 928 -1 928 12 c 0
 928 30 1014 100 1014 240 c 0
 1014 363 927 460 830 460 c 0
 644 460 638 232 638 232 c 1
 650 270 687 312 750 312 c 0
 842 312 892 234 892 148 c 0
 892 57 836 -10 752 -10 c 0
 692 -10 602 26 602 239 c 0
658 163 m 0
 658 61 709 30 744 30 c 0
 781 30 818 76 818 146 c 0
 818 187 803 274 740 274 c 0
 709 274 658 223 658 163 c 0
EndSplineSet
Validated: 1
EndChar

StartChar: m_o
Encoding: 3402 3402 155
Width: 1046
VWidth: 830
Flags: HW
LayerCount: 2
Fore
SplineSet
38 239 m 0
 38 400 145 500 278 500 c 0
 390 500 520 412 520 242 c 0
 520 117 446 -10 404 -10 c 0
 389 -10 366 -1 366 12 c 0
 366 30 452 100 452 240 c 0
 452 363 365 460 268 460 c 0
 82 460 76 232 76 232 c 1
 88 270 123 312 186 312 c 0
 278 312 330 234 330 148 c 0
 330 57 274 -10 190 -10 c 0
 130 -10 38 26 38 239 c 0
94 163 m 0
 94 61 147 30 182 30 c 0
 219 30 256 76 256 146 c 0
 256 187 239 274 176 274 c 0
 145 274 94 223 94 163 c 0
652 127 m 0
 652 139 663 146 673 146 c 0
 682 146 690 140 690 128 c 0
 690 78 749 30 812 30 c 0
 894 30 936 140 936 235 c 0
 936 347 892 460 812 460 c 0
 761 460 690 406 690 363 c 0
 690 347 676 345 672 345 c 0
 663 345 654 352 654 365 c 0
 654 389 700 500 826 500 c 0
 897 500 1006 453 1006 241 c 0
 1006 58 914 -10 826 -10 c 0
 716 -10 652 78 652 127 c 0
EndSplineSet
Validated: 1
EndChar

StartChar: m_oo
Encoding: 3403 3403 156
Width: 962
VWidth: 830
Flags: HW
LayerCount: 2
Fore
SplineSet
38 248 m 0
 38 368 109 500 272 500 c 0
 406 500 438 421 438 369 c 0
 438 313 402 259 340 259 c 0
 296 259 230 282 230 372 c 0
 230 430 269 449 284 461 c 1
 137 453 112 310 112 247 c 0
 112 45 276 30 276 30 c 1
 259 47 230 63 230 120 c 0
 230 166 253 229 344 229 c 0
 397 229 442 188 442 124 c 0
 442 85 425 -10 288 -10 c 0
 88 -10 38 147 38 248 c 0
280 374 m 0
 280 320 322 307 342 307 c 0
 380 307 398 349 398 379 c 0
 398 409 377 443 340 443 c 0
 316 443 280 426 280 374 c 0
282 118 m 0
 282 84 289 49 340 49 c 0
 383 49 402 90 402 124 c 0
 402 157 375 185 346 185 c 0
 312 185 282 153 282 118 c 0
568 127 m 0
 568 139 579 146 589 146 c 0
 598 146 606 140 606 128 c 0
 606 78 665 30 728 30 c 0
 810 30 852 140 852 235 c 0
 852 347 808 460 728 460 c 0
 677 460 606 406 606 363 c 0
 606 347 592 345 588 345 c 0
 579 345 570 352 570 365 c 0
 570 389 616 500 742 500 c 0
 813 500 922 453 922 241 c 0
 922 58 830 -10 742 -10 c 0
 632 -10 568 78 568 127 c 0
EndSplineSet
Validated: 1
EndChar

StartChar: m_ou
Encoding: 3404 3404 157
Width: 1162
VWidth: 830
Flags: HW
LayerCount: 2
Fore
SplineSet
38 239 m 0
 38 400 145 500 278 500 c 0
 390 500 520 412 520 242 c 0
 520 117 446 -10 404 -10 c 0
 389 -10 366 -1 366 12 c 0
 366 30 452 100 452 240 c 0
 452 363 365 463 268 463 c 0
 82 463 76 232 76 232 c 1
 88 270 123 312 186 312 c 0
 278 312 330 234 330 148 c 0
 330 57 274 -10 190 -10 c 0
 130 -10 38 26 38 239 c 0
94 163 m 0
 94 61 147 28 182 28 c 0
 219 28 256 76 256 146 c 0
 256 187 239 274 176 274 c 0
 145 274 94 223 94 163 c 0
638 329 m 0
 638 395 673 500 764 500 c 0
 806 500 858 477 878 433 c 1
 900 468 927 500 978 500 c 0
 1064 500 1122 437 1122 274 c 0
 1122 57 964 -10 878 -10 c 0
 856 -10 838 -5 838 11 c 0
 838 20 839 25 856 25 c 0
 1031 25 1052 212 1052 276 c 0
 1052 332 1039 460 972 460 c 0
 952 460 908 442 908 354 c 0
 908 312 908 224 908 203 c 0
 908 187 891 182 874 182 c 0
 856 182 836 186 836 205 c 0
 836 333 836 460 760 460 c 0
 726 460 676 412 676 337 c 0
 676 262 718 211 718 191 c 0
 718 182 709 177 700 177 c 0
 662 177 638 306 638 329 c 0
EndSplineSet
Validated: 1
EndChar

StartChar: m_U
Encoding: 3405 3405 158
Width: 67
VWidth: 830
Flags: HW
LayerCount: 2
Fore
SplineSet
-111 637 m 0
 -111 649 -110 667 -78 667 c 0
 -46 667 -41 654 -41 640 c 0
 -41 555.519 20 548 35 548 c 0
 132 548 102 667 139 667 c 0
 154 667 157 655 157 646 c 4
 157 619 142 511 24 510 c 0
 -44 510 -111 566 -111 637 c 0
EndSplineSet
EndChar

StartChar: b_r_
Encoding: 3424 3424 159
Width: 721
VWidth: 830
Flags: HW
LayerCount: 2
Fore
SplineSet
40 45 m 0
 40 139 189 175 189 176 c 0
 189 180 55 216 55 336 c 0
 55 389 80 500 198 500 c 0
 269 500 334 462 334 394 c 0
 334 305 242 283 194 283 c 0
 153 283 120 303 96 331 c 1
 98 316 80 189 355 189 c 0
 605 189 628 312 628 334 c 1
 608 302 577 284 515 284 c 0
 446 284 386 330 386 389 c 0
 386 433 421 500 522 500 c 0
 636 500 664 406 664 338 c 0
 664 287 647 222 533 178 c 1
 547 172 681 135 681 44 c 0
 681 -66 564 -93 353 -93 c 0
 94 -93 40 -9 40 45 c 0
109 54 m 0
 109 11 147 -54 353 -54 c 0
 487 -54 613 -48 613 46 c 0
 613 124 481 147 356 147 c 0
 195 147 109 118 109 54 c 0
112 395 m 0
 112 360 148 321 195 321 c 0
 232 321 264 356 264 392 c 0
 264 419 241 460 190 460 c 0
 158 460 112 440 112 395 c 0
192 43 m 0
 192 95 229 122 274 122 c 0
 317 122 329 104 346 86 c 1
 358 110 381 122 415 122 c 0
 444 122 499 106 499 41 c 0
 499 5 480 -23 463 -23 c 0
 456 -23 446 -16 446 -11 c 0
 446 -2 465 10 465 46 c 0
 465 65 446 95 413 95 c 0
 392 95 363 72 363 42 c 0
 363 -9 l 0
 363 -10 360 -24 346 -24 c 0
 338 -24 329 -15 329 -8 c 0
 329 40 l 0
 322 82 291 96 282 96 c 0
 247 94 225 72 225 42 c 0
 225 20 245 1 245 -11 c 0
 245 -16 240 -22 228 -22 c 0
 211 -22 192 14 192 43 c 0
456 390 m 0
 456 345 498 321 521 321 c 0
 543 321 609 331 609 386 c 0
 609 428 554 460 524 460 c 0
 498 460 456 434 456 390 c 0
EndSplineSet
Validated: 1
EndChar

StartChar: b_n_
Encoding: 3425 3425 160
Width: 988
VWidth: 830
Flags: HW
LayerCount: 2
Fore
SplineSet
40 237 m 0
 40 417 141 500 244 500 c 0
 360 500 408 408 426 382 c 1
 431 389 475 500 604 500 c 0
 682 500 731 457 762 412 c 1
 884 401 948 283 948 130 c 0
 948 -90 828 -143 748 -143 c 0
 697 -143 602 -109 602 -75 c 0
 602 -67 610 -62 620 -62 c 0
 646 -62 664 -104 738 -104 c 0
 844 -104 880 30 880 124 c 0
 880 194 855 322 782 366 c 1
 787 352 802 295 802 213 c 0
 802 57 747 -10 670 -10 c 0
 625 -10 562 26 562 158 c 0
 562 334 675 395 692 400 c 1
 681 413 648 460 598 460 c 0
 463 460 450 314 450 231 c 0
 450 220 450 60 450 16 c 0
 450 0 434 -5 416 -5 c 0
 399 -5 380 -1 380 16 c 0
 380 37 380 44 380 230 c 0
 380 425 285 460 240 460 c 0
 145 460 72 343 72 259 c 0
 72 252 73 245 74 238 c 1
 90 273 118 316 184 316 c 0
 239 316 322 271 322 155 c 0
 322 64 269 -10 188 -10 c 0
 65 -10 40 153 40 237 c 0
94 160 m 0
 94 79 138 30 180 30 c 0
 216 30 252 79 252 150 c 0
 252 204 233 279 180 279 c 0
 131 279 94 219 94 160 c 0
596 149 m 0
 596 50 650 30 664 30 c 0
 706 30 734 119 734 218 c 0
 734 257 734 320 714 366 c 1
 645 343 596 265 596 149 c 0
EndSplineSet
Validated: 1
EndChar

StartChar: b_0
Encoding: 3430 3430 161
Width: 776
VWidth: 830
Flags: HW
LayerCount: 2
Fore
SplineSet
40 219 m 0
 40 376 158 477 272 477 c 0
 272 477 716 479 718 479 c 0
 731 478 736 469 736 461 c 0
 736 452 734 442 720 442 c 0
 468 442 333 441 288 441 c 0
 167 441 86 336 78 240 c 1
 104 299 161 327 218 327 c 0
 302 327 388 267 388 160 c 0
 388 62 311 -10 218 -10 c 0
 111 -10 40 85 40 219 c 0
96 161 m 0
 96 79 156 30 210 30 c 0
 271 30 318 86 318 154 c 0
 318 226 272 290 214 290 c 0
 178 290 96 261 96 161 c 0
EndSplineSet
Validated: 1
EndChar

StartChar: b_1
Encoding: 3431 3431 162
Width: 803
VWidth: 830
Flags: HW
LayerCount: 2
Fore
SplineSet
40 -75 m 0
 40 -28 79 45 161 45 c 0
 204 45 250 45 377 45 c 1
 377 104 376 211 376 211 c 2
 376 212 376 213 376 214 c 0
 376 450 497 500 577 500 c 0
 652 500 763 444 763 206 c 2
 763 206 763 46 763 28 c 0
 763 19 762 0 735 0 c 0
 624 0 235 0 180 0 c 0
 141 0 112 -37 112 -75 c 0
 112 -110 134 -147 190 -147 c 0
 218 -147 236 -150 247 -150 c 0
 262 -150 263 -158 263 -168 c 0
 263 -176 258 -183 248 -183 c 0
 230 -183 197 -183 181 -183 c 0
 102 -183 40 -137 40 -75 c 0
447 45 m 1
 728 45 l 1
 727 88 727 170 727 170 c 2
 726 251 722 460 585 460 c 0
 469 460 447 315 447 199 c 2
 447 199 447 77 447 45 c 1
EndSplineSet
Validated: 1
EndChar

StartChar: b_2
Encoding: 3432 3432 163
Width: 826
VWidth: 830
Flags: HW
LayerCount: 2
Fore
SplineSet
40 233 m 0
 40 341 107 500 276 500 c 0
 404 500 514 387 514 230 c 0
 514 161 493 101 454 45 c 1
 768 45 l 0
 783 45 786 32 786 23 c 0
 786 14 787 0 770 0 c 0
 574 0 536 0 482 0 c 0
 417 0 427 -10 392 -10 c 0
 365 -10 362 3 362 6 c 0
 362 30 442 93 442 229 c 0
 442 363 354 460 268 460 c 0
 192 460 78 385 78 235 c 0
 78 104 162 26 162 8 c 0
 162 -2 156 -10 146 -10 c 0
 111 -10 40 130 40 233 c 0
EndSplineSet
Validated: 1
EndChar

StartChar: b_3
Encoding: 3433 3433 164
Width: 1078
VWidth: 830
Flags: HW
LayerCount: 2
Fore
SplineSet
40 247 m 0
 40 388 113 500 230 500 c 0
 335 500 389 416 404 390 c 1
 432 448 488 500 556 500 c 4
 680 500 762 400 762 255 c 0
 762 168 730 76 706 45 c 1
 763 45 990 46 1018 46 c 0
 1030 46 1038 34 1038 23 c 0
 1038 8 1027 0 1020 0 c 0
 997 0 984 0 754 0 c 0
 681 0 674 -10 642 -10 c 0
 619 -10 612 -6 612 7 c 0
 612 37 694 99 694 249 c 0
 694 354 640 460 556 460 c 0
 490 460 428 394 428 329 c 0
 428 150 430 45 430 15 c 0
 430 -1 413 -7 396 -7 c 0
 379 -7 363 0 362 16 c 0
 361 116 363 223 348 324 c 0
 329 446 251 460 226 460 c 0
 144 460 76 370 76 257 c 0
 76 110 158 31 158 6 c 0
 158 -4 153 -9 146 -9 c 0
 118 -9 40 119 40 247 c 0
EndSplineSet
Validated: 1
EndChar

StartChar: b_4
Encoding: 3434 3434 165
Width: 646
VWidth: 830
Flags: HW
LayerCount: 2
Fore
SplineSet
40 231 m 0
 40 404 158 500 266 500 c 0
 332 500 409 456 455 399 c 1
 477 414 558 443 558 528 c 0
 558 631 444 559 444 629 c 0
 444 651 461 667 486 667 c 0
 564 666 606 610 606 537 c 0
 606 410 496 375 484 366 c 1
 501 325 512 275 512 229 c 0
 512 92 484 -10 378 -10 c 0
 314 -10 264 59 264 143 c 0
 264 217 303 303 405 365 c 1
 384 412 326 460 264 460 c 0
 189 460 76 383 76 237 c 0
 76 100 157 34 158 10 c 0
 158 -1 151 -9 142 -9 c 0
 113 -9 40 111 40 231 c 0
299 145 m 0
 299 76 348 27 367 27 c 0
 400 27 441 60 441 234 c 0
 441 272 441 295 426 329 c 1
 329 265 299 199 299 145 c 0
EndSplineSet
Validated: 1
EndChar

StartChar: b_5
Encoding: 3435 3435 166
Width: 720
VWidth: 830
Flags: HW
LayerCount: 2
Fore
SplineSet
40 224 m 0
 40 440 185 579 358 579 c 0
 429 579 680 544 680 194 c 0
 680 137 678 19 642 -49 c 0
 638 -57 627 -60 616 -60 c 0
 598 -60 578 -51 578 -33 c 0
 578 -21 610 77 610 220 c 0
 610 457 450 543 350 543 c 0
 197 543 78 396 78 233 c 0
 78 130 119 -117 322 -117 c 0
 458 -117 480 -24 480 27 c 0
 480 160 373 173 316 173 c 0
 300 173 292 182 292 191 c 0
 292 199 298 207 316 207 c 0
 355 207 464 212 464 307 c 0
 464 354 417 403 362 403 c 0
 299 403 204 356 204 213 c 0
 204 86 264 35 264 3 c 0
 264 -5 257 -10 248 -10 c 0
 215 -10 166 117 166 204 c 0
 166 338 248 440 370 440 c 0
 451 440 534 389 534 311 c 0
 534 230 457 197 448 191 c 1
 477 169 554 129 554 30 c 0
 554 -18 530 -151 328 -151 c 0
 98 -151 40 92 40 224 c 0
EndSplineSet
Validated: 1
EndChar

StartChar: b_6
Encoding: 3436 3436 167
Width: 1138
VWidth: 830
Flags: HW
LayerCount: 2
Fore
SplineSet
40 272 m 0
 40 389 107 500 230 500 c 0
 302 500 375 456 402 393 c 1
 419 427 466 500 564 500 c 0
 635 500 706 461 734 394 c 1
 761 450 822 500 890 500 c 0
 973 500 1098 446 1098 240 c 0
 1098 86 1015 -186 678 -186 c 0
 661 -186 654 -177 654 -168 c 0
 654 -159 661 -151 674 -151 c 0
 976 -151 1028 141 1028 244 c 0
 1028 370 972 460 890 460 c 0
 851 460 760 430 760 317 c 0
 760 293 762 110 762 63 c 0
 762 49 745 43 728 43 c 0
 710 43 692 50 692 64 c 0
 692 106 692 143 692 173 c 0
 692 249 692 292 688 318 c 0
 676 416 610 460 558 460 c 0
 505 460 430 416 430 316 c 0
 430 222 428 276 428 64 c 0
 428 44 410 40 394 40 c 0
 381 40 360 44 360 64 c 0
 360 150 358 262 352 319 c 0
 345 384 298 460 224 460 c 0
 142 460 78 378 78 273 c 0
 78 140 158 71 158 45 c 0
 158 35 154 28 146 28 c 0
 108 28 40 168 40 272 c 0
EndSplineSet
Validated: 1
EndChar

StartChar: b_7
Encoding: 3437 3437 168
Width: 762
VWidth: 830
Flags: HW
LayerCount: 2
Fore
SplineSet
40 238 m 0
 40 390 169 500 322 500 c 0
 544 500 722 269 722 32 c 0
 722 8 717 -10 688 -10 c 0
 653 -10 650 15 650 29 c 0
 650 238 500 460 312 460 c 0
 189 460 80 372 80 237 c 0
 80 136 151 53 260 31 c 1
 227 62 208 105 208 150 c 0
 208 234 277 306 356 306 c 0
 421 306 514 259 514 153 c 0
 514 56 464 -10 302 -10 c 0
 101 -10 40 156 40 238 c 0
246 151 m 0
 246 95 286 30 342 30 c 0
 393 30 444 76 444 153 c 0
 444 213 411 266 344 266 c 4
 285 266 246 209 246 151 c 0
EndSplineSet
Validated: 1
EndChar

StartChar: b_8
Encoding: 3438 3438 169
Width: 844
VWidth: 830
Flags: HW
LayerCount: 2
Fore
SplineSet
40 233 m 0
 40 388 147 500 270 500 c 0
 378 500 512 403 512 236 c 0
 512 201 507 132 454 45 c 1
 454 45 649 46 734 46 c 1
 734 381 734 437 734 479 c 4
 734 493 753 500 770 500 c 4
 787 500 804 492 804 480 c 4
 804 386 802 284 802 0 c 0
 802 -106 682 -257 448 -257 c 0
 351 -257 316 -231 316 -224 c 0
 316 -214 338 -206 356 -206 c 0
 374 -206 397 -221 452 -221 c 0
 590 -221 722 -130 732 0 c 1
 653 0 569 0 490 0 c 0
 416 0 430 -10 392 -10 c 0
 374 -10 360 -5 360 9 c 0
 360 29 442 91 442 235 c 0
 442 353 356 460 268 460 c 0
 164 460 76 354 76 227 c 0
 76 101 160 27 160 4 c 0
 160 -3 154 -10 140 -10 c 0
 109 -10 40 124 40 233 c 0
EndSplineSet
Validated: 1
EndChar

StartChar: b_9
Encoding: 3439 3439 170
Width: 800
VWidth: 830
Flags: HW
LayerCount: 2
Fore
SplineSet
40 238 m 0
 40 389 128 500 222 500 c 0
 294 500 374 444 402 374 c 1
 416 398 452 500 566 500 c 0
 581 500 597 498 612 494 c 1
 615 518 624 522 624 546 c 0
 624 595 584 611 554 611 c 0
 483 611 484 541 454 541 c 0
 450 541 432 547 432 569 c 0
 432 601 475 667 556 667 c 0
 632 667 660 611 660 551 c 0
 660 520 653 510 646 480 c 1
 721 450 760 343 760 214 c 0
 760 30 712 -10 640 -10 c 0
 572 -10 523 32 523 143 c 0
 523 215 545 316 596 454 c 1
 582 460 567 462 554 462 c 0
 474 462 426 349 426 297 c 0
 426 176 426 46 426 16 c 0
 426 0 411 -5 394 -5 c 0
 376 -5 358 0 358 16 c 0
 358 106 356 179 356 272 c 0
 356 354 302 464 222 464 c 0
 144 464 78 350 78 237 c 0
 78 110 160 20 160 10 c 0
 160 2 155 -10 144 -10 c 0
 111 -10 40 114 40 238 c 0
556 131 m 0
 556 72 575 30 628 30 c 0
 677 30 692 98 692 186 c 0
 692 377 649 413 628 435 c 1
 611 384 556 234 556 131 c 0
EndSplineSet
Validated: 1
EndChar

StartChar: .notdef
Encoding: 65536 -1 171
Width: 433
Flags: HW
LayerCount: 2
Fore
SplineSet
33 0 m 1
 33 667 l 1
 366 667 l 1
 366 0 l 1
 33 0 l 1
66 33 m 1
 333 33 l 1
 333 633 l 1
 66 633 l 1
 66 33 l 1
EndSplineSet
Validated: 1
EndChar

StartChar: m_R
Encoding: 65537 -1 172
Width: 55
VWidth: 830
Flags: HW
LayerCount: 2
Fore
SplineSet
546 645 m 0
 546 664 565 667 584 667 c 0
 602 667 621 663 621 645 c 0
 621 611 607 536 602 495 c 0
 600 479 593 472 585 472 c 0
 577 472 569 478 566 494 c 0
 560 531 546 594 546 645 c 0
EndSplineSet
Validated: 1
EndChar

StartChar: m_ra
Encoding: 65538 -1 173
Width: 139
VWidth: 830
Flags: HW
LayerCount: 2
Fore
SplineSet
38 69 m 0
 40 278 73 500 96 500 c 4
 106 500 118 486 118 472 c 4
 118 461 76 283 76 48 c 0
 76 -93 91 -148 172 -148 c 0
 218 -148 278 -126 304 -126 c 0
 320 -126 326 -140 326 -156 c 0
 326 -193 292 -218 164 -218 c 0
 45 -218 38 -50 38 69 c 0
EndSplineSet
Validated: 1
Ligature2: "Suruma-'pstf' Post Base Forms in Malay+AQEA-lam lookup 9 subtable" b_ra m_U
LCarets2: 1 0 
EndChar

StartChar: m_va
Encoding: 65539 -1 174
Width: 285
VWidth: 830
Flags: HW
LayerCount: 2
Fore
SplineSet
-110 -120 m 0
 -110 -111 -102 -101 -92 -101 c 0
 42 -101 122 -100 175 -100 c 1
 175 470 174 418 174 475 c 0
 174 490 193 495 211 495 c 0
 229 495 245 485 245 475 c 0
 245 -109 l 4
 245 -122 234 -135 219 -135 c 0
 188 -135 157 -135 -91 -135 c 0
 -97 -135 -110 -134 -110 -120 c 0
EndSplineSet
Validated: 1
Ligature2: "Suruma-'pstf' Post Base Forms in mlm2 lookup 10 subtable" m_U b_va
Ligature2: "Suruma-'pstf' Post Base Forms in Malay+AQEA-lam lookup 9 subtable" b_va m_U
LCarets2: 1 0 
EndChar

StartChar: c_u
Encoding: 65540 -1 175
Width: 321
VWidth: 830
Flags: HW
LayerCount: 2
Fore
SplineSet
50 -114 m 0
 50 -37 108 -4 156 -4 c 4
 244 -4 270 -82 270 -112 c 0
 270 -166 223 -225 160 -225 c 0
 93 -225 50 -179 50 -114 c 0
86 -113 m 0
 86 -170 123 -188 150 -188 c 0
 173 -188 200 -156 200 -113 c 0
 200 -66 172 -40 150 -40 c 0
 124 -40 86 -63 86 -113 c 0
EndSplineSet
Validated: 1
EndChar

StartChar: c_uu
Encoding: 65541 -1 176
Width: 353
VWidth: 830
Flags: HW
LayerCount: 2
Fore
SplineSet
35 -134 m 0
 35 -55 94 12 161 12 c 0
 249 12 317 -42 317 -134 c 0
 317 -215 260 -283 175 -283 c 0
 85 -283 35 -216 35 -134 c 0
71 -137 m 0
 71 -200 117 -246 165 -246 c 0
 181 -246 247 -229 247 -124 c 1
 224 -160 211 -179 167 -179 c 0
 95 -179 83 -102 79 -87 c 1
 73 -103 71 -120 71 -137 c 0
117 -90 m 0
 117 -121 138 -143 169 -143 c 0
 197 -143 219 -116 219 -86 c 0
 219 -72 212 -27 167 -27 c 0
 153 -27 117 -42 117 -90 c 0
EndSplineSet
Validated: 1
EndChar

StartChar: m_ya
Encoding: 65542 -1 177
Width: 293
VWidth: 830
Flags: HW
LayerCount: 2
Fore
SplineSet
-77 -120 m 0
 -77 -39 16 -39 55 5 c 0
 66 16 58 43 80 43 c 0
 89 43 101 38 101 15 c 0
 101 -51 -40 -65 -40 -121 c 0
 -40 -165 25 -194 69 -194 c 0
 149 -194 176 -117 176 -61 c 0
 176 109 72 170 72 354 c 0
 72 394 78 440 94 477 c 0
 100 493 116 500 130 500 c 0
 147 500 164 490 164 471 c 0
 164 457 145 426 145 357 c 0
 145 169 253 75 253 -55 c 0
 253 -196 145 -232 75 -232 c 0
 11 -232 -77 -200 -77 -120 c 0
EndSplineSet
Validated: 1
Ligature2: "Suruma-'pstf' Post Base Forms in mlm2 lookup 10 subtable" m_U b_ya
Ligature2: "Suruma-'pstf' Post Base Forms in Malay+AQEA-lam lookup 9 subtable" b_ya m_U
LCarets2: 1 0 
EndChar

StartChar: m_yu
Encoding: 65543 -1 178
Width: 294
VWidth: 830
Flags: HW
LayerCount: 2
Fore
SplineSet
-77 -121 m 0
 -77 -40 16 -40 55 4 c 0
 66 15 58 42 80 42 c 0
 89 42 101 37 101 14 c 0
 101 -52 -40 -66 -40 -122 c 0
 -40 -166 25 -195 69 -195 c 0
 149 -195 176 -118 176 -62 c 0
 176 108 72 169 72 353 c 0
 72 393 78 440 94 477 c 0
 100 493 116 500 130 500 c 0
 147 500 164 490 164 471 c 0
 164 457 145 425 145 356 c 0
 145 168 253 74 253 -56 c 0
 253 -197 145 -233 75 -233 c 0
 11 -233 -77 -201 -77 -121 c 0
156 -241 m 0
 156 -164 215 -131 263 -131 c 0
 351 -131 377 -209 377 -239 c 0
 377 -293 330 -352 267 -352 c 0
 200 -352 156 -306 156 -241 c 0
192 -240 m 0
 192 -297 229 -315 256 -315 c 0
 279 -315 306 -283 306 -240 c 0
 306 -193 279 -167 257 -167 c 0
 231 -167 192 -190 192 -240 c 0
EndSplineSet
Validated: 5
Ligature2: "Suruma-'psts' Post Base Substitutions in mlm2 lookup 8 subtable" m_ya m_u
Ligature2: "Suruma-'psts' Post Base Substitutions in Malay+AQEA-lam lookup 7 subtable" m_ya m_u
LCarets2: 1 0 
EndChar

StartChar: m_yuu
Encoding: 65544 -1 179
Width: 304
VWidth: 830
Flags: HW
LayerCount: 2
Fore
SplineSet
-77 -121 m 0
 -77 -40 16 -40 55 4 c 0
 66 15 58 42 80 42 c 0
 89 42 101 37 101 14 c 0
 101 -52 -40 -66 -40 -122 c 0
 -40 -166 25 -195 69 -195 c 0
 149 -195 176 -118 176 -62 c 0
 176 108 72 169 72 353 c 0
 72 393 78 440 94 477 c 0
 100 493 116 500 130 500 c 0
 147 500 164 490 164 471 c 0
 164 457 145 425 145 356 c 0
 145 168 253 74 253 -56 c 0
 253 -197 145 -233 75 -233 c 0
 11 -233 -77 -201 -77 -121 c 0
141 -278 m 0
 141 -199 201 -132 268 -132 c 0
 356 -132 424 -186 424 -278 c 0
 424 -359 366 -427 281 -427 c 0
 191 -427 141 -360 141 -278 c 0
177 -281 m 0
 177 -344 224 -390 272 -390 c 0
 288 -390 354 -373 354 -268 c 1
 331 -304 317 -323 273 -323 c 0
 201 -323 190 -246 186 -231 c 1
 180 -247 177 -264 177 -281 c 0
224 -234 m 0
 224 -265 245 -287 276 -287 c 0
 304 -287 325 -260 325 -230 c 0
 325 -216 318 -171 273 -171 c 0
 259 -171 224 -186 224 -234 c 0
EndSplineSet
Validated: 5
Ligature2: "Suruma-'psts' Post Base Substitutions in mlm2 lookup 8 subtable" m_ya m_uu
Ligature2: "Suruma-'psts' Post Base Substitutions in Malay+AQEA-lam lookup 7 subtable" m_ya m_uu
LCarets2: 1 0 
EndChar

StartChar: c_2x
Encoding: 65545 -1 180
Width: 732
VWidth: 830
Flags: HW
LayerCount: 2
Fore
SplineSet
57 -241 m 0
 57 -231 64 -221 75 -215 c 0
 224 -132 454 2 463 2 c 0
 473 2 477 -11 477 -18 c 0
 477 -24 475 -31 471 -34 c 0
 434 -56 323 -122 139 -223 c 1
 599 -223 l 1
 599 -8 l 0
 601 7 618 14 637 14 c 0
 655 14 673 7 673 -6 c 0
 673 -217 673 -212 673 -233 c 0
 673 -255 649 -260 626 -260 c 0
 564 -260 94 -261 77 -261 c 0
 66 -261 57 -254 57 -241 c 0
EndSplineSet
Validated: 1
EndChar

StartChar: m_la
Encoding: 65546 -1 181
Width: 8
VWidth: 830
Flags: HW
LayerCount: 2
Fore
SplineSet
-635 -167 m 0
 -635 -50 -528 1 -446 1 c 0
 -375 1 -299 -36 -274 -98 c 0
 -261 -130 -249 -162 -237 -194 c 0
 -225 -228 -189 -253 -152 -253 c 0
 -95 -253 -73 -196 -73 -150 c 0
 -73 -61 -145 -40 -145 -20 c 0
 -145 -12 -136 -3 -123 -3 c 0
 -96 -3 -32 -71 -32 -142 c 0
 -32 -273 -118 -294 -162 -294 c 0
 -256 -294 -283 -240 -305 -201 c 0
 -315 -183 -328 -105 -366 -73 c 0
 -391 -52 -422 -32 -456 -32 c 0
 -531 -32 -577 -100 -577 -100 c 1
 -564 -92 -542 -72 -499 -72 c 0
 -434 -72 -392 -121 -392 -184 c 0
 -392 -275 -472 -292 -515 -292 c 0
 -560 -292 -635 -262 -635 -167 c 0
-590 -183 m 0
 -590 -221 -554 -255 -516 -255 c 0
 -481 -255 -449 -224 -449 -190 c 0
 -449 -154 -478 -120 -516 -120 c 0
 -550 -120 -590 -144 -590 -183 c 0
EndSplineSet
Validated: 1
Ligature2: "Suruma-'blwf' Below Base Forms in Malay+AQEA-lam lookup 4 subtable" b_la m_U
LCarets2: 1 0 
EndChar

StartChar: c_r1
Encoding: 65547 -1 182
Width: 590
VWidth: 830
Flags: HW
LayerCount: 2
Fore
SplineSet
53 -217 m 0
 53 -164 98 -130 227 -130 c 0
 340 -130 399 -167 416 -176 c 1
 450 -117 465 -71 467 -3 c 0
 467 3 475 17 485 17 c 0
 493 17 503 8 503 -6 c 0
 503 -130 446 -308 215 -308 c 0
 131 -308 53 -295 53 -217 c 0
91 -218 m 0
 91 -250 119 -272 220 -272 c 0
 281 -272 346 -254 388 -207 c 1
 383 -197 322 -167 230 -167 c 0
 150 -167 91 -177 91 -218 c 0
EndSplineSet
Validated: 1
EndChar

StartChar: c_r2
Encoding: 65548 -1 183
Width: 601
VWidth: 830
Flags: HW
LayerCount: 2
Fore
SplineSet
43 -175 m 0
 43 -140 66 -87 199 -87 c 0
 336 -87 376 -118 406 -137 c 1
 485 -14 496 27 510 141 c 0
 512 159 513 163 529 163 c 0
 547 163 550 148 550 132 c 0
 550 64 518 -266 211 -266 c 0
 119 -266 43 -248 43 -175 c 0
81 -177 m 0
 81 -209 114 -230 209 -230 c 0
 294 -230 364 -189 378 -162 c 1
 358 -149 322 -124 211 -124 c 0
 93 -124 81 -155 81 -177 c 0
EndSplineSet
Validated: 1
EndChar

StartChar: c_ra0
Encoding: 65549 -1 184
Width: 750
VWidth: 830
Flags: HW
LayerCount: 2
Fore
SplineSet
55 230 m 0
 55 375 123 495 149 495 c 0
 159 495 164 484 164 473 c 0
 164 452 91 382 91 241 c 0
 91 61 178 -105 351 -105 c 0
 492 -105 553 -92 607 -57 c 0
 631 -40 651 -14 653 16 c 0
 654 28 660 48 672 48 c 0
 679 48 691 42 691 10 c 0
 691 -89 626 -177 374 -177 c 0
 107 -177 55 77 55 230 c 0
EndSplineSet
Validated: 1
EndChar

StartChar: c_ra1
Encoding: 65550 -1 185
Width: 775
VWidth: 830
Flags: HW
LayerCount: 2
Fore
SplineSet
55 232 m 0
 55 370 119 495 148 495 c 0
 158 495 163 486 163 475 c 0
 163 453 90 385 90 243 c 0
 90 39 194 -103 350 -103 c 0
 743 -103 608 48 684 48 c 0
 716 48 718 32 718 14 c 0
 718 -165 447 -179 379 -179 c 0
 100 -179 55 92 55 232 c 0
EndSplineSet
Validated: 1
EndChar

StartChar: c_ra2
Encoding: 65551 -1 186
Width: 1071
VWidth: 830
Flags: HW
LayerCount: 2
Fore
SplineSet
55 192 m 0
 55 373 136 464 149 464 c 0
 158 464 167 453 167 442 c 0
 167 432 93 350 93 200 c 0
 93 103 137 -211 551 -211 c 0
 713 -211 872 -210 945 -101 c 0
 962 -76 969 -44 969 -14 c 0
 969 -1 978 5 989 5 c 0
 1002 5 1013 -8 1013 -24 c 0
 1013 -126 940 -278 581 -278 c 0
 160 -278 55 4 55 192 c 0
EndSplineSet
Validated: 1
EndChar

StartChar: c_ra3
Encoding: 65552 -1 187
Width: 1083
VWidth: 830
Flags: HW
LayerCount: 2
Fore
SplineSet
55 193 m 0
 55 362 130 465 149 465 c 0
 158 465 165 453 165 441 c 0
 165 429 91 353 91 201 c 0
 91 20 223 -208 503 -208 c 0
 534 -208 569 -209 607 -209 c 0
 768 -209 969 -192 969 -13 c 1
 983 -3 997 2 1009 2 c 0
 1028 2 1041 -8 1041 -23 c 0
 1041 -25 1040 -28 1039 -31 c 1
 1039 -239 798 -276 599 -276 c 0
 563 -276 530 -275 499 -273 c 0
 259 -261 55 -86 55 193 c 0
EndSplineSet
Validated: 1
EndChar

StartChar: c_ra4
Encoding: 65553 -1 188
Width: 1178
VWidth: 830
Flags: HW
LayerCount: 2
Fore
SplineSet
55 236 m 4
 55 370 122 493 150 493 c 0
 160 493 165 482 165 470 c 0
 165 445 91 388 91 233 c 0
 91 126 171 -202 575 -202 c 0
 1086 -202 1074 -38 1085 24 c 0
 1087 36 1090 49 1097 49 c 0
 1101 49 1121 41 1121 5 c 0
 1121 -249 777 -275 609 -275 c 0
 152 -275 55 32 55 236 c 4
EndSplineSet
Validated: 1
EndChar

StartChar: c_ra5
Encoding: 65554 -1 189
Width: 1210
VWidth: 830
Flags: HW
LayerCount: 2
Fore
SplineSet
55 240 m 0
 55 365 119 498 156 498 c 0
 171 498 171 484 170 479 c 0
 164 458 91 379 91 233 c 0
 91 51 235 -200 543 -200 c 0
 953 -200 1046 -143 1073 19 c 0
 1078 49 1087 52 1100 52 c 0
 1136 52 1150 51 1150 4 c 0
 1150 -163 987 -274 566 -274 c 0
 135 -274 55 78 55 240 c 0
EndSplineSet
Validated: 1
EndChar

StartChar: c_ra6
Encoding: 65555 -1 190
Width: 1308
VWidth: 830
Flags: HW
LayerCount: 2
Fore
SplineSet
55 227 m 0
 55 395 132 495 148 495 c 0
 156 495 168 494 168 485 c 0
 168 483 167 472 166 470 c 0
 124 412 90 324 90 243 c 0
 90 1 280 -182 481 -215 c 0
 481 -215 566 -225 679 -225 c 0
 1126 -225 1210 -81 1210 16 c 0
 1210 31 1217 38 1225 38 c 0
 1236 38 1247 25 1247 9 c 0
 1247 -120 1171 -296 690 -296 c 0
 564 -296 462 -284 449 -281 c 0
 243 -236 55 -37 55 227 c 0
EndSplineSet
Validated: 1
EndChar

StartChar: c_ra7
Encoding: 65556 -1 191
Width: 1327
VWidth: 830
Flags: HW
LayerCount: 2
Fore
SplineSet
55 227 m 0
 55 395 132 495 148 495 c 0
 156 495 167 492 167 483 c 0
 167 453 90 376 90 244 c 0
 90 -1 284 -185 487 -216 c 0
 487 -216 572 -225 683 -225 c 0
 794 -225 932 -215 1037 -177 c 0
 1144 -138 1187 -72 1195 22 c 1
 1195 23 l 0
 1195 41 1213 49 1232 49 c 0
 1250 49 1267 40 1267 23 c 0
 1267 22 1267 20 1267 19 c 1
 1267 14 1268 9 1268 3 c 0
 1268 -79 1217 -193 1083 -243 c 0
 1011 -270 888 -296 677 -296 c 0
 567 -296 479 -287 449 -281 c 0
 244 -236 55 -37 55 227 c 0
EndSplineSet
Validated: 1
EndChar

StartChar: c_ra8
Encoding: 65557 -1 192
Width: 1397
VWidth: 830
Flags: HW
LayerCount: 2
Fore
SplineSet
75 231 m 0
 75 379 146 494 169 494 c 0
 180 494 185 483 185 476 c 0
 185 446 115 404 108 231 c 0
 108 196 125 -1 302 -136 c 0
 414 -221 510 -249 642 -249 c 0
 662 -249 691 -248 729 -248 c 0
 1189 -248 1282 -151 1292 -15 c 0
 1293 3 1294 10 1315 10 c 0
 1327 10 1333 1 1333 -27 c 0
 1333 -38 1332 -52 1330 -69 c 0
 1319 -176 1191 -310 776 -310 c 0
 751 -310 719 -311 682 -311 c 0
 544 -311 343 -293 203 -121 c 0
 117 -16 75 101 75 231 c 0
EndSplineSet
Validated: 1
EndChar

StartChar: c_ra9
Encoding: 65558 -1 193
Width: 1444
VWidth: 830
Flags: HW
LayerCount: 2
Fore
SplineSet
75 231 m 0
 75 379 146 494 169 494 c 0
 182 494 186 480 186 473 c 0
 186 455 117 400 110 232 c 1
 110 197 124 0 302 -135 c 0
 436 -236 537 -249 713 -249 c 0
 973 -249 1273 -212 1282 -30 c 0
 1283 -6 1288 6 1298 7 c 0
 1311 9 1319 10 1324 10 c 0
 1347 10 1350 9 1352 -10 c 1
 1350 -65 l 0
 1318 -290 973 -310 779 -310 c 0
 680 -310 667 -311 655 -311 c 0
 555 -311 343 -294 203 -121 c 0
 117 -16 75 101 75 231 c 0
EndSplineSet
Validated: 1
EndChar

StartChar: l_k_cil
Encoding: 65559 -1 194
Width: 924
VWidth: 830
Flags: HW
LayerCount: 2
Fore
SplineSet
40 137 m 0
 40 197 62 286 224 286 c 2
 272 286 l 1
 277 456 361 500 420 500 c 0
 486 500 571 467 582 286 c 1
 606 286 630 286 654 286 c 1
 683 371 740 515 740 550 c 0
 740 580 717 607 676 607 c 0
 618 607 603 541 570 541 c 0
 557 541 550 550 550 560 c 0
 550 569 571 667 678 667 c 0
 755 667 778 622 778 569 c 0
 778 473 721 395 692 287 c 1
 695 287 707 286 708 286 c 2
 864 276 884 176 884 128 c 0
 884 68 845 -10 758 -10 c 0
 678 -10 634 53 634 153 c 0
 634 185 639 217 644 248 c 1
 582 248 l 1
 581 167 572 -10 430 -10 c 0
 340 -10 319 48 316 51 c 1
 309 43 269 -10 186 -10 c 0
 105 -10 40 48 40 137 c 0
114 139 m 0
 114 100 126 30 196 30 c 0
 251 30 292 69 292 96 c 0
 292 118 276 136 272 248 c 1
 231 248 224 248 224 248 c 2
 135 246 114 189 114 139 c 0
310 248 m 1
 312 174 323 30 416 30 c 0
 454 30 509 65 512 248 c 1
 310 248 l 1
310 286 m 1
 512 286 l 1
 501 426 454 460 416 460 c 0
 331 460 316 349 310 286 c 1
672 150 m 0
 672 77 711 30 746 30 c 0
 786 30 812 101 812 146 c 0
 812 214 748 249 698 249 c 2
 698 249 685 249 684 249 c 1
 674 212 672 160 672 150 c 0
EndSplineSet
Validated: 1
Ligature2: "Suruma-'haln' Halant Forms in mlm2 lookup 12 subtable" b_ka m_U zwj
Ligature2: "Suruma-'haln' Halant Forms in Malay+AQEA-lam lookup 11 subtable" b_ka m_U zwj
Ligature2: "Suruma-'half' Half Forms in mlm2 lookup 3 subtable" b_ka m_U zwj
Ligature2: "Suruma-'half' Half Forms in Malay+AQEA-lam lookup 2 subtable" b_ka m_U zwj
Ligature2: "Suruma-'akhn' Akhand in Malay+AQEA-lam lookup lookup 0 subtable" b_ka m_U zwj
LCarets2: 2 0 0 
EndChar

StartChar: l_nh_cil
Encoding: 65560 -1 195
Width: 1201
VWidth: 830
Flags: HW
LayerCount: 2
Fore
SplineSet
40 226 m 0
 40 434 169 500 253 500 c 0
 329 500 404 451 431 379 c 1
 458 438 506 500 592 500 c 0
 668 500 747 453 771 379 c 1
 797 450 866 500 940 500 c 0
 967 500 997 492 1006 487 c 1
 1014 507 1017 524 1017 538 c 0
 1017 590 973 607 953 607 c 0
 895 607 880 541 847 541 c 0
 834 541 828 550 828 560 c 0
 828 569 848 667 955 667 c 0
 1038 667 1056 609 1056 557 c 0
 1056 515 1044 475 1044 474 c 1
 1062 454 1161 407 1161 194 c 0
 1161 84 1137 -10 1037 -10 c 0
 990 -10 918 19 918 169 c 0
 918 263 951 357 989 444 c 1
 989 444 962 460 929 460 c 0
 857 460 801 376 801 293 c 0
 801 265 801 238 801 15 c 0
 801 -1 785 -6 767 -6 c 0
 748 -6 728 -1 728 15 c 0
 728 28 728 208 728 273 c 0
 728 322 702 460 591 460 c 0
 463 460 459 302 459 224 c 0
 459 162 459 119 459 15 c 0
 459 1 440 -5 422 -5 c 0
 404 -5 387 1 387 15 c 0
 387 86 387 165 387 217 c 0
 387 445 268 460 246 460 c 0
 145 460 83 355 77 229 c 1
 92 271 135 309 193 309 c 0
 250 309 331 263 331 152 c 0
 331 57 276 -10 195 -10 c 0
 71 -10 40 130 40 226 c 0
98 154 m 0
 98 100 125 30 188 30 c 0
 241 30 261 104 261 146 c 0
 261 198 233 271 182 271 c 0
 149 271 98 229 98 154 c 0
954 160 m 0
 954 50 995 30 1023 30 c 0
 1064 30 1091 67 1091 215 c 0
 1091 385 1021 423 1021 423 c 1
 997 364 954 263 954 160 c 0
EndSplineSet
Validated: 1
Ligature2: "Suruma-'haln' Halant Forms in mlm2 lookup 12 subtable" b_nha m_U zwj
Ligature2: "Suruma-'haln' Halant Forms in Malay+AQEA-lam lookup 11 subtable" b_nha m_U zwj
Ligature2: "Suruma-'half' Half Forms in mlm2 lookup 3 subtable" b_nha m_U zwj
Ligature2: "Suruma-'half' Half Forms in Malay+AQEA-lam lookup 2 subtable" b_nha m_U zwj
Ligature2: "Suruma-'akhn' Akhand in Malay+AQEA-lam lookup lookup 0 subtable" b_nha m_U zwj
LCarets2: 2 0 0 
EndChar

StartChar: l_n_cil
Encoding: 65561 -1 196
Width: 814
VWidth: 830
Flags: HW
LayerCount: 2
Fore
SplineSet
40 243 m 0
 40 374 106 500 228 500 c 0
 274 500 375 474 408 382 c 1
 445 463 503 499 566 499 c 0
 595 499 616 496 624 492 c 1
 628 506 630 521 630 535 c 0
 630 573 613 607 568 607 c 0
 510 607 495 541 462 541 c 0
 449 541 444 550 444 560 c 0
 444 569 463 667 570 667 c 0
 644 667 672 617 672 557 c 0
 672 531 667 503 658 478 c 1
 768 426 774 280 774 211 c 0
 774 77 750 -10 654 -10 c 0
 575 -10 532 56 532 150 c 0
 532 280 583 380 608 452 c 1
 595 460 580 460 568 460 c 0
 538 460 434 455 434 255 c 0
 434 203 434 77 434 18 c 0
 434 1 418 -4 400 -4 c 0
 382 -4 364 1 364 18 c 0
 364 34 364 177 364 244 c 0
 364 430 256 460 220 460 c 0
 158 460 76 381 76 258 c 0
 76 81 160 35 160 9 c 0
 160 -1 157 -10 142 -10 c 0
 118 -10 40 114 40 243 c 0
568 155 m 0
 568 105 583 30 640 30 c 0
 666 30 706 51 706 211 c 0
 706 271 697 373 640 434 c 1
 580 288 568 211 568 155 c 0
EndSplineSet
Validated: 1
Ligature2: "Suruma-'haln' Halant Forms in mlm2 lookup 12 subtable" b_na m_U zwj
Ligature2: "Suruma-'haln' Halant Forms in Malay+AQEA-lam lookup 11 subtable" b_na m_U zwj
Ligature2: "Suruma-'half' Half Forms in mlm2 lookup 3 subtable" b_na m_U zwj
Ligature2: "Suruma-'half' Half Forms in Malay+AQEA-lam lookup 2 subtable" b_na m_U zwj
Ligature2: "Suruma-'akhn' Akhand in Malay+AQEA-lam lookup lookup 0 subtable" b_na m_U zwj
LCarets2: 2 0 0 
EndChar

StartChar: l_y_cil
Encoding: 65562 -1 197
Width: 971
VWidth: 830
Flags: HW
LayerCount: 2
Fore
SplineSet
40 293 m 0
 40 400 97 492 210 492 c 0
 279 492 320 463 346 423 c 1
 383 469 434 494 500 494 c 0
 654 494 690 358 690 291 c 0
 690 238 672 125 540 40 c 1
 560 33 584 30 608 30 c 0
 721 30 822 136 822 249 c 0
 822 401 690 433 690 537 c 0
 690 597 736 667 812 667 c 0
 882 667 932 607 932 561 c 0
 932 545 922 534 912 534 c 0
 905 534 892 538 892 551 c 0
 892 583 842 615 808 615 c 0
 763 615 734 576 734 541 c 0
 734 480 864 416 864 258 c 0
 864 115 761 -10 588 -10 c 0
 553 -10 517 -3 484 10 c 1
 443 -2 399 -10 356 -10 c 0
 191 -10 40 112 40 293 c 0
82 290 m 0
 82 162 190 30 350 30 c 0
 377 30 404 34 430 42 c 1
 236 197 340 460 202 460 c 0
 132 460 82 378 82 290 c 0
368 367 m 0
 368 319 404 134 486 71 c 1
 518 82 608 163 608 288 c 0
 608 381 557 460 484 460 c 0
 432 460 368 414 368 367 c 0
EndSplineSet
Validated: 1
LCarets2: 2 0 0 
EndChar

StartChar: l_r_cil
Encoding: 65563 -1 198
Width: 560
VWidth: 830
Flags: HW
LayerCount: 2
Fore
SplineSet
40 229 m 0
 40 454 201 500 270 500 c 0
 289 500 318 497 364 483 c 1
 368 497 374 521 374 535 c 0
 374 573 357 607 312 607 c 0
 254 607 239 541 206 541 c 0
 193 541 188 550 188 560 c 0
 188 569 207 667 314 667 c 0
 388 667 416 617 416 557 c 0
 416 531 407 492 398 467 c 1
 506 407 520 289 520 241 c 0
 520 125 518 -10 396 -10 c 0
 347 -10 274 17 274 153 c 0
 274 268 307 347 346 440 c 1
 319 453 290 460 260 460 c 0
 169 460 76 367 76 246 c 0
 76 115 162 17 162 9 c 0
 162 2 155 -10 144 -10 c 0
 104 -10 40 145 40 229 c 0
310 159 m 0
 310 53 355 30 384 30 c 0
 436 30 448 101 448 227 c 0
 448 293 429 388 378 420 c 1
 360 384 310 264 310 159 c 0
EndSplineSet
Validated: 1
Ligature2: "Suruma-'haln' Halant Forms in mlm2 lookup 12 subtable" b_ra m_U zwj
Ligature2: "Suruma-'haln' Halant Forms in Malay+AQEA-lam lookup 11 subtable" b_ra m_U zwj
Ligature2: "Suruma-'half' Half Forms in mlm2 lookup 3 subtable" b_ra m_U zwj
Ligature2: "Suruma-'half' Half Forms in Malay+AQEA-lam lookup 2 subtable" b_ra m_U zwj
Ligature2: "Suruma-'akhn' Akhand in Malay+AQEA-lam lookup lookup 0 subtable" b_ra m_U zwj
LCarets2: 2 0 0 
EndChar

StartChar: l_l_cil
Encoding: 65564 -1 199
Width: 860
VWidth: 830
Flags: HW
LayerCount: 2
Fore
SplineSet
40 239 m 0
 40 406 158 500 276 500 c 0
 319 500 366 486 392 466 c 1
 412 480 469 500 534 500 c 0
 575 500 619 492 658 471 c 1
 662 485 670 522 670 536 c 0
 670 574 655 608 610 608 c 0
 552 608 537 542 504 542 c 0
 491 542 484 551 484 561 c 0
 484 570 505 667 612 667 c 4
 686 667 712 618 712 558 c 0
 712 532 701 475 692 450 c 1
 779 397 820 295 820 196 c 0
 820 21 742 -10 690 -10 c 0
 597 -10 574 90 574 163 c 0
 574 267 603 337 638 423 c 1
 603 450 557 460 520 460 c 0
 491 460 459 453 426 439 c 1
 451 417 522 350 522 200 c 0
 522 17 438 -10 382 -10 c 0
 278 -10 252 110 252 191 c 0
 252 277 283 366 352 434 c 1
 319 458 291 460 262 460 c 0
 172 460 76 362 76 239 c 0
 76 114 164 22 164 6 c 0
 164 -2 155 -10 146 -10 c 0
 122 -10 40 105 40 239 c 0
290 205 m 0
 290 160 299 30 372 30 c 0
 436 30 452 155 452 200 c 0
 452 279 434 350 380 409 c 1
 323 354 290 282 290 205 c 0
610 147 m 0
 610 47 666 30 680 30 c 0
 741 30 748 149 748 195 c 0
 748 318 692 378 670 395 c 1
 640 332 610 229 610 147 c 0
EndSplineSet
Validated: 1
Ligature2: "Suruma-'haln' Halant Forms in mlm2 lookup 12 subtable" b_la m_U zwj
Ligature2: "Suruma-'haln' Halant Forms in Malay+AQEA-lam lookup 11 subtable" b_la m_U zwj
Ligature2: "Suruma-'half' Half Forms in mlm2 lookup 3 subtable" b_la m_U zwj
Ligature2: "Suruma-'half' Half Forms in Malay+AQEA-lam lookup 2 subtable" b_la m_U zwj
Ligature2: "Suruma-'akhn' Akhand in Malay+AQEA-lam lookup lookup 0 subtable" b_la m_U zwj
LCarets2: 2 0 0 
EndChar

StartChar: l_lh_cil
Encoding: 65565 -1 200
Width: 860
VWidth: 830
Flags: HW
LayerCount: 2
Fore
SplineSet
40 238 m 0
 40 426 195 500 226 500 c 0
 241 500 242 488 242 480 c 0
 242 457 78 423 78 243 c 0
 78 118 149 30 222 30 c 0
 279 30 353 71 364 262 c 0
 376 463 518 500 594 500 c 0
 618 500 643 495 666 486 c 1
 670 500 674 521 674 535 c 0
 674 573 659 607 614 607 c 0
 556 607 541 541 508 541 c 0
 495 541 488 550 488 560 c 0
 488 569 509 667 616 667 c 0
 690 667 716 617 716 557 c 0
 716 531 711 495 702 470 c 1
 743 439 820 363 820 201 c 0
 820 50 768 -10 692 -10 c 0
 613 -10 574 57 574 155 c 0
 574 279 604 337 650 442 c 1
 632 454 614 460 588 460 c 0
 540 460 450 415 436 260 c 0
 434 240 438 -10 232 -10 c 0
 111 -10 40 117 40 238 c 0
610 158 m 0
 610 51 652 30 680 30 c 0
 737 30 750 144 750 212 c 0
 750 333 686 411 680 417 c 1
 652 367 610 261 610 158 c 0
EndSplineSet
Ligature2: "Suruma-'haln' Halant Forms in mlm2 lookup 12 subtable" b_lha m_U zwj
Ligature2: "Suruma-'haln' Halant Forms in Malay+AQEA-lam lookup 11 subtable" b_lha m_U zwj
Ligature2: "Suruma-'half' Half Forms in mlm2 lookup 3 subtable" b_lha m_U zwj
Ligature2: "Suruma-'half' Half Forms in Malay+AQEA-lam lookup 2 subtable" b_lha m_U zwj
Ligature2: "Suruma-'akhn' Akhand in Malay+AQEA-lam lookup lookup 0 subtable" b_lha m_U zwj
LCarets2: 2 0 0 
EndChar

StartChar: l_ku
Encoding: 65566 -1 201
Width: 850
VWidth: 830
Flags: HW
LayerCount: 2
Fore
SplineSet
580 286 m 1
 720 286 l 2
 801 286 810 228 810 203 c 0
 810 177 799 152 776 140 c 1
 781 135 810 121 810 84 c 0
 810 55 791 -10 694 -10 c 0
 650 -10 608 4 608 26 c 0
 608 37 614 43 626 43 c 0
 641 43 670 30 686 30 c 0
 722 30 742 58 742 85 c 0
 742 112 730 126 706 126 c 2
 644 126 l 2
 633 126 628 132 628 143 c 128
 628 154 634 160 646 160 c 2
 706 160 l 2
 738 160 746 188 746 205 c 0
 746 236 733 250 706 250 c 2
 580 250 l 1
 579 168 572 -10 430 -10 c 0
 340 -10 319 48 316 51 c 1
 309 43 269 -10 186 -10 c 0
 105 -10 40 48 40 137 c 0
 40 197 67 286 224 286 c 2
 270 286 l 1
 275 455 361 500 422 500 c 0
 474 500 579 470 580 286 c 1
114 139 m 0
 114 100 126 30 196 30 c 0
 251 30 292 69 292 96 c 0
 292 118 274 138 270 250 c 1
 229 250 224 250 224 250 c 2
 135 250 114 189 114 139 c 0
310 250 m 1
 312 176 323 30 416 30 c 0
 454 30 507 67 510 250 c 1
 310 250 l 1
310 286 m 1
 510 286 l 1
 507 337 493 460 414 460 c 0
 335 460 311 340 310 286 c 1
EndSplineSet
Ligature2: "Suruma-'psts' Post Base Substitutions in mlm2 lookup 8 subtable" b_ka m_u
Ligature2: "Suruma-'psts' Post Base Substitutions in Malay+AQEA-lam lookup 7 subtable" b_ka m_u
LCarets2: 1 0 
EndChar

StartChar: l_kuu
Encoding: 65567 -1 202
Width: 832
VWidth: 830
Flags: HW
LayerCount: 2
Fore
SplineSet
40 134 m 0
 40 174 55 286 202 286 c 2
 202 286 247 286 268 286 c 1
 273 455 361 500 422 500 c 0
 474 500 576 471 576 286 c 1
 588 286 658 286 658 286 c 2
 719 286 792 273 792 183 c 0
 792 140 759 116 744 101 c 1
 784 74 790 35 790 17 c 0
 790 -93 719 -107 636 -107 c 0
 142 -107 439 -107 142 -107 c 0
 116 -107 92 -125 92 -145 c 0
 92 -177 123 -182 148 -182 c 0
 623 -182 216 -181 750 -181 c 0
 772 -181 774 -199 774 -216 c 0
 774 -234 774 -252 750 -252 c 0
 179 -252 266 -252 152 -252 c 0
 79 -252 52 -213 52 -160 c 0
 52 -116 73 -70 156 -70 c 0
 289 -70 471 -72 550 -72 c 0
 624 -72 722 -70 722 17 c 0
 722 85 660 86 634 86 c 0
 620 86 606 90 606 107 c 0
 606 120 618 125 632 125 c 0
 681 125 716 139 716 188 c 0
 716 207 708 248 650 248 c 2
 650 248 583 248 578 248 c 1
 575 181 577 -10 422 -10 c 0
 345 -10 320 38 306 58 c 1
 278 15 228 -10 178 -10 c 0
 95 -10 40 55 40 134 c 0
110 136 m 0
 110 101 126 30 190 30 c 0
 233 30 277 66 288 100 c 1
 283 131 270 200 270 248 c 1
 256 248 222 248 222 248 c 2
 125 248 110 177 110 136 c 0
306 248 m 1
 311 60 371 30 414 30 c 0
 470 30 506 112 508 248 c 1
 441 248 373 248 306 248 c 1
308 286 m 1
 508 286 l 1
 505 337 493 460 414 460 c 0
 335 460 309 340 308 286 c 1
EndSplineSet
Ligature2: "Suruma-'psts' Post Base Substitutions in mlm2 lookup 8 subtable" b_ka m_uu
Ligature2: "Suruma-'psts' Post Base Substitutions in Malay+AQEA-lam lookup 7 subtable" b_ka m_uu
LCarets2: 1 0 
EndChar

StartChar: l_kr
Encoding: 65568 -1 203
Width: 842
Flags: HW
LayerCount: 2
Fore
SplineSet
581 286 m 1
 595 286 614 286 614 286 c 2
 720 286 802 204 802 107 c 0
 802 -65 596 -216 382 -216 c 0
 329 -216 210 -212 210 -132 c 0
 210 -46 317 -44 405 -44 c 0
 512 -44 531 -79 573 -126 c 1
 617 -99 730 -56 730 102 c 0
 729 213 658 250 608 250 c 2
 608 250 592 250 581 250 c 1
 580 168 573 -10 431 -10 c 0
 341 -10 320 48 317 51 c 1
 310 43 269 -10 186 -10 c 0
 105 -10 40 48 40 137 c 0
 40 197 68 286 225 286 c 2
 271 286 l 1
 276 455 361 500 422 500 c 0
 474 500 580 470 581 286 c 1
114 139 m 0
 114 100 127 30 197 30 c 0
 252 30 292 69 292 96 c 0
 292 118 275 138 271 250 c 1
 230 250 225 250 225 250 c 2
 136 250 114 189 114 139 c 0
310 250 m 1
 312 176 323 30 416 30 c 0
 454 30 508 67 511 250 c 1
 310 250 l 1
310 286 m 1
 511 286 l 1
 508 337 494 460 415 460 c 0
 336 460 311 340 310 286 c 1
248 -129 m 0
 248 -159 276 -180 376 -180 c 0
 445 -180 495 -161 538 -146 c 1
 495 -87 472 -79 375 -79 c 0
 349 -79 248 -82 248 -129 c 0
EndSplineSet
Ligature2: "Suruma-'psts' Post Base Substitutions in mlm2 lookup 8 subtable" b_ka m_r
Ligature2: "Suruma-'psts' Post Base Substitutions in Malay+AQEA-lam lookup 7 subtable" b_ka m_r
LCarets2: 1 0 
EndChar

StartChar: l_kka
Encoding: 65569 -1 204
Width: 1150
VWidth: 830
Flags: HW
LayerCount: 2
Fore
SplineSet
581 286 m 1
 597 286 616 286 635 286 c 1
 643 397 743 500 865 500 c 0
 972 500 1110 416 1110 247 c 0
 1110 165 1082 83 1036 16 c 0
 1025 0 1003 -10 984 -10 c 0
 967 -10 955 -5 955 3 c 0
 955 28 1039 87 1039 235 c 0
 1039 372 955 460 858 460 c 0
 760 460 688 367 673 286 c 1
 682 286 702 286 702 286 c 2
 782 286 901 276 901 136 c 0
 901 59 847 -10 768 -10 c 0
 661 -10 634 104 633 250 c 1
 581 250 l 1
 580 168 573 -10 431 -10 c 0
 341 -10 320 48 317 51 c 1
 310 43 269 -10 186 -10 c 0
 105 -10 40 48 40 137 c 0
 40 197 68 286 225 286 c 2
 271 286 l 1
 276 455 361 500 422 500 c 0
 474 500 580 470 581 286 c 1
114 139 m 0
 114 100 127 30 197 30 c 0
 252 30 292 69 292 96 c 0
 292 118 275 138 271 250 c 1
 230 250 225 250 225 250 c 2
 136 250 114 189 114 139 c 0
310 250 m 1
 312 176 323 30 416 30 c 0
 454 30 508 67 511 250 c 1
 310 250 l 1
310 286 m 1
 511 286 l 1
 508 337 494 460 415 460 c 0
 336 460 311 340 310 286 c 1
669 250 m 1
 671 201 673 30 758 30 c 0
 813 30 828 99 828 135 c 0
 828 173 808 248 714 250 c 2
 714 250 682 250 669 250 c 1
EndSplineSet
Ligature2: "Suruma-'akhn' Akhand in mlm2 lookup 1 subtable" b_ka m_U b_ka
Ligature2: "Suruma-'akhn' Akhand in Malay+AQEA-lam lookup lookup 0 subtable" b_ka m_U b_ka
LCarets2: 2 0 0 
EndChar

StartChar: l_kku
Encoding: 65570 -1 205
Width: 1198
VWidth: 830
Flags: HW
LayerCount: 2
Fore
SplineSet
581 286 m 1
 598 286 617 286 636 286 c 1
 645 378 737 500 889 500 c 0
 991 500 1116 444 1116 340 c 0
 1116 278 1068 266 1060 260 c 1
 1060 260 1158 240 1158 138 c 0
 1158 56 1097 -10 1028 -10 c 0
 1012 -10 931 -6 931 20 c 0
 931 27 938 40 950 40 c 0
 962 40 980 30 994 30 c 0
 1040 30 1085 76 1085 136 c 0
 1085 229 987 229 949 229 c 0
 936 229 919 230 919 252 c 0
 919 264 928 275 949 275 c 0
 975 275 1041 288 1041 348 c 0
 1041 393 1004 460 893 460 c 0
 822 460 703 437 675 286 c 1
 689 286 709 286 709 286 c 2
 811 286 903 263 903 140 c 0
 903 48 836 -10 775 -10 c 0
 636 -10 633 148 633 250 c 1
 581 250 l 1
 580 168 573 -10 431 -10 c 0
 341 -10 320 48 317 51 c 1
 310 43 269 -10 186 -10 c 0
 105 -10 40 48 40 137 c 0
 40 197 68 286 225 286 c 2
 271 286 l 1
 276 455 361 500 422 500 c 0
 474 500 580 470 581 286 c 1
114 139 m 0
 114 100 127 30 197 30 c 0
 252 30 292 69 292 96 c 0
 292 118 275 138 271 250 c 1
 230 250 225 250 225 250 c 2
 136 250 114 189 114 139 c 0
310 250 m 1
 312 176 323 30 416 30 c 0
 454 30 508 67 511 250 c 1
 310 250 l 1
310 286 m 1
 511 286 l 1
 508 337 494 460 415 460 c 0
 336 460 311 340 310 286 c 1
672 250 m 1
 672 186 674 30 760 30 c 0
 771 30 830 35 830 139 c 0
 830 197 810 246 716 250 c 2
 716 250 690 250 672 250 c 1
EndSplineSet
Ligature2: "Suruma-'psts' Post Base Substitutions in mlm2 lookup 8 subtable" l_kka m_u
Ligature2: "Suruma-'psts' Post Base Substitutions in Malay+AQEA-lam lookup 7 subtable" l_kka m_u
LCarets2: 1 0 
EndChar

StartChar: l_kkuu
Encoding: 65571 -1 206
Width: 1193
VWidth: 830
Flags: HW
LayerCount: 2
Fore
SplineSet
581 286 m 1
 598 286 617 286 636 286 c 1
 645 377 735 498 886 498 c 0
 1009 498 1111 423 1111 327 c 0
 1111 283 1088 238 1048 219 c 1
 1113 195 1153 127 1153 59 c 0
 1153 -47 1059 -124 951 -124 c 0
 870 -124 790 -123 139 -123 c 0
 115 -123 92 -145 92 -166 c 0
 92 -183 111 -209 165 -209 c 0
 165 -209 808 -208 1118 -208 c 0
 1139 -208 1147 -224 1147 -241 c 0
 1147 -259 1142 -277 1118 -277 c 0
 721 -277 521 -275 131 -275 c 0
 86 -275 48 -226 48 -180 c 0
 48 -101 116 -85 180 -85 c 0
 248 -85 646 -87 918 -87 c 0
 957 -87 1082 -57 1082 68 c 0
 1082 192 988 197 939 197 c 0
 927 197 917 208 917 217 c 0
 917 226 927 236 936 236 c 0
 945 236 1037 236 1037 330 c 0
 1037 388 967 460 895 460 c 0
 829 460 703 437 675 286 c 1
 689 286 709 286 709 286 c 2
 816 286 903 263 903 140 c 0
 903 48 836 -10 775 -10 c 0
 636 -10 633 148 633 250 c 1
 581 250 l 1
 580 168 573 -10 431 -10 c 0
 341 -10 320 48 317 51 c 1
 310 43 269 -10 186 -10 c 0
 105 -10 40 48 40 137 c 0
 40 197 68 286 225 286 c 2
 271 286 l 1
 276 455 361 500 422 500 c 0
 474 500 580 470 581 286 c 1
114 139 m 0
 114 100 127 30 197 30 c 0
 252 30 292 69 292 96 c 0
 292 118 275 138 271 250 c 1
 230 250 225 250 225 250 c 2
 136 250 114 189 114 139 c 0
310 250 m 1
 312 176 323 30 416 30 c 0
 454 30 508 67 511 250 c 1
 310 250 l 1
310 286 m 1
 511 286 l 1
 508 337 494 460 415 460 c 0
 336 460 311 340 310 286 c 1
672 250 m 1
 672 186 674 30 760 30 c 0
 771 30 830 35 830 139 c 0
 830 197 810 250 716 250 c 2
 716 250 690 250 672 250 c 1
EndSplineSet
Ligature2: "Suruma-'psts' Post Base Substitutions in mlm2 lookup 8 subtable" l_kka m_uu
Ligature2: "Suruma-'psts' Post Base Substitutions in Malay+AQEA-lam lookup 7 subtable" l_kka m_uu
LCarets2: 1 0 
EndChar

StartChar: l_kTa
Encoding: 65572 -1 207
Width: 838
VWidth: 830
Flags: HW
LayerCount: 2
Fore
SplineSet
40 137 m 0
 40 197 67 286 224 286 c 2
 270 286 l 1
 275 455 361 500 422 500 c 0
 474 500 579 470 580 286 c 1
 592 286 632 286 632 286 c 2
 703 286 798 256 798 133 c 0
 798 45 727 -9 662 -9 c 0
 603 -9 596 26 596 34 c 0
 596 41 599 47 610 47 c 0
 632 47 636 30 652 30 c 0
 681 30 724 69 724 135 c 0
 724 234 654 250 620 250 c 2
 620 250 610 250 580 250 c 1
 579 168 572 -10 430 -10 c 0
 340 -10 319 48 316 51 c 1
 309 43 269 -10 186 -10 c 0
 105 -10 40 48 40 137 c 0
114 139 m 0
 114 100 126 30 196 30 c 0
 251 30 292 69 292 96 c 0
 292 118 274 138 270 250 c 1
 229 250 224 250 224 250 c 2
 135 250 114 189 114 139 c 0
286 -89 m 0
 286 -42 341 -1 418 -1 c 0
 502 -2 556 -43 556 -62 c 0
 556 -75 545 -82 536 -82 c 0
 518 -82 500 -34 420 -34 c 0
 386 -34 326 -50 326 -89 c 0
 326 -171 556 -82 556 -233 c 0
 556 -304 467 -323 422 -323 c 0
 349 -323 286 -279 286 -262 c 0
 286 -250 295 -243 304 -243 c 0
 328 -243 346 -283 424 -283 c 0
 456 -283 520 -273 520 -231 c 0
 520 -154 286 -247 286 -89 c 0
310 250 m 1
 312 176 323 30 416 30 c 0
 454 30 507 67 510 250 c 1
 310 250 l 1
310 286 m 1
 510 286 l 1
 507 337 493 460 414 460 c 0
 335 460 311 340 310 286 c 1
EndSplineSet
Ligature2: "Suruma-'akhn' Akhand in mlm2 lookup 1 subtable" b_ka m_U b_Ta
Ligature2: "Suruma-'akhn' Akhand in Malay+AQEA-lam lookup lookup 0 subtable" b_ka m_U b_Ta
LCarets2: 2 0 0 
EndChar

StartChar: l_kTu
Encoding: 65573 -1 208
Width: 838
VWidth: 830
Flags: HW
LayerCount: 2
Fore
SplineSet
40 137 m 0
 40 197 67 286 224 286 c 2
 270 286 l 1
 275 455 361 500 422 500 c 0
 474 500 579 470 580 286 c 1
 592 286 632 286 632 286 c 2
 703 286 798 256 798 133 c 0
 798 45 727 -9 662 -9 c 0
 603 -9 596 26 596 34 c 0
 596 41 599 47 610 47 c 0
 632 47 636 30 652 30 c 0
 681 30 724 69 724 135 c 0
 724 234 654 250 620 250 c 2
 620 250 610 250 580 250 c 1
 579 168 572 -10 430 -10 c 0
 340 -10 319 48 316 51 c 1
 309 43 269 -10 186 -10 c 0
 105 -10 40 48 40 137 c 0
114 139 m 0
 114 100 126 30 196 30 c 0
 251 30 292 69 292 96 c 0
 292 118 274 138 270 250 c 1
 229 250 224 250 224 250 c 2
 135 250 114 189 114 139 c 0
286 -89 m 0
 286 -42 341 -1 418 -1 c 0
 502 -2 556 -43 556 -62 c 0
 556 -75 545 -82 536 -82 c 0
 518 -82 500 -34 420 -34 c 0
 386 -34 326 -50 326 -89 c 0
 326 -171 556 -82 556 -233 c 0
 556 -304 467 -323 422 -323 c 0
 349 -323 286 -279 286 -262 c 0
 286 -250 295 -243 304 -243 c 0
 328 -243 346 -283 424 -283 c 0
 456 -283 520 -273 520 -231 c 0
 520 -154 286 -247 286 -89 c 0
310 250 m 1
 312 176 323 30 416 30 c 0
 454 30 507 67 510 250 c 1
 310 250 l 1
310 286 m 1
 510 286 l 1
 507 337 493 460 414 460 c 0
 335 460 311 340 310 286 c 1
432 -371 m 0
 432 -294 490 -261 538 -261 c 0
 626 -261 652 -339 652 -369 c 0
 652 -423 605 -482 542 -482 c 0
 475 -482 432 -436 432 -371 c 0
468 -370 m 0
 468 -427 505 -445 532 -445 c 0
 555 -445 582 -413 582 -370 c 0
 582 -323 554 -297 532 -297 c 0
 506 -297 468 -320 468 -370 c 0
EndSplineSet
Ligature2: "Suruma-'psts' Post Base Substitutions in mlm2 lookup 8 subtable" l_kTa m_u
Ligature2: "Suruma-'psts' Post Base Substitutions in Malay+AQEA-lam lookup 7 subtable" l_kTa m_u
LCarets2: 1 0 
EndChar

StartChar: l_kTuu
Encoding: 65574 -1 209
Width: 838
VWidth: 830
Flags: HW
LayerCount: 2
Fore
SplineSet
40 137 m 0
 40 197 67 286 224 286 c 2
 270 286 l 1
 275 455 361 500 422 500 c 0
 474 500 579 470 580 286 c 1
 592 286 632 286 632 286 c 2
 703 286 798 256 798 133 c 0
 798 45 727 -9 662 -9 c 0
 603 -9 596 26 596 34 c 0
 596 41 599 47 610 47 c 0
 632 47 636 30 652 30 c 0
 681 30 724 69 724 135 c 0
 724 234 654 250 620 250 c 2
 620 250 610 250 580 250 c 1
 579 168 572 -10 430 -10 c 0
 340 -10 319 48 316 51 c 1
 309 43 269 -10 186 -10 c 0
 105 -10 40 48 40 137 c 0
114 139 m 0
 114 100 126 30 196 30 c 0
 251 30 292 69 292 96 c 0
 292 118 274 138 270 250 c 1
 229 250 224 250 224 250 c 2
 135 250 114 189 114 139 c 0
286 -89 m 0
 286 -42 341 -1 418 -1 c 0
 502 -2 556 -43 556 -62 c 0
 556 -75 545 -82 536 -82 c 0
 518 -82 500 -34 420 -34 c 0
 386 -34 326 -50 326 -89 c 0
 326 -171 556 -82 556 -233 c 0
 556 -304 467 -323 422 -323 c 0
 349 -323 286 -279 286 -262 c 0
 286 -250 295 -243 304 -243 c 0
 328 -243 346 -283 424 -283 c 0
 456 -283 520 -273 520 -231 c 0
 520 -154 286 -247 286 -89 c 0
310 250 m 1
 312 176 323 30 416 30 c 0
 454 30 507 67 510 250 c 1
 310 250 l 1
310 286 m 1
 510 286 l 1
 507 337 493 460 414 460 c 0
 335 460 311 340 310 286 c 1
406 -408 m 4
 406 -329 467 -262 534 -262 c 4
 622 -262 690 -316 690 -408 c 4
 690 -489 631 -557 546 -557 c 4
 456 -557 406 -490 406 -408 c 4
442 -411 m 4
 442 -474 490 -520 538 -520 c 4
 554 -520 620 -503 620 -398 c 5
 597 -434 582 -453 538 -453 c 4
 466 -453 456 -376 452 -361 c 5
 446 -377 442 -394 442 -411 c 4
490 -364 m 4
 490 -395 511 -417 542 -417 c 4
 570 -417 590 -390 590 -360 c 4
 590 -346 583 -301 538 -301 c 4
 524 -301 490 -316 490 -364 c 4
EndSplineSet
Ligature2: "Suruma-'psts' Post Base Substitutions in mlm2 lookup 8 subtable" l_kTa m_uu
Ligature2: "Suruma-'psts' Post Base Substitutions in Malay+AQEA-lam lookup 7 subtable" l_kTa m_uu
LCarets2: 1 0 
EndChar

StartChar: l_kTr
Encoding: 65575 -1 210
Width: 838
VWidth: 830
Flags: HW
LayerCount: 2
Fore
SplineSet
40 137 m 0
 40 197 67 286 224 286 c 2
 270 286 l 1
 275 455 361 500 422 500 c 0
 474 500 579 470 580 286 c 1
 592 286 632 286 632 286 c 2
 703 286 798 256 798 133 c 0
 798 45 727 -9 662 -9 c 0
 603 -9 596 26 596 34 c 0
 596 41 599 47 610 47 c 0
 632 47 636 30 652 30 c 0
 681 30 724 69 724 135 c 0
 724 234 654 250 620 250 c 2
 620 250 610 250 580 250 c 1
 579 168 572 -10 430 -10 c 0
 340 -10 319 48 316 51 c 1
 309 43 269 -10 186 -10 c 0
 105 -10 40 48 40 137 c 0
114 139 m 0
 114 100 126 30 196 30 c 0
 251 30 292 69 292 96 c 0
 292 118 274 138 270 250 c 1
 229 250 224 250 224 250 c 2
 135 250 114 189 114 139 c 0
268 -360 m 0
 268 -303 340 -299 384 -299 c 0
 431 -299 472 -316 486 -322 c 1
 502 -303 514 -269 514 -247 c 0
 514 -169 286 -245 286 -87 c 0
 286 -40 341 0 418 0 c 0
 509 -1 551 -42 554 -58 c 0
 554 -59 554 -60 554 -61 c 0
 554 -76 543 -80 536 -80 c 0
 522 -80 495 -39 418 -39 c 0
 384 -39 324 -49 324 -88 c 0
 324 -171 560 -99 560 -250 c 0
 560 -284 534 -421 372 -421 c 0
 319 -421 268 -411 268 -360 c 0
306 -361 m 0
 306 -381 349 -384 374 -384 c 0
 428 -384 453 -364 462 -354 c 1
 448 -346 429 -336 380 -336 c 0
 342 -336 306 -341 306 -361 c 0
310 250 m 1
 312 176 323 30 416 30 c 0
 454 30 507 67 510 250 c 1
 310 250 l 1
310 286 m 1
 510 286 l 1
 507 337 493 460 414 460 c 0
 335 460 311 340 310 286 c 1
EndSplineSet
Ligature2: "Suruma-'psts' Post Base Substitutions in mlm2 lookup 8 subtable" l_kTa m_r
Ligature2: "Suruma-'psts' Post Base Substitutions in Malay+AQEA-lam lookup 7 subtable" l_kTa m_r
LCarets2: 1 0 
EndChar

StartChar: l_kTra
Encoding: 65576 -1 211
Width: 838
VWidth: 830
Flags: HW
LayerCount: 2
Fore
SplineSet
40 137 m 0
 40 197 67 286 224 286 c 2
 270 286 l 1
 275 455 361 500 422 500 c 4
 474 500 579 470 580 286 c 1
 592 286 632 286 632 286 c 2
 703 286 798 256 798 133 c 0
 798 45 727 -9 662 -9 c 0
 603 -9 596 26 596 34 c 0
 596 41 599 47 610 47 c 0
 632 47 636 30 652 30 c 0
 681 30 724 69 724 135 c 0
 724 234 654 250 620 250 c 2
 620 250 610 250 580 250 c 1
 579 168 572 -10 430 -10 c 0
 340 -10 319 48 316 51 c 1
 309 43 269 -10 186 -10 c 0
 105 -10 40 48 40 137 c 0
114 139 m 0
 114 100 126 30 196 30 c 0
 251 30 292 69 292 96 c 0
 292 118 274 138 270 250 c 1
 229 250 224 250 224 250 c 2
 135 250 114 189 114 139 c 0
204 -127 m 0
 204 -98 223 -7 250 -7 c 0
 262 -7 268 -15 268 -27 c 0
 268 -40 242 -82 242 -130 c 0
 242 -222 307 -284 404 -284 c 0
 491 -284 514 -253 514 -230 c 0
 514 -153 282 -246 282 -88 c 0
 282 -41 337 0 414 0 c 0
 506 -1 550 -49 550 -61 c 0
 550 -80 541 -80 528 -80 c 0
 513 -80 488 -40 414 -40 c 0
 380 -40 320 -49 320 -88 c 0
 320 -170 552 -80 552 -231 c 0
 552 -313 458 -322 392 -322 c 0
 272 -322 204 -224 204 -127 c 0
310 250 m 1
 312 176 323 30 416 30 c 0
 454 30 507 67 510 250 c 1
 310 250 l 1
310 286 m 1
 510 286 l 1
 507 337 493 460 414 460 c 0
 335 460 311 340 310 286 c 1
EndSplineSet
Ligature2: "Suruma-'pres' Pre Base Substitutions in Malay+AQEA-lam lookup 6 subtable" l_kTa m_U b_ra
Ligature2: "Suruma-'pres' Pre Base Substitutions in Malay+AQEA-lam lookup 6 subtable" l_kTa m_ra
Ligature2: "Suruma-'akhn' Akhand in mlm2 lookup 1 subtable" b_ka m_U b_Ta m_U b_ra
LCarets2: 2 0 0 
EndChar

StartChar: l_kTru
Encoding: 65577 -1 212
Width: 838
VWidth: 830
Flags: HW
LayerCount: 2
Fore
SplineSet
40 137 m 0
 40 197 67 286 224 286 c 2
 270 286 l 1
 275 455 361 500 422 500 c 0
 474 500 579 470 580 286 c 1
 592 286 632 286 632 286 c 2
 703 286 798 256 798 133 c 0
 798 45 727 -9 662 -9 c 0
 603 -9 596 26 596 34 c 0
 596 41 599 47 610 47 c 0
 632 47 636 30 652 30 c 0
 681 30 724 69 724 135 c 0
 724 234 654 250 620 250 c 2
 620 250 610 250 580 250 c 1
 579 168 572 -10 430 -10 c 0
 340 -10 319 48 316 51 c 1
 309 43 269 -10 186 -10 c 0
 105 -10 40 48 40 137 c 0
114 139 m 0
 114 100 126 30 196 30 c 0
 251 30 292 69 292 96 c 0
 292 118 274 138 270 250 c 1
 229 250 224 250 224 250 c 2
 135 250 114 189 114 139 c 0
204 -127 m 0
 204 -98 223 -7 250 -7 c 0
 262 -7 268 -15 268 -27 c 0
 268 -40 242 -82 242 -130 c 0
 242 -222 307 -284 404 -284 c 0
 491 -284 514 -253 514 -230 c 0
 514 -153 282 -246 282 -88 c 0
 282 -41 337 0 414 0 c 0
 506 -1 550 -49 550 -61 c 0
 550 -80 541 -80 528 -80 c 0
 513 -80 488 -40 414 -40 c 0
 380 -40 320 -49 320 -88 c 0
 320 -170 552 -80 552 -231 c 0
 552 -313 458 -322 392 -322 c 0
 272 -322 204 -224 204 -127 c 0
310 250 m 1
 312 176 323 30 416 30 c 0
 454 30 507 67 510 250 c 1
 310 250 l 1
310 286 m 1
 510 286 l 1
 507 337 493 460 414 460 c 0
 335 460 311 340 310 286 c 1
412 -375 m 0
 412 -298 470 -265 518 -265 c 0
 606 -265 632 -343 632 -373 c 0
 632 -427 585 -486 522 -486 c 0
 455 -486 412 -440 412 -375 c 0
448 -374 m 0
 448 -431 485 -449 512 -449 c 0
 535 -449 562 -417 562 -374 c 0
 562 -327 534 -301 512 -301 c 0
 486 -301 448 -324 448 -374 c 0
EndSplineSet
Ligature2: "Suruma-'psts' Post Base Substitutions in mlm2 lookup 8 subtable" l_kTra m_u
Ligature2: "Suruma-'psts' Post Base Substitutions in Malay+AQEA-lam lookup 7 subtable" l_kTra m_u
LCarets2: 1 0 
EndChar

StartChar: l_kTruu
Encoding: 65578 -1 213
Width: 838
VWidth: 830
Flags: HW
LayerCount: 2
Fore
SplineSet
40 137 m 0
 40 197 67 286 224 286 c 2
 270 286 l 1
 275 455 361 500 422 500 c 0
 474 500 579 470 580 286 c 1
 592 286 632 286 632 286 c 2
 703 286 798 256 798 133 c 0
 798 45 727 -9 662 -9 c 0
 603 -9 596 26 596 34 c 0
 596 41 599 47 610 47 c 0
 632 47 636 30 652 30 c 0
 681 30 724 69 724 135 c 0
 724 234 654 250 620 250 c 2
 620 250 610 250 580 250 c 1
 579 168 572 -10 430 -10 c 0
 340 -10 319 48 316 51 c 1
 309 43 269 -10 186 -10 c 0
 105 -10 40 48 40 137 c 0
114 139 m 0
 114 100 126 30 196 30 c 0
 251 30 292 69 292 96 c 0
 292 118 274 138 270 250 c 1
 229 250 224 250 224 250 c 2
 135 250 114 189 114 139 c 0
204 -127 m 0
 204 -98 223 -7 250 -7 c 0
 262 -7 268 -15 268 -27 c 0
 268 -40 242 -82 242 -130 c 0
 242 -222 307 -284 404 -284 c 0
 491 -284 514 -253 514 -230 c 0
 514 -153 282 -246 282 -88 c 0
 282 -41 337 0 414 0 c 0
 506 -1 550 -49 550 -61 c 0
 550 -80 541 -80 528 -80 c 0
 513 -80 488 -40 414 -40 c 0
 380 -40 320 -49 320 -88 c 0
 320 -170 552 -80 552 -231 c 0
 552 -313 458 -322 392 -322 c 0
 272 -322 204 -224 204 -127 c 0
310 250 m 1
 312 176 323 30 416 30 c 0
 454 30 507 67 510 250 c 1
 310 250 l 1
310 286 m 1
 510 286 l 1
 507 337 493 460 414 460 c 0
 335 460 311 340 310 286 c 1
398 -406 m 4
 398 -327 457 -260 524 -260 c 4
 612 -260 680 -314 680 -406 c 4
 680 -487 623 -555 538 -555 c 4
 448 -555 398 -488 398 -406 c 4
434 -409 m 4
 434 -472 480 -518 528 -518 c 4
 544 -518 610 -501 610 -396 c 5
 587 -432 574 -451 530 -451 c 4
 458 -451 446 -374 442 -359 c 5
 436 -375 434 -392 434 -409 c 4
480 -362 m 4
 480 -393 501 -415 532 -415 c 4
 560 -415 582 -388 582 -358 c 4
 582 -344 575 -299 530 -299 c 4
 516 -299 480 -314 480 -362 c 4
EndSplineSet
Ligature2: "Suruma-'psts' Post Base Substitutions in mlm2 lookup 8 subtable" l_kTra m_uu
Ligature2: "Suruma-'psts' Post Base Substitutions in Malay+AQEA-lam lookup 7 subtable" l_kTra m_uu
LCarets2: 1 0 
EndChar

StartChar: l_knha
Encoding: 65579 -1 214
Width: 838
VWidth: 830
Flags: HW
LayerCount: 2
Fore
SplineSet
40 137 m 0
 40 197 67 286 224 286 c 2
 270 286 l 1
 275 455 361 500 422 500 c 0
 474 500 579 470 580 286 c 1
 592 286 632 286 632 286 c 2
 703 286 798 256 798 133 c 0
 798 45 727 -9 662 -9 c 0
 603 -9 596 26 596 34 c 0
 596 41 599 47 610 47 c 0
 632 47 636 30 652 30 c 0
 681 30 724 69 724 135 c 0
 724 234 654 250 620 250 c 2
 620 250 610 250 580 250 c 1
 579 168 572 -10 430 -10 c 0
 340 -10 319 48 316 51 c 1
 309 43 269 -10 186 -10 c 0
 105 -10 40 48 40 137 c 0
66 -173 m 0
 66 -44 148 -1 202 -1 c 0
 245 -1 287 -26 308 -64 c 1
 333 -20 368 -1 406 -1 c 0
 448 -1 491 -24 512 -63 c 1
 528 -31 557 -1 612 -1 c 0
 675 -1 756 -53 756 -155 c 0
 756 -205 737 -252 716 -295 c 0
 708 -311 691 -323 674 -323 c 1
 659 -322 650 -315 650 -306 c 0
 650 -289 700 -243 700 -166 c 0
 700 -84 650 -41 608 -41 c 0
 564 -41 538 -91 538 -138 c 2
 538 -300 l 0
 537 -315 523 -321 510 -321 c 0
 495 -321 480 -313 480 -300 c 0
 480 -176 l 2
 480 -105 464 -41 404 -41 c 0
 360 -41 332 -88 332 -130 c 2
 332 -300 l 0
 330 -314 320 -320 306 -320 c 0
 292 -320 274 -313 274 -300 c 0
 274 -179 l 2
 274 -48 208 -41 198 -41 c 0
 150 -41 119 -83 108 -140 c 1
 122 -126 142 -116 166 -116 c 0
 204 -116 256 -147 256 -218 c 0
 256 -279 221 -323 168 -323 c 0
 88 -323 66 -233 66 -173 c 0
114 139 m 0
 114 100 126 30 196 30 c 0
 251 30 292 69 292 96 c 0
 292 118 274 138 270 250 c 1
 229 250 224 250 224 250 c 2
 135 250 114 189 114 139 c 0
116 -217 m 0
 116 -248 130 -283 162 -283 c 0
 187 -283 200 -246 200 -221 c 0
 200 -191 184 -154 160 -154 c 0
 146 -154 116 -174 116 -217 c 0
310 250 m 1
 312 176 323 30 416 30 c 0
 454 30 507 67 510 250 c 1
 310 250 l 1
310 286 m 1
 510 286 l 1
 507 337 493 460 414 460 c 0
 335 460 311 340 310 286 c 1
EndSplineSet
Ligature2: "Suruma-'akhn' Akhand in mlm2 lookup 1 subtable" b_ka m_U b_nha
Ligature2: "Suruma-'akhn' Akhand in Malay+AQEA-lam lookup lookup 0 subtable" b_ka m_U b_nha
LCarets2: 2 0 0 
EndChar

StartChar: l_knhu
Encoding: 65580 -1 215
Width: 838
VWidth: 830
Flags: HW
LayerCount: 2
Fore
SplineSet
40 137 m 0
 40 197 67 286 224 286 c 2
 270 286 l 1
 275 455 361 500 422 500 c 0
 474 500 579 470 580 286 c 1
 592 286 632 286 632 286 c 2
 703 286 798 256 798 133 c 0
 798 45 727 -9 662 -9 c 0
 603 -9 596 26 596 34 c 0
 596 41 599 47 610 47 c 0
 632 47 636 30 652 30 c 0
 681 30 724 69 724 135 c 0
 724 234 654 250 620 250 c 2
 620 250 610 250 580 250 c 1
 579 168 572 -10 430 -10 c 0
 340 -10 319 48 316 51 c 1
 309 43 269 -10 186 -10 c 0
 105 -10 40 48 40 137 c 0
80 -169 m 0
 80 -52 157 0 214 0 c 0
 256 0 300 -24 322 -62 c 1
 337 -34 368 0 420 0 c 0
 478 0 512 -42 526 -63 c 1
 538 -41 569 0 632 0 c 0
 668 0 770 -20 770 -178 c 0
 770 -281 733 -322 680 -322 c 0
 622 -322 608 -267 608 -208 c 0
 609 -123 663 -84 684 -70 c 1
 672 -55 650 -40 622 -40 c 0
 580 -40 550 -86 550 -141 c 0
 550 -172 552 -204 552 -297 c 0
 552 -313 538 -316 524 -316 c 0
 509 -316 492 -311 492 -297 c 0
 492 -244 492 -191 492 -138 c 0
 492 -69 444 -40 418 -40 c 0
 405 -40 346 -51 346 -126 c 2
 346 -298 l 2
 346 -313 332 -317 318 -317 c 0
 303 -317 288 -312 288 -298 c 0
 288 -234 290 -156 290 -128 c 0
 290 -82 241 -40 210 -40 c 0
 159 -40 131 -97 122 -141 c 1
 134 -128 152 -116 178 -116 c 0
 223 -116 268 -152 268 -221 c 0
 268 -282 232 -322 176 -322 c 0
 99 -322 80 -227 80 -169 c 0
114 139 m 0
 114 100 126 30 196 30 c 0
 251 30 292 69 292 96 c 0
 292 118 274 138 270 250 c 1
 229 250 224 250 224 250 c 2
 135 250 114 189 114 139 c 0
130 -221 m 0
 130 -266 157 -282 172 -282 c 0
 196 -282 212 -252 212 -216 c 0
 212 -178 189 -152 174 -152 c 0
 159 -152 130 -172 130 -221 c 0
310 250 m 1
 312 176 323 30 416 30 c 0
 454 30 507 67 510 250 c 1
 310 250 l 1
310 286 m 1
 510 286 l 1
 507 337 493 460 414 460 c 0
 335 460 311 340 310 286 c 1
644 -204 m 0
 644 -239 650 -282 672 -282 c 0
 694 -282 712 -263 712 -175 c 0
 712 -152 709 -129 700 -106 c 1
 652 -136 644 -181 644 -204 c 0
EndSplineSet
Ligature2: "Suruma-'psts' Post Base Substitutions in mlm2 lookup 8 subtable" l_knha m_u
Ligature2: "Suruma-'psts' Post Base Substitutions in Malay+AQEA-lam lookup 7 subtable" l_knha m_u
LCarets2: 1 0 
EndChar

StartChar: l_knhuu
Encoding: 65581 -1 216
Width: 845
VWidth: 830
Flags: HW
LayerCount: 2
Fore
SplineSet
40 137 m 0
 40 197 67 286 224 286 c 2
 270 286 l 1
 275 455 361 500 422 500 c 0
 474 500 579 470 580 286 c 1
 592 286 632 286 632 286 c 2
 703 286 798 256 798 133 c 0
 798 45 727 -9 662 -9 c 0
 603 -9 596 26 596 34 c 0
 596 41 599 47 610 47 c 0
 632 47 636 30 652 30 c 0
 681 30 724 69 724 135 c 0
 724 234 654 250 620 250 c 2
 620 250 610 250 580 250 c 1
 579 168 572 -10 430 -10 c 0
 340 -10 319 48 316 51 c 1
 309 43 269 -10 186 -10 c 0
 105 -10 40 48 40 137 c 0
74 -169 m 0
 74 -52 149 0 206 0 c 0
 248 0 294 -24 316 -62 c 1
 331 -34 362 0 414 0 c 0
 472 0 506 -42 520 -63 c 1
 532 -41 561 0 624 0 c 0
 647 0 699 -7 732 -55 c 1
 850 -71 854 -191 854 -233 c 0
 854 -338 801 -408 722 -408 c 0
 642 -407 626 -370 626 -359 c 0
 626 -351 633 -342 644 -342 c 0
 666 -342 670 -370 712 -370 c 0
 773 -370 796 -288 796 -235 c 0
 796 -192 782 -134 754 -110 c 1
 759 -129 762 -152 762 -178 c 0
 762 -281 727 -321 674 -321 c 0
 616 -321 600 -267 600 -208 c 0
 600 -125 652 -83 676 -70 c 1
 664 -55 641 -39 614 -39 c 0
 572 -39 544 -86 544 -141 c 0
 544 -172 544 -219 544 -297 c 0
 544 -313 532 -319 518 -319 c 0
 503 -319 486 -311 486 -297 c 2
 486 -137 l 2
 486 -68 436 -39 410 -39 c 0
 397 -39 340 -51 340 -126 c 2
 340 -126 340 -291 340 -298 c 0
 339 -311 333 -319 314 -319 c 0
 296 -319 282 -315 282 -298 c 2
 282 -128 l 2
 282 -82 235 -39 204 -39 c 0
 153 -39 123 -97 114 -141 c 1
 126 -128 146 -115 172 -115 c 0
 217 -115 262 -152 262 -221 c 0
 262 -282 226 -321 170 -321 c 0
 93 -321 74 -227 74 -169 c 0
114 139 m 0
 114 100 126 30 196 30 c 0
 251 30 292 69 292 96 c 0
 292 118 274 138 270 250 c 1
 229 250 224 250 224 250 c 2
 135 250 114 189 114 139 c 0
124 -221 m 0
 124 -266 151 -282 166 -282 c 0
 190 -282 206 -251 206 -215 c 0
 206 -177 183 -151 168 -151 c 0
 153 -151 124 -172 124 -221 c 0
310 250 m 1
 312 176 323 30 416 30 c 0
 454 30 507 67 510 250 c 1
 310 250 l 1
310 286 m 1
 510 286 l 1
 507 337 493 460 414 460 c 0
 335 460 311 340 310 286 c 1
638 -204 m 0
 638 -239 644 -282 666 -282 c 0
 688 -282 706 -263 706 -175 c 0
 706 -152 703 -130 694 -107 c 1
 646 -135 638 -182 638 -204 c 0
EndSplineSet
Ligature2: "Suruma-'psts' Post Base Substitutions in mlm2 lookup 8 subtable" l_knha m_uu
Ligature2: "Suruma-'psts' Post Base Substitutions in Malay+AQEA-lam lookup 7 subtable" l_knha m_uu
LCarets2: 1 0 
EndChar

StartChar: l_kta
Encoding: 65582 -1 217
Width: 1456
VWidth: 830
Flags: HW
LayerCount: 2
Fore
SplineSet
40 137 m 0
 40 197 68 286 225 286 c 2
 271 286 l 1
 276 455 361 500 422 500 c 0
 474 500 580 470 581 286 c 1
 592 287 629 287 629 287 c 0
 682 279 696 255 709 243 c 1
 709 352 781 500 951 500 c 0
 997 499 1032 487 1062 473 c 1
 1096 491 1134 500 1172 500 c 0
 1294 500 1416 402 1416 244 c 0
 1416 102 1336 -10 1295 -10 c 0
 1280 -10 1257 -2 1257 11 c 0
 1257 27 1345 89 1345 247 c 0
 1345 362 1258 460 1169 460 c 0
 1145 460 1121 457 1099 449 c 1
 1124 427 1202 350 1202 200 c 0
 1202 17 1117 -10 1061 -10 c 0
 957 -10 931 110 931 191 c 0
 931 277 954 373 1023 441 c 1
 997 453 972 460 938 460 c 0
 847 460 748 361 748 242 c 0
 748 67 748 65 748 7 c 0
 748 -1 737 -5 728 -5 c 0
 718 -5 707 0 707 7 c 0
 707 28 707 138 707 157 c 0
 707 168 700 228 620 250 c 0
 620 250 612 250 581 250 c 1
 580 168 573 -10 431 -10 c 0
 341 -10 320 48 317 51 c 1
 310 43 269 -10 186 -10 c 0
 105 -10 40 48 40 137 c 0
114 139 m 0
 114 100 127 30 197 30 c 0
 252 30 292 69 292 96 c 0
 292 118 275 138 271 250 c 1
 230 250 225 250 225 250 c 2
 136 250 114 189 114 139 c 0
310 250 m 1
 312 176 323 30 416 30 c 0
 454 30 508 67 511 250 c 1
 310 250 l 1
310 286 m 1
 511 286 l 1
 508 337 494 460 415 460 c 0
 336 460 311 340 310 286 c 1
969 205 m 0
 969 160 978 30 1051 30 c 0
 1115 30 1131 155 1131 200 c 0
 1131 279 1104 357 1050 416 c 1
 993 361 969 282 969 205 c 0
EndSplineSet
Ligature2: "Suruma-'akhn' Akhand in mlm2 lookup 1 subtable" b_ka m_U b_ta
Ligature2: "Suruma-'akhn' Akhand in Malay+AQEA-lam lookup lookup 0 subtable" b_ka m_U b_ta
LCarets2: 2 0 0 
EndChar

StartChar: l_ktu
Encoding: 65583 -1 218
Width: 1447
VWidth: 830
Flags: HW
LayerCount: 2
Fore
SplineSet
40 137 m 0
 40 197 68 286 225 286 c 2
 271 286 l 1
 276 455 361 500 422 500 c 0
 474 500 580 470 581 286 c 1
 592 287 629 287 629 287 c 0
 682 279 694 255 707 243 c 1
 707 352 781 500 951 500 c 0
 997 499 1032 487 1062 473 c 1
 1096 491 1134 500 1172 500 c 4
 1294 500 1407 402 1407 241 c 0
 1407 99 1355 -95 1147 -95 c 0
 1015 -95 899 -95 153 -95 c 0
 124 -95 102 -114 102 -134 c 0
 102 -158 119 -184 154 -184 c 0
 554 -184 953 -184 1353 -184 c 0
 1378 -184 1379 -201 1379 -219 c 0
 1379 -237 1377 -254 1352 -254 c 0
 918 -254 385 -254 123 -254 c 0
 79 -254 54 -205 54 -157 c 0
 54 -96 93 -55 177 -55 c 0
 177 -55 895 -58 1167 -58 c 0
 1280 -58 1340 121 1340 244 c 0
 1340 362 1258 460 1169 460 c 0
 1145 460 1121 457 1099 449 c 1
 1124 427 1202 350 1202 200 c 0
 1202 17 1117 -10 1061 -10 c 0
 957 -10 931 110 931 191 c 0
 931 277 954 373 1023 441 c 1
 997 453 972 460 938 460 c 0
 847 460 747 361 747 242 c 0
 747 67 747 65 747 7 c 0
 747 -1 735 -4 726 -4 c 0
 716 -4 704 -1 704 7 c 0
 704 34 704 128 704 151 c 0
 704 167 698 228 620 250 c 0
 620 250 612 250 581 250 c 1
 580 168 573 -10 431 -10 c 0
 341 -10 320 48 317 51 c 1
 310 43 269 -10 186 -10 c 0
 105 -10 40 48 40 137 c 0
114 139 m 0
 114 100 127 30 197 30 c 0
 252 30 292 69 292 96 c 0
 292 118 275 138 271 250 c 1
 230 250 225 250 225 250 c 2
 136 250 114 189 114 139 c 0
310 250 m 1
 312 176 323 30 416 30 c 0
 454 30 508 67 511 250 c 1
 310 250 l 1
310 286 m 1
 511 286 l 1
 508 337 494 460 415 460 c 0
 336 460 311 340 310 286 c 1
969 205 m 0
 969 160 978 30 1051 30 c 0
 1115 30 1131 155 1131 200 c 0
 1131 279 1104 357 1050 416 c 1
 993 361 969 282 969 205 c 0
EndSplineSet
Ligature2: "Suruma-'psts' Post Base Substitutions in mlm2 lookup 8 subtable" l_kta m_u
Ligature2: "Suruma-'psts' Post Base Substitutions in Malay+AQEA-lam lookup 7 subtable" l_kta m_u
LCarets2: 1 0 
EndChar

StartChar: l_ktuu
Encoding: 65584 -1 219
Width: 1480
VWidth: 830
Flags: HW
LayerCount: 2
Fore
SplineSet
40 -158 m 0
 40 -102 97 -64 170 -64 c 0
 1184 -64 959 -64 1180 -64 c 0
 1284 -64 1366 -11 1366 67 c 0
 1366 135 1325 205 1254 207 c 0
 1242 207 1236 216 1236 224 c 0
 1236 233 1244 241 1256 243 c 0
 1312 250 1326 287 1326 332 c 0
 1326 393 1266 461 1164 461 c 0
 1140 461 1125 460 1108 449 c 1
 1133 427 1210 350 1210 200 c 0
 1210 17 1126 -10 1070 -10 c 0
 966 -10 940 110 940 191 c 0
 940 277 963 373 1032 441 c 1
 1006 453 980 459 946 459 c 0
 855 459 754 361 754 242 c 0
 754 67 754 65 754 7 c 0
 754 -1 745 -5 736 -5 c 0
 726 -5 710 -1 710 7 c 0
 710 33 711 126 711 148 c 0
 711 170 707 228 628 250 c 0
 628 250 621 250 588 250 c 1
 587 168 580 -10 438 -10 c 0
 348 -10 327 48 324 51 c 1
 317 43 275 -10 192 -10 c 0
 111 -10 46 48 46 137 c 0
 46 197 75 286 232 286 c 2
 278 286 l 1
 283 455 367 500 428 500 c 0
 480 500 587 470 588 286 c 1
 601 287 638 287 638 287 c 0
 691 279 705 255 718 243 c 1
 718 352 790 500 960 500 c 0
 1006 499 1040 487 1070 473 c 1
 1104 491 1142 500 1180 500 c 0
 1287 500 1398 437 1398 335 c 0
 1398 291 1374 247 1332 227 c 1
 1393 201 1440 138 1440 72 c 0
 1440 -33 1327 -103 1188 -103 c 0
 922 -103 361 -104 144 -104 c 0
 111 -104 90 -123 90 -146 c 0
 90 -166 112 -189 142 -189 c 0
 162 -189 1395 -189 1396 -189 c 0
 1421 -189 1422 -207 1422 -224 c 0
 1422 -243 1418 -262 1396 -262 c 0
 891 -262 1416 -262 148 -262 c 0
 91 -262 40 -230 40 -158 c 0
120 139 m 0
 120 100 134 30 204 30 c 0
 259 30 298 69 298 96 c 0
 298 118 282 138 278 250 c 1
 237 250 232 250 232 250 c 2
 143 250 120 189 120 139 c 0
316 250 m 1
 318 176 329 30 422 30 c 0
 460 30 515 67 518 250 c 1
 316 250 l 1
316 286 m 1
 518 286 l 1
 515 337 501 460 422 460 c 0
 343 460 317 340 316 286 c 1
978 205 m 0
 978 160 987 30 1060 30 c 0
 1124 30 1140 155 1140 200 c 0
 1140 279 1112 357 1058 416 c 1
 1001 361 978 282 978 205 c 0
EndSplineSet
Ligature2: "Suruma-'psts' Post Base Substitutions in mlm2 lookup 8 subtable" l_kta m_uu
Ligature2: "Suruma-'psts' Post Base Substitutions in Malay+AQEA-lam lookup 7 subtable" l_kta m_uu
LCarets2: 1 0 
EndChar

StartChar: l_ktr
Encoding: 65585 -1 220
Width: 1463
VWidth: 570
Flags: HW
LayerCount: 2
Fore
SplineSet
40 137 m 0
 40 197 68 286 225 286 c 2
 271 286 l 1
 276 455 361 500 422 500 c 0
 474 500 580 470 581 286 c 1
 592 287 629 287 629 287 c 0
 682 279 696 255 709 243 c 1
 709 352 781 500 951 500 c 0
 997 499 1032 487 1062 473 c 1
 1096 491 1123 500 1161 500 c 0
 1281 500 1423 408 1423 230 c 0
 1423 -29 1235 -263 1029 -263 c 0
 922 -263 850 -245 850 -173 c 0
 850 -98 941 -86 1025 -86 c 0
 1090 -86 1155 -97 1212 -130 c 1
 1275 -58 1343 29 1343 245 c 0
 1343 368 1246 462 1158 462 c 0
 1132 462 1127 459 1099 449 c 1
 1124 427 1202 350 1202 200 c 0
 1202 17 1117 -10 1061 -10 c 0
 957 -10 931 110 931 191 c 0
 931 277 954 373 1023 441 c 1
 997 453 972 459 938 459 c 0
 847 459 748 361 748 242 c 0
 748 67 748 65 748 7 c 0
 748 -1 737 -5 728 -5 c 0
 718 -5 704 -1 704 7 c 0
 704 31 704 133 704 154 c 0
 704 174 699 228 620 250 c 0
 620 250 612 250 581 250 c 1
 580 168 573 -10 431 -10 c 0
 341 -10 320 48 317 51 c 1
 310 43 269 -10 186 -10 c 0
 105 -10 40 48 40 137 c 0
114 139 m 0
 114 100 127 30 197 30 c 0
 252 30 292 69 292 96 c 0
 292 118 275 138 271 250 c 1
 230 250 225 250 225 250 c 2
 136 250 114 189 114 139 c 0
310 250 m 1
 312 176 323 30 416 30 c 0
 454 30 508 67 511 250 c 1
 310 250 l 1
310 286 m 1
 511 286 l 1
 508 337 494 460 415 460 c 0
 336 460 311 340 310 286 c 1
890 -173 m 0
 890 -194 914 -225 1005 -225 c 0
 1072 -225 1142 -211 1186 -159 c 1
 1127 -124 1071 -121 1015 -121 c 0
 937 -121 890 -131 890 -173 c 0
969 205 m 0
 969 160 978 30 1051 30 c 0
 1115 30 1131 155 1131 200 c 0
 1131 279 1104 357 1050 416 c 1
 993 361 969 282 969 205 c 0
EndSplineSet
Ligature2: "Suruma-'psts' Post Base Substitutions in mlm2 lookup 8 subtable" l_kta m_r
Ligature2: "Suruma-'psts' Post Base Substitutions in Malay+AQEA-lam lookup 7 subtable" l_kta m_r
LCarets2: 1 0 
EndChar

StartChar: l_ktra
Encoding: 65586 -1 221
Width: 1610
VWidth: 830
Flags: HW
LayerCount: 2
Fore
SplineSet
40 245 m 0
 40 395 112 500 130 500 c 4
 141 500 148 495 148 482 c 0
 148 462 76 406 76 254 c 0
 76 -229 473 -230 872 -230 c 0
 1182 -230 1498 -214 1498 240 c 0
 1497 358 1411 460 1322 460 c 0
 1298 460 1274 457 1252 449 c 1
 1277 427 1354 350 1354 200 c 0
 1354 17 1270 -10 1214 -10 c 0
 1110 -10 1084 110 1084 191 c 0
 1084 277 1107 373 1176 441 c 1
 1150 453 1124 459 1090 459 c 0
 999 459 900 361 900 242 c 0
 900 67 900 65 900 7 c 0
 900 -1 889 -5 880 -5 c 0
 870 -5 858 0 858 7 c 0
 858 34 858 136 858 159 c 0
 858 176 850 228 772 250 c 0
 772 250 765 250 732 250 c 1
 731 168 724 -10 582 -10 c 0
 492 -10 471 48 468 51 c 1
 461 43 419 -10 336 -10 c 0
 255 -10 190 48 190 137 c 0
 190 197 219 286 376 286 c 2
 422 286 l 1
 427 455 511 500 572 500 c 0
 624 500 731 470 732 286 c 1
 745 287 782 287 782 287 c 0
 835 279 849 255 862 243 c 1
 862 352 934 500 1104 500 c 0
 1150 499 1184 487 1214 473 c 1
 1248 491 1286 500 1324 500 c 0
 1562 500 1570 236 1570 236 c 0
 1570 -262 1239 -305 826 -305 c 0
 508 -305 40 -287 40 245 c 0
264 139 m 0
 264 100 278 30 348 30 c 0
 403 30 442 69 442 96 c 0
 442 118 426 138 422 250 c 1
 381 250 376 250 376 250 c 2
 287 250 264 189 264 139 c 0
460 250 m 1
 462 176 473 30 566 30 c 0
 604 30 659 67 662 250 c 1
 460 250 l 1
460 286 m 1
 662 286 l 1
 659 337 645 460 566 460 c 0
 487 460 461 340 460 286 c 1
1122 205 m 0
 1122 160 1131 30 1204 30 c 0
 1268 30 1284 155 1284 200 c 0
 1284 279 1256 357 1202 416 c 1
 1145 361 1122 282 1122 205 c 0
EndSplineSet
Ligature2: "Suruma-'pres' Pre Base Substitutions in Malay+AQEA-lam lookup 6 subtable" l_kta m_U b_ra
Ligature2: "Suruma-'pres' Pre Base Substitutions in Malay+AQEA-lam lookup 6 subtable" l_kta m_ra
Ligature2: "Suruma-'akhn' Akhand in mlm2 lookup 1 subtable" b_ka m_U b_ta m_U b_ra
LCarets2: 2 0 0 
EndChar

StartChar: l_ktru
Encoding: 65587 -1 222
Width: 1610
VWidth: 830
Flags: HW
LayerCount: 2
Fore
SplineSet
40 245 m 0
 40 395 112 500 130 500 c 4
 141 500 148 495 148 482 c 0
 148 462 76 406 76 254 c 0
 76 -229 473 -230 872 -230 c 0
 1182 -230 1498 -214 1498 240 c 0
 1497 358 1411 460 1322 460 c 0
 1298 460 1274 457 1252 449 c 1
 1277 427 1354 350 1354 200 c 0
 1354 17 1270 -10 1214 -10 c 0
 1110 -10 1084 110 1084 191 c 0
 1084 277 1107 373 1176 441 c 1
 1150 453 1124 459 1090 459 c 0
 999 459 900 361 900 242 c 0
 900 67 900 65 900 7 c 0
 900 -1 889 -5 880 -5 c 0
 870 -5 858 0 858 7 c 0
 858 34 858 136 858 159 c 0
 858 176 850 228 772 250 c 0
 772 250 765 250 732 250 c 1
 731 168 724 -10 582 -10 c 0
 492 -10 471 48 468 51 c 1
 461 43 419 -10 336 -10 c 0
 255 -10 190 48 190 137 c 0
 190 197 219 286 376 286 c 2
 422 286 l 1
 427 455 511 500 572 500 c 0
 624 500 731 470 732 286 c 1
 745 287 782 287 782 287 c 0
 835 279 849 255 862 243 c 1
 862 352 934 500 1104 500 c 0
 1150 499 1184 487 1214 473 c 1
 1248 491 1286 500 1324 500 c 0
 1562 500 1570 236 1570 236 c 0
 1570 -262 1239 -305 826 -305 c 0
 508 -305 40 -287 40 245 c 0
264 139 m 0
 264 100 278 30 348 30 c 0
 403 30 442 69 442 96 c 0
 442 118 426 138 422 250 c 1
 381 250 376 250 376 250 c 2
 287 250 264 189 264 139 c 0
460 250 m 1
 462 176 473 30 566 30 c 0
 604 30 659 67 662 250 c 1
 460 250 l 1
460 286 m 1
 662 286 l 1
 659 337 645 460 566 460 c 0
 487 460 461 340 460 286 c 1
1122 205 m 0
 1122 160 1131 30 1204 30 c 0
 1268 30 1284 155 1284 200 c 0
 1284 279 1256 357 1202 416 c 1
 1145 361 1122 282 1122 205 c 0
1290 -271 m 0
 1290 -194 1348 -161 1396 -161 c 0
 1484 -161 1510 -239 1510 -269 c 0
 1510 -323 1463 -382 1400 -382 c 0
 1333 -382 1290 -336 1290 -271 c 0
1326 -270 m 0
 1326 -327 1363 -345 1390 -345 c 0
 1413 -345 1440 -313 1440 -270 c 0
 1440 -223 1412 -197 1390 -197 c 0
 1364 -197 1326 -220 1326 -270 c 0
EndSplineSet
Ligature2: "Suruma-'psts' Post Base Substitutions in mlm2 lookup 8 subtable" l_ktra m_u
Ligature2: "Suruma-'psts' Post Base Substitutions in Malay+AQEA-lam lookup 7 subtable" l_ktra m_u
LCarets2: 1 0 
EndChar

StartChar: l_ktruu
Encoding: 65588 -1 223
Width: 1610
VWidth: 830
Flags: HW
LayerCount: 2
Fore
SplineSet
40 245 m 0
 40 395 112 500 130 500 c 4
 141 500 148 495 148 482 c 0
 148 462 76 406 76 254 c 0
 76 -229 473 -230 872 -230 c 0
 1182 -230 1498 -214 1498 240 c 0
 1497 358 1411 460 1322 460 c 0
 1298 460 1274 457 1252 449 c 1
 1277 427 1354 350 1354 200 c 0
 1354 17 1270 -10 1214 -10 c 0
 1110 -10 1084 110 1084 191 c 0
 1084 277 1107 373 1176 441 c 1
 1150 453 1124 459 1090 459 c 0
 999 459 900 361 900 242 c 0
 900 67 900 65 900 7 c 0
 900 -1 889 -5 880 -5 c 0
 870 -5 858 0 858 7 c 0
 858 34 858 136 858 159 c 0
 858 176 850 228 772 250 c 0
 772 250 765 250 732 250 c 1
 731 168 724 -10 582 -10 c 0
 492 -10 471 48 468 51 c 1
 461 43 419 -10 336 -10 c 0
 255 -10 190 48 190 137 c 0
 190 197 219 286 376 286 c 2
 422 286 l 1
 427 455 511 500 572 500 c 0
 624 500 731 470 732 286 c 1
 745 287 782 287 782 287 c 0
 835 279 849 255 862 243 c 1
 862 352 934 500 1104 500 c 0
 1150 499 1184 487 1214 473 c 1
 1248 491 1286 500 1324 500 c 0
 1562 500 1570 236 1570 236 c 0
 1570 -262 1239 -305 826 -305 c 0
 508 -305 40 -287 40 245 c 0
264 139 m 0
 264 100 278 30 348 30 c 0
 403 30 442 69 442 96 c 0
 442 118 426 138 422 250 c 1
 381 250 376 250 376 250 c 2
 287 250 264 189 264 139 c 0
460 250 m 1
 462 176 473 30 566 30 c 0
 604 30 659 67 662 250 c 1
 460 250 l 1
460 286 m 1
 662 286 l 1
 659 337 645 460 566 460 c 0
 487 460 461 340 460 286 c 1
1122 205 m 0
 1122 160 1131 30 1204 30 c 0
 1268 30 1284 155 1284 200 c 0
 1284 279 1256 357 1202 416 c 1
 1145 361 1122 282 1122 205 c 0
1274 -304 m 0
 1274 -225 1335 -158 1402 -158 c 0
 1490 -158 1558 -212 1558 -304 c 0
 1558 -385 1499 -453 1414 -453 c 0
 1324 -453 1274 -386 1274 -304 c 0
1310 -307 m 0
 1310 -370 1358 -416 1406 -416 c 0
 1422 -416 1488 -399 1488 -294 c 1
 1465 -330 1450 -349 1406 -349 c 0
 1334 -349 1324 -272 1320 -257 c 1
 1314 -273 1310 -290 1310 -307 c 0
1358 -260 m 0
 1358 -291 1379 -313 1410 -313 c 0
 1438 -313 1458 -286 1458 -256 c 0
 1458 -242 1451 -197 1406 -197 c 0
 1392 -197 1358 -212 1358 -260 c 0
EndSplineSet
Ligature2: "Suruma-'psts' Post Base Substitutions in mlm2 lookup 8 subtable" l_ktra m_uu
Ligature2: "Suruma-'psts' Post Base Substitutions in Malay+AQEA-lam lookup 7 subtable" l_ktra m_uu
LCarets2: 1 0 
EndChar

StartChar: l_kna
Encoding: 65589 -1 224
Width: 838
VWidth: 830
Flags: HW
LayerCount: 2
Fore
SplineSet
40 137 m 4
 40 197 67 286 224 286 c 6
 270 286 l 5
 275 455 361 500 422 500 c 4
 474 500 579 470 580 286 c 5
 592 286 632 286 632 286 c 6
 703 286 798 256 798 133 c 4
 798 45 727 -9 662 -9 c 4
 603 -9 596 26 596 34 c 4
 596 41 599 47 610 47 c 4
 632 47 636 30 652 30 c 4
 681 30 724 69 724 135 c 4
 724 234 654 250 620 250 c 6
 620 250 610 250 580 250 c 5
 579 168 572 -10 430 -10 c 4
 340 -10 319 48 316 51 c 5
 309 43 269 -10 186 -10 c 4
 105 -10 40 48 40 137 c 4
114 139 m 4
 114 100 126 30 196 30 c 4
 251 30 292 69 292 96 c 4
 292 118 274 138 270 250 c 5
 229 250 224 250 224 250 c 6
 135 250 114 189 114 139 c 4
198 -162 m 0
 198 -68 247 0 322 0 c 0
 358 0 404 -18 428 -61 c 1
 441 -40 469 -1 526 0 c 0
 605 0 658 -72 658 -160 c 0
 658 -227 617 -322 580 -322 c 0
 556 -322 550 -310 550 -301 c 0
 550 -287 599 -249 600 -154 c 0
 600 -94 564 -40 522 -40 c 0
 466 -40 452 -83 452 -193 c 2
 452 -299 l 0
 452 -312 438 -319 424 -319 c 0
 410 -319 396 -313 394 -298 c 0
 394 -191 l 2
 394 -113 380 -40 320 -40 c 0
 253 -40 236 -129 236 -168 c 0
 236 -243 288 -283 288 -305 c 0
 288 -315 279 -322 270 -322 c 0
 249 -322 199 -254 198 -162 c 0
310 250 m 5
 312 176 323 30 416 30 c 4
 454 30 507 67 510 250 c 5
 310 250 l 5
310 286 m 5
 510 286 l 5
 507 337 493 460 414 460 c 4
 335 460 311 340 310 286 c 5
EndSplineSet
Ligature2: "Suruma-'akhn' Akhand in mlm2 lookup 1 subtable" b_ka m_U b_na
Ligature2: "Suruma-'akhn' Akhand in Malay+AQEA-lam lookup lookup 0 subtable" b_ka m_U b_na
LCarets2: 2 0 0 
EndChar

StartChar: l_ktnu
Encoding: 65590 -1 225
Width: 838
VWidth: 830
Flags: HW
LayerCount: 2
Fore
SplineSet
40 137 m 4
 40 197 67 286 224 286 c 6
 270 286 l 5
 275 455 361 500 422 500 c 4
 474 500 579 470 580 286 c 5
 592 286 632 286 632 286 c 6
 703 286 798 256 798 133 c 4
 798 45 727 -9 662 -9 c 4
 603 -9 596 26 596 34 c 4
 596 41 599 47 610 47 c 4
 632 47 636 30 652 30 c 4
 681 30 724 69 724 135 c 4
 724 234 654 250 620 250 c 6
 620 250 610 250 580 250 c 5
 579 168 572 -10 430 -10 c 4
 340 -10 319 48 316 51 c 5
 309 43 269 -10 186 -10 c 4
 105 -10 40 48 40 137 c 4
114 139 m 4
 114 100 126 30 196 30 c 4
 251 30 292 69 292 96 c 4
 292 118 274 138 270 250 c 5
 229 250 224 250 224 250 c 6
 135 250 114 189 114 139 c 4
200 -163 m 0
 200 -69 249 -1 324 -1 c 0
 360 -1 406 -19 430 -62 c 1
 443 -41 473 -1 528 -1 c 0
 607 -1 660 -69 660 -166 c 0
 660 -256 641 -323 568 -323 c 0
 510 -323 496 -262 496 -215 c 0
 497 -124 555 -82 574 -68 c 1
 570 -59 557 -41 524 -41 c 0
 468 -41 454 -95 454 -205 c 2
 454 -300 l 2
 454 -318 437 -319 426 -319 c 0
 402 -319 396 -307 396 -299 c 2
 396 -203 l 2
 396 -125 382 -41 322 -41 c 0
 255 -41 238 -130 238 -169 c 0
 239 -246 290 -284 290 -306 c 0
 290 -316 280 -323 272 -323 c 0
 253 -323 200 -255 200 -163 c 0
310 250 m 5
 312 176 323 30 416 30 c 4
 454 30 507 67 510 250 c 5
 310 250 l 5
310 286 m 5
 510 286 l 5
 507 337 493 460 414 460 c 4
 335 460 311 340 310 286 c 5
534 -206 m 0
 534 -269 550 -283 562 -283 c 0
 593 -283 600 -215 600 -176 c 0
 600 -147 600 -125 592 -104 c 1
 556 -123 534 -164 534 -206 c 0
EndSplineSet
Ligature2: "Suruma-'psts' Post Base Substitutions in mlm2 lookup 8 subtable" l_kna m_u
Ligature2: "Suruma-'psts' Post Base Substitutions in Malay+AQEA-lam lookup 7 subtable" l_kna m_u
LCarets2: 1 0 
EndChar

StartChar: l_ktnuu
Encoding: 65591 -1 226
Width: 838
VWidth: 830
Flags: HW
LayerCount: 2
Fore
SplineSet
40 137 m 0
 40 197 67 286 224 286 c 2
 270 286 l 1
 275 455 361 500 422 500 c 0
 474 500 579 470 580 286 c 1
 592 286 632 286 632 286 c 2
 703 286 798 256 798 133 c 0
 798 45 727 -9 662 -9 c 0
 603 -9 596 26 596 34 c 0
 596 41 599 47 610 47 c 0
 632 47 636 30 652 30 c 0
 681 30 724 69 724 135 c 0
 724 234 654 250 620 250 c 2
 620 250 610 250 580 250 c 1
 579 168 572 -10 430 -10 c 0
 340 -10 319 48 316 51 c 1
 309 43 269 -10 186 -10 c 0
 105 -10 40 48 40 137 c 0
114 139 m 0
 114 100 126 30 196 30 c 0
 251 30 292 69 292 96 c 0
 292 118 274 138 270 250 c 1
 229 250 224 250 224 250 c 2
 135 250 114 189 114 139 c 0
202 -162 m 0
 202 -68 251 -1 326 -1 c 0
 362 -1 408 -18 432 -61 c 1
 444 -40 475 -1 530 -1 c 0
 570 -1 610 -21 632 -57 c 1
 662 -60 750 -79 750 -235 c 0
 750 -340 698 -409 620 -409 c 0
 584 -408 524 -389 524 -358 c 0
 524 -355 527 -345 534 -345 c 0
 564 -349 570 -370 608 -370 c 0
 676 -370 692 -290 692 -231 c 0
 692 -158 671 -125 656 -112 c 1
 660 -126 660 -142 660 -159 c 0
 660 -240 653 -323 574 -323 c 0
 544 -323 498 -301 498 -221 c 0
 498 -163 527 -100 580 -73 c 1
 565 -50 548 -38 528 -38 c 0
 482 -38 456 -105 456 -201 c 2
 456 -299 l 2
 456 -318 434 -319 428 -319 c 0
 416 -319 398 -312 398 -298 c 2
 398 -199 l 2
 398 -56 352 -39 324 -39 c 0
 257 -39 240 -129 240 -168 c 0
 241 -245 292 -283 292 -305 c 0
 292 -316 284 -321 272 -321 c 0
 248 -321 202 -247 202 -162 c 0
310 250 m 1
 312 176 323 30 416 30 c 0
 454 30 507 67 510 250 c 1
 310 250 l 1
310 286 m 1
 510 286 l 1
 507 337 493 460 414 460 c 0
 335 460 311 340 310 286 c 1
536 -217 m 0
 536 -273 554 -285 566 -285 c 0
 595 -285 604 -210 604 -171 c 0
 604 -134 600 -123 596 -111 c 1
 550 -133 536 -189 536 -217 c 0
EndSplineSet
Ligature2: "Suruma-'psts' Post Base Substitutions in mlm2 lookup 8 subtable" l_kna m_uu
Ligature2: "Suruma-'psts' Post Base Substitutions in Malay+AQEA-lam lookup 7 subtable" l_kna m_uu
LCarets2: 1 0 
EndChar

StartChar: l_kma
Encoding: 65592 -1 227
Width: 838
VWidth: 830
Flags: HW
LayerCount: 2
Fore
SplineSet
40 137 m 4
 40 197 67 286 224 286 c 6
 270 286 l 5
 275 455 361 500 422 500 c 4
 474 500 579 470 580 286 c 5
 592 286 632 286 632 286 c 6
 703 286 798 256 798 133 c 4
 798 45 727 -9 662 -9 c 4
 603 -9 596 26 596 34 c 4
 596 41 599 47 610 47 c 4
 632 47 636 30 652 30 c 4
 681 30 724 69 724 135 c 4
 724 234 654 250 620 250 c 6
 620 250 610 250 580 250 c 5
 579 168 572 -10 430 -10 c 4
 340 -10 319 48 316 51 c 5
 309 43 269 -10 186 -10 c 4
 105 -10 40 48 40 137 c 4
114 139 m 4
 114 100 126 30 196 30 c 4
 251 30 292 69 292 96 c 4
 292 118 274 138 270 250 c 5
 229 250 224 250 224 250 c 6
 135 250 114 189 114 139 c 4
278 -147 m 6
 278 -73 331 8 422 8 c 4
 495 8 572 -48 572 -159 c 6
 572 -281 l 6
 571 -304 555 -308 548 -308 c 4
 298 -308 l 4
 288 -307 278 -303 278 -275 c 6
 278 -147 l 6
310 250 m 5
 312 176 323 30 416 30 c 4
 454 30 507 67 510 250 c 5
 310 250 l 5
310 286 m 5
 510 286 l 5
 507 337 493 460 414 460 c 4
 335 460 311 340 310 286 c 5
314 -173 m 6
 314 -268 l 5
 383 -239 420 -160 420 -103 c 4
 420 -67 404 -44 380 -44 c 4
 365 -44 314 -74 314 -173 c 6
392 -272 m 5
 534 -272 l 5
 534 -185 l 6
 534 -130 532 -57 456 -37 c 5
 468 -50 478 -69 478 -104 c 4
 478 -192 422 -247 392 -272 c 5
EndSplineSet
Ligature2: "Suruma-'akhn' Akhand in mlm2 lookup 1 subtable" b_ka m_U b_ma
Ligature2: "Suruma-'akhn' Akhand in Malay+AQEA-lam lookup lookup 0 subtable" b_ka m_U b_ma
LCarets2: 2 0 0 
EndChar

StartChar: l_kmu
Encoding: 65593 -1 228
Width: 838
VWidth: 830
Flags: HW
LayerCount: 2
Fore
SplineSet
40 137 m 0
 40 197 67 286 224 286 c 2
 270 286 l 1
 275 455 361 500 422 500 c 0
 474 500 579 470 580 286 c 1
 592 286 632 286 632 286 c 2
 703 286 798 256 798 133 c 0
 798 45 727 -9 662 -9 c 0
 603 -9 596 26 596 34 c 0
 596 41 599 47 610 47 c 0
 632 47 636 30 652 30 c 0
 681 30 724 69 724 135 c 0
 724 234 654 250 620 250 c 2
 620 250 610 250 580 250 c 1
 579 168 572 -10 430 -10 c 0
 340 -10 319 48 316 51 c 1
 309 43 269 -10 186 -10 c 0
 105 -10 40 48 40 137 c 0
114 139 m 0
 114 100 126 30 196 30 c 0
 251 30 292 69 292 96 c 0
 292 118 274 138 270 250 c 1
 229 250 224 250 224 250 c 2
 135 250 114 189 114 139 c 0
278 -147 m 2
 278 -73 331 8 422 8 c 0
 495 8 572 -48 572 -159 c 2
 572 -281 l 2
 571 -304 555 -308 548 -308 c 0
 298 -308 l 0
 288 -307 278 -303 278 -275 c 2
 278 -147 l 2
310 250 m 1
 312 176 323 30 416 30 c 0
 454 30 507 67 510 250 c 1
 310 250 l 1
310 286 m 1
 510 286 l 1
 507 337 493 460 414 460 c 0
 335 460 311 340 310 286 c 1
314 -173 m 2
 314 -268 l 1
 383 -239 420 -160 420 -103 c 0
 420 -67 404 -44 380 -44 c 0
 365 -44 314 -74 314 -173 c 2
392 -272 m 1
 534 -272 l 1
 534 -185 l 2
 534 -130 532 -57 456 -37 c 1
 468 -50 478 -69 478 -104 c 0
 478 -192 422 -247 392 -272 c 1
462 -380 m 4
 462 -303 520 -270 568 -270 c 4
 656 -270 682 -348 682 -378 c 4
 682 -432 635 -491 572 -491 c 4
 505 -491 462 -445 462 -380 c 4
498 -379 m 4
 498 -436 535 -454 562 -454 c 4
 585 -454 612 -422 612 -379 c 4
 612 -332 584 -306 562 -306 c 4
 536 -306 498 -329 498 -379 c 4
EndSplineSet
Ligature2: "Suruma-'psts' Post Base Substitutions in mlm2 lookup 8 subtable" l_kma m_u
Ligature2: "Suruma-'psts' Post Base Substitutions in Malay+AQEA-lam lookup 7 subtable" l_kma m_u
LCarets2: 1 0 
EndChar

StartChar: l_kmuu
Encoding: 65594 -1 229
Width: 838
VWidth: 830
Flags: HW
LayerCount: 2
Fore
SplineSet
40 137 m 0
 40 197 67 286 224 286 c 2
 270 286 l 1
 275 455 361 500 422 500 c 0
 474 500 579 470 580 286 c 1
 592 286 632 286 632 286 c 2
 703 286 798 256 798 133 c 0
 798 45 727 -9 662 -9 c 0
 603 -9 596 26 596 34 c 0
 596 41 599 47 610 47 c 0
 632 47 636 30 652 30 c 0
 681 30 724 69 724 135 c 0
 724 234 654 250 620 250 c 2
 620 250 610 250 580 250 c 1
 579 168 572 -10 430 -10 c 0
 340 -10 319 48 316 51 c 1
 309 43 269 -10 186 -10 c 0
 105 -10 40 48 40 137 c 0
114 139 m 0
 114 100 126 30 196 30 c 0
 251 30 292 69 292 96 c 0
 292 118 274 138 270 250 c 1
 229 250 224 250 224 250 c 2
 135 250 114 189 114 139 c 0
278 -147 m 2
 278 -73 331 8 422 8 c 0
 495 8 572 -48 572 -159 c 2
 572 -281 l 2
 571 -304 555 -308 548 -308 c 0
 298 -308 l 0
 288 -307 278 -303 278 -275 c 2
 278 -147 l 2
310 250 m 1
 312 176 323 30 416 30 c 0
 454 30 507 67 510 250 c 1
 310 250 l 1
310 286 m 1
 510 286 l 1
 507 337 493 460 414 460 c 0
 335 460 311 340 310 286 c 1
314 -173 m 2
 314 -268 l 1
 383 -239 420 -160 420 -103 c 0
 420 -67 404 -44 380 -44 c 0
 365 -44 314 -74 314 -173 c 2
392 -272 m 1
 534 -272 l 1
 534 -185 l 2
 534 -130 532 -57 456 -37 c 1
 468 -50 478 -69 478 -104 c 0
 478 -192 422 -247 392 -272 c 1
426 -417 m 4
 426 -338 487 -271 554 -271 c 4
 642 -271 710 -325 710 -417 c 4
 710 -498 651 -566 566 -566 c 4
 476 -566 426 -499 426 -417 c 4
462 -420 m 4
 462 -483 510 -529 558 -529 c 4
 574 -529 640 -512 640 -407 c 5
 617 -443 602 -462 558 -462 c 4
 486 -462 476 -385 472 -370 c 5
 466 -386 462 -403 462 -420 c 4
510 -373 m 4
 510 -404 531 -426 562 -426 c 4
 590 -426 610 -399 610 -369 c 4
 610 -355 603 -310 558 -310 c 4
 544 -310 510 -325 510 -373 c 4
EndSplineSet
Ligature2: "Suruma-'psts' Post Base Substitutions in mlm2 lookup 8 subtable" l_kma m_uu
Ligature2: "Suruma-'psts' Post Base Substitutions in Malay+AQEA-lam lookup 7 subtable" l_kma m_uu
LCarets2: 1 0 
EndChar

StartChar: l_kra
Encoding: 65595 -1 230
Width: 986
VWidth: 830
Flags: HW
LayerCount: 2
Fore
SplineSet
40 229 m 4
 40 353 95 500 132 500 c 4
 142 500 149 493 149 481 c 4
 149 455 81 389 81 234 c 4
 81 113 136 -158 454 -158 c 4
 811 -158 872 14 873 135 c 4
 873 234 803 250 769 250 c 6
 769 250 761 250 732 250 c 5
 731 168 724 -10 582 -10 c 4
 492 -10 471 48 468 51 c 5
 461 43 420 -10 337 -10 c 4
 256 -10 191 48 191 137 c 4
 191 197 219 286 376 286 c 6
 422 286 l 5
 427 455 512 500 573 500 c 4
 625 500 731 470 732 286 c 5
 741 286 775 286 775 286 c 6
 845 286 946 256 946 130 c 4
 946 24 899 -203 486 -203 c 4
 99 -203 40 76 40 229 c 4
265 139 m 4
 265 100 278 30 348 30 c 4
 403 30 443 69 443 96 c 4
 443 118 426 138 422 250 c 5
 381 250 376 250 376 250 c 6
 287 250 265 189 265 139 c 4
461 250 m 5
 463 176 474 30 567 30 c 4
 605 30 659 67 662 250 c 5
 461 250 l 5
461 286 m 5
 662 286 l 5
 659 337 645 460 566 460 c 4
 487 460 462 340 461 286 c 5
EndSplineSet
Ligature2: "Suruma-'pres' Pre Base Substitutions in Malay+AQEA-lam lookup 6 subtable" b_ka m_ra
Ligature2: "Suruma-'pres' Pre Base Substitutions in Malay+AQEA-lam lookup 6 subtable" l_k b_ra
Ligature2: "Suruma-'akhn' Akhand in mlm2 lookup 1 subtable" b_ka m_U b_ra
LCarets2: 1 0 
EndChar

StartChar: l_kru
Encoding: 65596 -1 231
Width: 986
VWidth: 830
Flags: HW
LayerCount: 2
Fore
SplineSet
40 229 m 4
 40 353 95 500 132 500 c 4
 142 500 149 493 149 481 c 4
 149 455 81 389 81 234 c 4
 81 113 136 -158 454 -158 c 4
 811 -158 872 14 873 135 c 4
 873 234 803 250 769 250 c 6
 769 250 761 250 732 250 c 5
 731 168 724 -10 582 -10 c 4
 492 -10 471 48 468 51 c 5
 461 43 420 -10 337 -10 c 4
 256 -10 191 48 191 137 c 4
 191 197 219 286 376 286 c 6
 422 286 l 5
 427 455 512 500 573 500 c 4
 625 500 731 470 732 286 c 5
 741 286 775 286 775 286 c 6
 845 286 946 256 946 130 c 4
 946 24 899 -203 486 -203 c 4
 99 -203 40 76 40 229 c 4
265 139 m 4
 265 100 278 30 348 30 c 4
 403 30 443 69 443 96 c 4
 443 118 426 138 422 250 c 5
 381 250 376 250 376 250 c 6
 287 250 265 189 265 139 c 4
461 250 m 5
 463 176 474 30 567 30 c 4
 605 30 659 67 662 250 c 5
 461 250 l 5
461 286 m 5
 662 286 l 5
 659 337 645 460 566 460 c 4
 487 460 462 340 461 286 c 5
721 -198 m 4
 721 -121 779 -88 827 -88 c 4
 915 -88 941 -166 941 -196 c 4
 941 -250 894 -309 831 -309 c 4
 764 -309 721 -263 721 -198 c 4
757 -197 m 4
 757 -254 794 -272 821 -272 c 4
 844 -272 871 -240 871 -197 c 4
 871 -150 843 -124 821 -124 c 4
 795 -124 757 -147 757 -197 c 4
EndSplineSet
Ligature2: "Suruma-'psts' Post Base Substitutions in mlm2 lookup 8 subtable" l_kra m_u
Ligature2: "Suruma-'psts' Post Base Substitutions in Malay+AQEA-lam lookup 7 subtable" l_kra m_u
LCarets2: 1 0 
EndChar

StartChar: l_kruu
Encoding: 65597 -1 232
Width: 1007
VWidth: 830
Flags: HW
LayerCount: 2
Fore
SplineSet
40 229 m 4
 40 353 95 500 132 500 c 4
 142 500 149 493 149 481 c 4
 149 455 81 389 81 234 c 4
 81 113 136 -158 454 -158 c 4
 811 -158 872 14 873 135 c 4
 873 234 803 250 769 250 c 6
 769 250 761 250 732 250 c 5
 731 168 724 -10 582 -10 c 4
 492 -10 471 48 468 51 c 5
 461 43 420 -10 337 -10 c 4
 256 -10 191 48 191 137 c 4
 191 197 219 286 376 286 c 6
 422 286 l 5
 427 455 512 500 573 500 c 4
 625 500 731 470 732 286 c 5
 741 286 775 286 775 286 c 6
 845 286 946 256 946 130 c 4
 946 24 899 -203 486 -203 c 4
 99 -203 40 76 40 229 c 4
265 139 m 4
 265 100 278 30 348 30 c 4
 403 30 443 69 443 96 c 4
 443 118 426 138 422 250 c 5
 381 250 376 250 376 250 c 6
 287 250 265 189 265 139 c 4
461 250 m 5
 463 176 474 30 567 30 c 4
 605 30 659 67 662 250 c 5
 461 250 l 5
461 286 m 5
 662 286 l 5
 659 337 645 460 566 460 c 4
 487 460 462 340 461 286 c 5
685 -244 m 4
 685 -165 744 -98 811 -98 c 4
 899 -98 967 -152 967 -244 c 4
 967 -325 910 -393 825 -393 c 4
 735 -393 685 -326 685 -244 c 4
721 -247 m 4
 721 -310 767 -356 815 -356 c 4
 831 -356 897 -339 897 -234 c 5
 874 -270 861 -289 817 -289 c 4
 745 -289 733 -212 729 -197 c 5
 723 -213 721 -230 721 -247 c 4
767 -200 m 4
 767 -231 788 -253 819 -253 c 4
 847 -253 869 -226 869 -196 c 4
 869 -182 862 -137 817 -137 c 4
 803 -137 767 -152 767 -200 c 4
EndSplineSet
Ligature2: "Suruma-'psts' Post Base Substitutions in mlm2 lookup 8 subtable" l_kra m_uu
Ligature2: "Suruma-'psts' Post Base Substitutions in Malay+AQEA-lam lookup 7 subtable" l_kra m_uu
LCarets2: 1 0 
EndChar

StartChar: l_kla
Encoding: 65598 -1 233
Width: 838
VWidth: 830
Flags: HW
LayerCount: 2
Fore
SplineSet
40 137 m 0
 40 197 67 286 224 286 c 2
 270 286 l 1
 275 455 361 500 422 500 c 0
 474 500 579 470 580 286 c 1
 592 286 632 286 632 286 c 2
 703 286 798 256 798 133 c 0
 798 45 727 -9 662 -9 c 0
 603 -9 596 26 596 34 c 0
 596 41 599 47 610 47 c 0
 632 47 636 30 652 30 c 0
 681 30 724 69 724 135 c 0
 724 234 654 250 620 250 c 2
 620 250 610 250 580 250 c 1
 579 168 572 -10 430 -10 c 0
 340 -10 319 48 316 51 c 1
 309 43 269 -10 186 -10 c 0
 105 -10 40 48 40 137 c 0
114 139 m 0
 114 100 126 30 196 30 c 0
 251 30 292 69 292 96 c 0
 292 118 274 138 270 250 c 1
 229 250 224 250 224 250 c 2
 135 250 114 189 114 139 c 0
120 -156 m 0
 120 -39 228 12 310 12 c 0
 381 12 457 -25 482 -87 c 0
 495 -119 506 -151 518 -183 c 0
 530 -217 567 -242 604 -242 c 0
 661 -242 682 -185 682 -139 c 0
 682 -50 610 -29 610 -9 c 0
 610 -1 619 8 632 8 c 0
 659 8 724 -60 724 -131 c 0
 724 -262 638 -283 594 -283 c 0
 500 -283 472 -229 450 -190 c 0
 440 -172 428 -94 390 -62 c 0
 365 -41 334 -21 300 -21 c 0
 225 -21 178 -89 178 -89 c 1
 191 -81 213 -61 256 -61 c 0
 321 -61 364 -110 364 -173 c 0
 364 -264 283 -281 240 -281 c 0
 195 -281 120 -251 120 -156 c 0
166 -172 m 0
 166 -210 202 -244 240 -244 c 0
 275 -244 306 -213 306 -179 c 0
 306 -143 278 -109 240 -109 c 0
 206 -109 166 -133 166 -172 c 0
310 250 m 1
 312 176 323 30 416 30 c 0
 454 30 507 67 510 250 c 1
 310 250 l 1
310 286 m 1
 510 286 l 1
 507 337 493 460 414 460 c 0
 335 460 311 340 310 286 c 1
EndSplineSet
Ligature2: "Suruma-'blws' Below Base Substitutions in Malay+AQEA-lam lookup 5 subtable" b_ka m_la
Ligature2: "Suruma-'blws' Below Base Substitutions in Malay+AQEA-lam lookup 5 subtable" l_k b_la
Ligature2: "Suruma-'akhn' Akhand in mlm2 lookup 1 subtable" b_ka m_U b_la
LCarets2: 1 0 
EndChar

StartChar: l_klu
Encoding: 65599 -1 234
Width: 838
VWidth: 830
Flags: HW
LayerCount: 2
Fore
SplineSet
40 137 m 0
 40 197 67 286 224 286 c 2
 270 286 l 1
 275 455 361 500 422 500 c 0
 474 500 579 470 580 286 c 1
 592 286 632 286 632 286 c 2
 703 286 798 256 798 133 c 0
 798 45 727 -9 662 -9 c 0
 603 -9 596 26 596 34 c 0
 596 41 599 47 610 47 c 0
 632 47 636 30 652 30 c 0
 681 30 724 69 724 135 c 0
 724 234 654 250 620 250 c 2
 620 250 610 250 580 250 c 1
 579 168 572 -10 430 -10 c 0
 340 -10 319 48 316 51 c 1
 309 43 269 -10 186 -10 c 0
 105 -10 40 48 40 137 c 0
114 139 m 0
 114 100 126 30 196 30 c 0
 251 30 292 69 292 96 c 0
 292 118 274 138 270 250 c 1
 229 250 224 250 224 250 c 2
 135 250 114 189 114 139 c 0
120 -156 m 0
 120 -39 228 12 310 12 c 0
 381 12 457 -25 482 -87 c 0
 495 -119 506 -151 518 -183 c 0
 530 -217 567 -242 604 -242 c 0
 661 -242 682 -185 682 -139 c 0
 682 -50 610 -29 610 -9 c 0
 610 -1 619 8 632 8 c 0
 659 8 724 -60 724 -131 c 0
 724 -262 638 -283 594 -283 c 0
 500 -283 472 -229 450 -190 c 0
 440 -172 428 -94 390 -62 c 0
 365 -41 334 -21 300 -21 c 0
 225 -21 178 -89 178 -89 c 1
 191 -81 213 -61 256 -61 c 0
 321 -61 364 -110 364 -173 c 0
 364 -264 283 -281 240 -281 c 0
 195 -281 120 -251 120 -156 c 0
166 -172 m 0
 166 -210 202 -244 240 -244 c 0
 275 -244 306 -213 306 -179 c 0
 306 -143 278 -109 240 -109 c 0
 206 -109 166 -133 166 -172 c 0
310 250 m 1
 312 176 323 30 416 30 c 0
 454 30 507 67 510 250 c 1
 310 250 l 1
310 286 m 1
 510 286 l 1
 507 337 493 460 414 460 c 0
 335 460 311 340 310 286 c 1
512 -354 m 0
 512 -277 570 -244 618 -244 c 0
 706 -244 732 -322 732 -352 c 0
 732 -406 685 -465 622 -465 c 0
 555 -465 512 -419 512 -354 c 0
548 -353 m 0
 548 -410 585 -428 612 -428 c 0
 635 -428 662 -396 662 -353 c 0
 662 -306 634 -280 612 -280 c 0
 586 -280 548 -303 548 -353 c 0
EndSplineSet
Ligature2: "Suruma-'psts' Post Base Substitutions in mlm2 lookup 8 subtable" l_kla m_u
Ligature2: "Suruma-'psts' Post Base Substitutions in Malay+AQEA-lam lookup 7 subtable" l_kla m_u
LCarets2: 1 0 
EndChar

StartChar: l_kluu
Encoding: 65600 -1 235
Width: 838
VWidth: 830
Flags: HW
LayerCount: 2
Fore
SplineSet
40 137 m 0
 40 197 67 286 224 286 c 2
 270 286 l 1
 275 455 361 500 422 500 c 0
 474 500 579 470 580 286 c 1
 592 286 632 286 632 286 c 2
 703 286 798 256 798 133 c 0
 798 45 727 -9 662 -9 c 0
 603 -9 596 26 596 34 c 0
 596 41 599 47 610 47 c 0
 632 47 636 30 652 30 c 0
 681 30 724 69 724 135 c 0
 724 234 654 250 620 250 c 2
 620 250 610 250 580 250 c 1
 579 168 572 -10 430 -10 c 0
 340 -10 319 48 316 51 c 1
 309 43 269 -10 186 -10 c 0
 105 -10 40 48 40 137 c 0
114 139 m 0
 114 100 126 30 196 30 c 0
 251 30 292 69 292 96 c 0
 292 118 274 138 270 250 c 1
 229 250 224 250 224 250 c 2
 135 250 114 189 114 139 c 0
120 -156 m 0
 120 -39 228 12 310 12 c 0
 381 12 457 -25 482 -87 c 0
 495 -119 506 -151 518 -183 c 0
 530 -217 567 -242 604 -242 c 0
 661 -242 682 -185 682 -139 c 0
 682 -50 610 -29 610 -9 c 0
 610 -1 619 8 632 8 c 0
 659 8 724 -60 724 -131 c 0
 724 -262 638 -283 594 -283 c 0
 500 -283 472 -229 450 -190 c 0
 440 -172 428 -94 390 -62 c 0
 365 -41 334 -21 300 -21 c 0
 225 -21 178 -89 178 -89 c 1
 191 -81 213 -61 256 -61 c 0
 321 -61 364 -110 364 -173 c 0
 364 -264 283 -281 240 -281 c 0
 195 -281 120 -251 120 -156 c 0
166 -172 m 0
 166 -210 202 -244 240 -244 c 0
 275 -244 306 -213 306 -179 c 0
 306 -143 278 -109 240 -109 c 0
 206 -109 166 -133 166 -172 c 0
310 250 m 1
 312 176 323 30 416 30 c 0
 454 30 507 67 510 250 c 1
 310 250 l 1
310 286 m 1
 510 286 l 1
 507 337 493 460 414 460 c 0
 335 460 311 340 310 286 c 1
502 -388 m 4
 502 -309 561 -242 628 -242 c 4
 716 -242 784 -296 784 -388 c 4
 784 -469 727 -537 642 -537 c 4
 552 -537 502 -470 502 -388 c 4
538 -391 m 4
 538 -454 584 -500 632 -500 c 4
 648 -500 714 -483 714 -378 c 5
 691 -414 678 -433 634 -433 c 4
 562 -433 550 -356 546 -341 c 5
 540 -357 538 -374 538 -391 c 4
584 -344 m 4
 584 -375 605 -397 636 -397 c 4
 664 -397 686 -370 686 -340 c 4
 686 -326 679 -281 634 -281 c 4
 620 -281 584 -296 584 -344 c 4
EndSplineSet
Ligature2: "Suruma-'psts' Post Base Substitutions in mlm2 lookup 8 subtable" l_kla m_uu
Ligature2: "Suruma-'psts' Post Base Substitutions in Malay+AQEA-lam lookup 7 subtable" l_kla m_uu
LCarets2: 1 0 
EndChar

StartChar: l_xa
Encoding: 65601 -1 236
Width: 1390
VWidth: 830
Flags: HW
LayerCount: 2
Fore
SplineSet
40 137 m 0
 40 197 68 286 225 286 c 2
 271 286 l 1
 276 455 361 500 422 500 c 0
 474 500 580 470 581 286 c 1
 592 286 626 286 626 286 c 2
 693 286 797 259 797 133 c 0
 797 92 782 59 759 35 c 1
 1022 35 l 1
 1022 233 l 1
 1000 230 971 228 950 228 c 0
 859 228 822 305 822 366 c 0
 822 448 891 500 961 500 c 0
 1039 500 1095 438 1095 371 c 0
 1095 356 1095 330 1095 291 c 1
 1102 295 1277 391 1277 462 c 0
 1277 492 1299 495 1316 495 c 0
 1330 495 1350 493 1350 460 c 0
 1350 419 1350 460 1350 48 c 0
 1350 13 1336 0 1309 0 c 2
 708 0 l 1
 693 -6 677 -9 661 -9 c 0
 639 -9 632 0 632 12 c 0
 632 21 637 30 652 30 c 0
 681 30 724 69 724 135 c 0
 724 234 654 250 620 250 c 2
 620 250 612 250 581 250 c 1
 580 168 573 -10 431 -10 c 0
 341 -10 320 48 317 51 c 1
 310 43 269 -10 186 -10 c 0
 105 -10 40 48 40 137 c 0
114 139 m 0
 114 100 127 30 197 30 c 0
 252 30 292 69 292 96 c 0
 292 118 275 138 271 250 c 1
 230 250 225 250 225 250 c 2
 136 250 114 189 114 139 c 0
310 250 m 1
 312 176 323 30 416 30 c 0
 454 30 508 67 511 250 c 1
 310 250 l 1
310 286 m 1
 511 286 l 1
 508 337 494 460 415 460 c 0
 336 460 311 340 310 286 c 1
860 363 m 0
 860 322 886 265 960 265 c 0
 983 265 996 265 1023 270 c 1
 1022 312 1022 348 1022 390 c 0
 1022 424 980 460 944 460 c 0
 898 460 860 413 860 363 c 0
1094 247 m 1
 1094 140 1094 128 1094 35 c 1
 1279 35 l 1
 1279 157 1279 260 1279 380 c 1
 1224 312 1168 282 1094 247 c 1
EndSplineSet
Ligature2: "Suruma-'akhn' Akhand in mlm2 lookup 1 subtable" b_ka m_U b_Sha
Ligature2: "Suruma-'akhn' Akhand in Malay+AQEA-lam lookup lookup 0 subtable" b_ka m_U b_Sha
LCarets2: 2 0 0 
EndChar

StartChar: l_xu
Encoding: 65602 -1 237
Width: 1390
VWidth: 830
Flags: HW
LayerCount: 2
Fore
SplineSet
40 137 m 4
 40 197 68 286 225 286 c 6
 271 286 l 5
 276 455 361 500 422 500 c 4
 474 500 580 470 581 286 c 5
 592 286 626 286 626 286 c 6
 693 286 797 259 797 133 c 4
 797 92 782 59 759 35 c 5
 1022 35 l 5
 1022 233 l 5
 1000 230 971 228 950 228 c 4
 859 228 822 305 822 366 c 4
 822 448 891 500 961 500 c 4
 1039 500 1095 438 1095 371 c 4
 1095 356 1095 330 1095 291 c 5
 1102 295 1277 391 1277 462 c 4
 1277 492 1299 495 1316 495 c 4
 1330 495 1350 493 1350 460 c 4
 1350 419 1350 460 1350 48 c 4
 1350 13 1336 0 1309 0 c 6
 708 0 l 5
 693 -6 677 -9 661 -9 c 4
 639 -9 632 0 632 12 c 4
 632 21 637 30 652 30 c 4
 681 30 724 69 724 135 c 4
 724 234 654 250 620 250 c 6
 620 250 612 250 581 250 c 5
 580 168 573 -10 431 -10 c 4
 341 -10 320 48 317 51 c 5
 310 43 269 -10 186 -10 c 4
 105 -10 40 48 40 137 c 4
114 139 m 4
 114 100 127 30 197 30 c 4
 252 30 292 69 292 96 c 4
 292 118 275 138 271 250 c 5
 230 250 225 250 225 250 c 6
 136 250 114 189 114 139 c 4
310 250 m 5
 312 176 323 30 416 30 c 4
 454 30 508 67 511 250 c 5
 310 250 l 5
310 286 m 5
 511 286 l 5
 508 337 494 460 415 460 c 4
 336 460 311 340 310 286 c 5
860 363 m 4
 860 322 886 265 960 265 c 4
 983 265 996 265 1023 270 c 5
 1022 312 1022 348 1022 390 c 4
 1022 424 980 460 944 460 c 4
 898 460 860 413 860 363 c 4
1094 247 m 5
 1094 140 1094 128 1094 35 c 5
 1279 35 l 5
 1279 157 1279 260 1279 380 c 5
 1224 312 1168 282 1094 247 c 5
1128 -75 m 0
 1128 2 1187 35 1235 35 c 0
 1323 35 1349 -43 1349 -73 c 0
 1349 -127 1302 -186 1239 -186 c 0
 1172 -186 1128 -140 1128 -75 c 0
1164 -74 m 0
 1164 -131 1201 -149 1228 -149 c 0
 1251 -149 1278 -117 1278 -74 c 0
 1278 -27 1251 -1 1229 -1 c 0
 1203 -1 1164 -24 1164 -74 c 0
EndSplineSet
Ligature2: "Suruma-'psts' Post Base Substitutions in mlm2 lookup 8 subtable" l_xa m_u
Ligature2: "Suruma-'psts' Post Base Substitutions in Malay+AQEA-lam lookup 7 subtable" l_xa m_u
LCarets2: 1 0 
EndChar

StartChar: l_xuu
Encoding: 65603 -1 238
Width: 1390
VWidth: 830
Flags: HW
LayerCount: 2
Fore
SplineSet
40 137 m 4
 40 197 68 286 225 286 c 6
 271 286 l 5
 276 455 361 500 422 500 c 4
 474 500 580 470 581 286 c 5
 592 286 626 286 626 286 c 6
 693 286 797 259 797 133 c 4
 797 92 782 59 759 35 c 5
 1022 35 l 5
 1022 233 l 5
 1000 230 971 228 950 228 c 4
 859 228 822 305 822 366 c 4
 822 448 891 500 961 500 c 4
 1039 500 1095 438 1095 371 c 4
 1095 356 1095 330 1095 291 c 5
 1102 295 1277 391 1277 462 c 4
 1277 492 1299 495 1316 495 c 4
 1330 495 1350 493 1350 460 c 4
 1350 419 1350 460 1350 48 c 4
 1350 13 1336 0 1309 0 c 6
 708 0 l 5
 693 -6 677 -9 661 -9 c 4
 639 -9 632 0 632 12 c 4
 632 21 637 30 652 30 c 4
 681 30 724 69 724 135 c 4
 724 234 654 250 620 250 c 6
 620 250 612 250 581 250 c 5
 580 168 573 -10 431 -10 c 4
 341 -10 320 48 317 51 c 5
 310 43 269 -10 186 -10 c 4
 105 -10 40 48 40 137 c 4
114 139 m 4
 114 100 127 30 197 30 c 4
 252 30 292 69 292 96 c 4
 292 118 275 138 271 250 c 5
 230 250 225 250 225 250 c 6
 136 250 114 189 114 139 c 4
310 250 m 5
 312 176 323 30 416 30 c 4
 454 30 508 67 511 250 c 5
 310 250 l 5
310 286 m 5
 511 286 l 5
 508 337 494 460 415 460 c 4
 336 460 311 340 310 286 c 5
860 363 m 4
 860 322 886 265 960 265 c 4
 983 265 996 265 1023 270 c 5
 1022 312 1022 348 1022 390 c 4
 1022 424 980 460 944 460 c 4
 898 460 860 413 860 363 c 4
1094 247 m 5
 1094 140 1094 128 1094 35 c 5
 1279 35 l 5
 1279 157 1279 260 1279 380 c 5
 1224 312 1168 282 1094 247 c 5
1062 -111 m 0
 1062 -32 1122 35 1189 35 c 0
 1277 35 1345 -19 1345 -111 c 0
 1345 -192 1287 -260 1202 -260 c 0
 1112 -260 1062 -193 1062 -111 c 0
1098 -114 m 0
 1098 -177 1145 -223 1193 -223 c 0
 1209 -223 1275 -206 1275 -101 c 1
 1252 -137 1238 -156 1194 -156 c 0
 1122 -156 1111 -79 1107 -64 c 1
 1101 -80 1098 -97 1098 -114 c 0
1145 -67 m 0
 1145 -98 1166 -120 1197 -120 c 0
 1225 -120 1246 -93 1246 -63 c 0
 1246 -49 1239 -4 1194 -4 c 0
 1180 -4 1145 -19 1145 -67 c 0
EndSplineSet
Ligature2: "Suruma-'psts' Post Base Substitutions in mlm2 lookup 8 subtable" l_xa m_uu
Ligature2: "Suruma-'psts' Post Base Substitutions in Malay+AQEA-lam lookup 7 subtable" l_xa m_uu
LCarets2: 1 0 
EndChar

StartChar: l_xma
Encoding: 65604 -1 239
Width: 1390
VWidth: 830
Flags: HW
LayerCount: 2
Fore
SplineSet
40 137 m 4
 40 197 68 286 225 286 c 6
 271 286 l 5
 276 455 361 500 422 500 c 4
 474 500 580 470 581 286 c 5
 592 286 626 286 626 286 c 6
 693 286 797 259 797 133 c 4
 797 92 782 59 759 35 c 5
 1022 35 l 5
 1022 233 l 5
 1000 230 971 228 950 228 c 4
 859 228 822 305 822 366 c 4
 822 448 891 500 961 500 c 4
 1039 500 1095 438 1095 371 c 4
 1095 356 1095 330 1095 291 c 5
 1102 295 1277 391 1277 462 c 4
 1277 492 1299 495 1316 495 c 4
 1330 495 1350 493 1350 460 c 4
 1350 419 1350 460 1350 48 c 4
 1350 13 1336 0 1309 0 c 6
 708 0 l 5
 693 -6 677 -9 661 -9 c 4
 639 -9 632 0 632 12 c 4
 632 21 637 30 652 30 c 4
 681 30 724 69 724 135 c 4
 724 234 654 250 620 250 c 6
 620 250 612 250 581 250 c 5
 580 168 573 -10 431 -10 c 4
 341 -10 320 48 317 51 c 5
 310 43 269 -10 186 -10 c 4
 105 -10 40 48 40 137 c 4
114 139 m 4
 114 100 127 30 197 30 c 4
 252 30 292 69 292 96 c 4
 292 118 275 138 271 250 c 5
 230 250 225 250 225 250 c 6
 136 250 114 189 114 139 c 4
310 250 m 5
 312 176 323 30 416 30 c 4
 454 30 508 67 511 250 c 5
 310 250 l 5
310 286 m 5
 511 286 l 5
 508 337 494 460 415 460 c 4
 336 460 311 340 310 286 c 5
860 363 m 4
 860 322 886 265 960 265 c 4
 983 265 996 265 1023 270 c 5
 1022 312 1022 348 1022 390 c 4
 1022 424 980 460 944 460 c 4
 898 460 860 413 860 363 c 4
1094 247 m 5
 1094 140 1094 128 1094 35 c 5
 1279 35 l 5
 1279 157 1279 260 1279 380 c 5
 1224 312 1168 282 1094 247 c 5
917 -146 m 6
 917 -72 971 9 1062 9 c 4
 1135 9 1211 -47 1211 -158 c 6
 1211 -280 l 6
 1210 -303 1195 -307 1188 -307 c 4
 938 -307 l 4
 928 -306 917 -302 917 -274 c 6
 917 -146 l 6
953 -172 m 6
 953 -267 l 5
 1022 -238 1059 -159 1059 -102 c 4
 1059 -66 1043 -43 1019 -43 c 4
 1004 -43 953 -73 953 -172 c 6
1031 -271 m 5
 1173 -271 l 5
 1173 -184 l 6
 1173 -129 1171 -56 1095 -36 c 5
 1107 -49 1117 -68 1117 -103 c 4
 1117 -191 1061 -246 1031 -271 c 5
EndSplineSet
Ligature2: "Suruma-'akhn' Akhand in mlm2 lookup 1 subtable" b_ka m_U b_Sha m_U b_ma
Ligature2: "Suruma-'pres' Pre Base Substitutions in Malay+AQEA-lam lookup 6 subtable" l_xa m_U b_ma
LCarets2: 2 0 0 
EndChar

StartChar: l_xmu
Encoding: 65605 -1 240
Width: 1390
VWidth: 830
Flags: HW
LayerCount: 2
Fore
SplineSet
40 137 m 4
 40 197 68 286 225 286 c 6
 271 286 l 5
 276 455 361 500 422 500 c 4
 474 500 580 470 581 286 c 5
 592 286 626 286 626 286 c 6
 693 286 797 259 797 133 c 4
 797 92 782 59 759 35 c 5
 1022 35 l 5
 1022 233 l 5
 1000 230 971 228 950 228 c 4
 859 228 822 305 822 366 c 4
 822 448 891 500 961 500 c 4
 1039 500 1095 438 1095 371 c 4
 1095 356 1095 330 1095 291 c 5
 1102 295 1277 391 1277 462 c 4
 1277 492 1299 495 1316 495 c 4
 1330 495 1350 493 1350 460 c 4
 1350 419 1350 460 1350 48 c 4
 1350 13 1336 0 1309 0 c 6
 708 0 l 5
 693 -6 677 -9 661 -9 c 4
 639 -9 632 0 632 12 c 4
 632 21 637 30 652 30 c 4
 681 30 724 69 724 135 c 4
 724 234 654 250 620 250 c 6
 620 250 612 250 581 250 c 5
 580 168 573 -10 431 -10 c 4
 341 -10 320 48 317 51 c 5
 310 43 269 -10 186 -10 c 4
 105 -10 40 48 40 137 c 4
114 139 m 4
 114 100 127 30 197 30 c 4
 252 30 292 69 292 96 c 4
 292 118 275 138 271 250 c 5
 230 250 225 250 225 250 c 6
 136 250 114 189 114 139 c 4
310 250 m 5
 312 176 323 30 416 30 c 4
 454 30 508 67 511 250 c 5
 310 250 l 5
310 286 m 5
 511 286 l 5
 508 337 494 460 415 460 c 4
 336 460 311 340 310 286 c 5
860 363 m 4
 860 322 886 265 960 265 c 4
 983 265 996 265 1023 270 c 5
 1022 312 1022 348 1022 390 c 4
 1022 424 980 460 944 460 c 4
 898 460 860 413 860 363 c 4
1094 247 m 5
 1094 140 1094 128 1094 35 c 5
 1279 35 l 5
 1279 157 1279 260 1279 380 c 5
 1224 312 1168 282 1094 247 c 5
917 -146 m 6
 917 -72 971 9 1062 9 c 4
 1135 9 1211 -47 1211 -158 c 6
 1211 -280 l 6
 1210 -303 1195 -307 1188 -307 c 4
 938 -307 l 4
 928 -306 917 -302 917 -274 c 6
 917 -146 l 6
953 -172 m 6
 953 -267 l 5
 1022 -238 1059 -159 1059 -102 c 4
 1059 -66 1043 -43 1019 -43 c 4
 1004 -43 953 -73 953 -172 c 6
1031 -271 m 5
 1173 -271 l 5
 1173 -184 l 6
 1173 -129 1171 -56 1095 -36 c 5
 1107 -49 1117 -68 1117 -103 c 4
 1117 -191 1061 -246 1031 -271 c 5
1071 -394 m 0
 1071 -317 1130 -284 1178 -284 c 0
 1266 -284 1292 -362 1292 -392 c 0
 1292 -446 1245 -505 1182 -505 c 0
 1115 -505 1071 -459 1071 -394 c 0
1107 -393 m 0
 1107 -450 1144 -468 1171 -468 c 0
 1194 -468 1221 -436 1221 -393 c 0
 1221 -346 1194 -320 1172 -320 c 0
 1146 -320 1107 -343 1107 -393 c 0
EndSplineSet
Ligature2: "Suruma-'psts' Post Base Substitutions in mlm2 lookup 8 subtable" l_xma m_u
Ligature2: "Suruma-'psts' Post Base Substitutions in Malay+AQEA-lam lookup 7 subtable" l_xma m_u
LCarets2: 1 0 
EndChar

StartChar: l_xmuu
Encoding: 65606 -1 241
Width: 1390
VWidth: 830
Flags: HW
LayerCount: 2
Fore
SplineSet
40 137 m 0
 40 197 68 286 225 286 c 2
 271 286 l 1
 276 455 361 500 422 500 c 0
 474 500 580 470 581 286 c 1
 592 286 626 286 626 286 c 2
 693 286 797 259 797 133 c 0
 797 92 782 59 759 35 c 1
 1022 35 l 1
 1022 233 l 1
 1000 230 971 228 950 228 c 0
 859 228 822 305 822 366 c 0
 822 448 891 500 961 500 c 0
 1039 500 1095 438 1095 371 c 0
 1095 356 1095 330 1095 291 c 1
 1102 295 1277 391 1277 462 c 0
 1277 492 1299 495 1316 495 c 0
 1330 495 1350 493 1350 460 c 0
 1350 419 1350 460 1350 48 c 0
 1350 13 1336 0 1309 0 c 2
 708 0 l 1
 693 -6 677 -9 661 -9 c 0
 639 -9 632 0 632 12 c 0
 632 21 637 30 652 30 c 0
 681 30 724 69 724 135 c 0
 724 234 654 250 620 250 c 2
 620 250 612 250 581 250 c 1
 580 168 573 -10 431 -10 c 0
 341 -10 320 48 317 51 c 1
 310 43 269 -10 186 -10 c 0
 105 -10 40 48 40 137 c 0
114 139 m 0
 114 100 127 30 197 30 c 0
 252 30 292 69 292 96 c 0
 292 118 275 138 271 250 c 1
 230 250 225 250 225 250 c 2
 136 250 114 189 114 139 c 0
310 250 m 1
 312 176 323 30 416 30 c 0
 454 30 508 67 511 250 c 1
 310 250 l 1
310 286 m 1
 511 286 l 1
 508 337 494 460 415 460 c 0
 336 460 311 340 310 286 c 1
860 363 m 0
 860 322 886 265 960 265 c 0
 983 265 996 265 1023 270 c 1
 1022 312 1022 348 1022 390 c 0
 1022 424 980 460 944 460 c 0
 898 460 860 413 860 363 c 0
1094 247 m 1
 1094 140 1094 128 1094 35 c 1
 1279 35 l 1
 1279 157 1279 260 1279 380 c 1
 1224 312 1168 282 1094 247 c 1
917 -146 m 2
 917 -72 971 9 1062 9 c 0
 1135 9 1211 -47 1211 -158 c 2
 1211 -280 l 2
 1210 -303 1195 -307 1188 -307 c 0
 938 -307 l 0
 928 -306 917 -302 917 -274 c 2
 917 -146 l 2
953 -172 m 2
 953 -267 l 1
 1022 -238 1059 -159 1059 -102 c 0
 1059 -66 1043 -43 1019 -43 c 0
 1004 -43 953 -73 953 -172 c 2
1031 -271 m 1
 1173 -271 l 1
 1173 -184 l 2
 1173 -129 1171 -56 1095 -36 c 1
 1107 -49 1117 -68 1117 -103 c 0
 1117 -191 1061 -246 1031 -271 c 1
1036 -434 m 0
 1036 -355 1097 -288 1164 -288 c 0
 1252 -288 1320 -342 1320 -434 c 0
 1320 -515 1261 -583 1176 -583 c 0
 1086 -583 1036 -516 1036 -434 c 0
1072 -437 m 0
 1072 -500 1120 -546 1168 -546 c 0
 1184 -546 1250 -529 1250 -424 c 1
 1227 -460 1212 -479 1168 -479 c 0
 1096 -479 1086 -402 1082 -387 c 1
 1076 -403 1072 -420 1072 -437 c 0
1120 -390 m 0
 1120 -421 1141 -443 1172 -443 c 0
 1200 -443 1220 -416 1220 -386 c 0
 1220 -372 1213 -327 1168 -327 c 0
 1154 -327 1120 -342 1120 -390 c 0
EndSplineSet
Ligature2: "Suruma-'psts' Post Base Substitutions in mlm2 lookup 8 subtable" l_xma m_uu
Ligature2: "Suruma-'psts' Post Base Substitutions in Malay+AQEA-lam lookup 7 subtable" l_xma m_uu
LCarets2: 1 0 
EndChar

